<svg width="506" height="506" viewBox="0 0 506 506" fill="none" xmlns="http://www.w3.org/2000/svg">
<path d="M434.809 236.469C450.349 206.489 466.444 162.075 421.374 126.643C376.301 91.2082 331.79 117.877 310.851 137.16C298.769 148.286 287.771 161.193 278.14 172.495C272.525 179.084 267.375 185.128 262.746 189.955C231.548 222.489 200.19 231.146 156.456 243.219C139.408 247.925 120.481 253.15 98.9487 260.51C40.3552 280.543 31.9247 299.395 38.7098 316.915C40.883 316.004 43.1606 315.104 45.5388 314.217C85.1079 299.458 152.547 288.326 230.802 288.326C330.724 288.326 434.645 324.433 473.528 353.356C467.6 341.438 452.22 328.66 438.141 316.963C426.679 307.441 416.079 298.635 412.146 291.594C404.272 277.499 409.52 271.125 418.409 260.328C423.299 254.388 429.292 247.109 434.809 236.469Z" fill="#583DFF"/>
<path d="M435.387 399.553L434.856 399.567L432.525 399.616C354.805 401.118 197.583 391.193 97.8442 378.315C97.8442 378.315 97.8415 378.314 97.8395 378.313L97.8267 378.313C97.8327 378.313 97.8388 378.314 97.8442 378.315C137.877 394.466 194.691 405.366 252.999 405.533C301.239 405.67 334.375 406.447 358.082 407.003C407.858 408.169 416.066 408.362 435.242 399.62L435.387 399.553Z" fill="#583DFF" fill-opacity="0.67"/>
<path fill-rule="evenodd" clip-rule="evenodd" d="M235.434 301.86L237.341 301.983L234.519 347.248L233.159 348.959L231.068 347.524L235.434 301.86Z" fill="#F6F5F5"/>
<path d="M379.201 244.1C408.36 244.1 431.997 220.463 431.997 191.304C431.997 162.146 408.36 138.509 379.201 138.509C350.043 138.509 326.405 162.146 326.405 191.304C326.405 220.463 350.043 244.1 379.201 244.1Z" fill="#F6F5F5"/>
<path fill-rule="evenodd" clip-rule="evenodd" d="M240.993 242.752C240.993 242.752 240.876 239.723 244.486 239.544C248.093 239.366 277.559 242.752 277.559 242.752C277.559 242.752 283.899 243.665 282.852 250.79C281.802 257.915 277.975 274.334 277.975 274.334C277.975 274.334 278.424 277.143 273.82 276.397C269.216 275.652 255.547 272.098 240.993 274.354C240.993 274.354 238.589 274.636 238.659 284.857L237.341 284.614C237.341 284.614 239.265 245.62 240.993 242.752Z" fill="#F6F5F5"/>
<path fill-rule="evenodd" clip-rule="evenodd" d="M262.619 218.644C262.904 218.34 262.619 218.644 262.619 218.644C261.463 219.883 260.481 220.986 259.846 221.782C256.823 225.585 252.772 229.189 251.136 231.945C251.136 231.945 243.894 235.245 240.993 231.813C240.993 231.813 247.646 223.089 252.923 219.191C252.923 219.191 258.048 216.667 262.619 218.644ZM268.242 212.826L262.887 211.271C262.887 211.271 268.318 207.887 271.327 206.605L273.82 207.281C273.82 207.281 271.244 209.799 268.242 212.826C268.242 212.826 268.166 212.907 268.242 212.826Z" fill="#F6F5F5"/>
<path fill-rule="evenodd" clip-rule="evenodd" d="M179.334 357.963C179.334 357.963 169.914 355.874 167.672 345.103C167.672 345.103 169.389 341.996 176.12 334.801C176.12 334.801 184.63 329.338 183.229 320.677C183.229 320.677 173.945 318.271 177.05 304.166L179.03 300.55C179.03 300.55 176.838 284.89 178.694 275.618C178.694 275.618 176.977 263.792 184.13 262.943C184.13 262.943 187.14 262.502 187.472 261.324C187.472 261.324 183.066 249.121 195.965 243.204C208.861 237.291 218.895 247.478 218.49 258.337C218.49 258.337 217.374 265.769 212.823 269.093C212.823 269.093 222.597 275.208 228.039 283.246C228.039 283.246 234.122 289.555 236.797 288.492C236.797 288.492 244.952 288.313 243.841 291.164C242.732 294.012 241.951 298.093 230.01 298.713C230.01 298.713 218.465 297.233 215.456 297.149L213.339 296.41C213.339 296.41 215.944 301.935 213.11 307.203C210.276 312.469 208.216 314.292 208.521 315.314L214.796 344.662C214.796 344.662 214.344 349.618 219.892 348.75C225.439 347.879 223.968 351.265 222.863 352.077C221.757 352.893 212.616 360.711 204.944 350.74C197.272 340.768 196.144 338.718 196.144 338.718L180.802 349.459C180.802 349.459 179.61 350.617 180.478 353.315C180.478 353.315 182.136 357.307 179.334 357.963Z" fill="#F6F5F5"/>
<path fill-rule="evenodd" clip-rule="evenodd" d="M319.677 195.581C316.942 134.151 380.173 137.14 380.308 137.16C455.804 148.328 437.834 244.1 379.328 247.131C379.288 247.133 322.037 248.589 319.677 195.581ZM321.846 195.508C320.199 158.507 344.583 146.355 362.293 142.402C362.353 142.465 362.43 142.533 362.521 142.605C363.738 143.574 364.945 144.465 366.581 144.78C367.54 144.965 368.469 145.3 369.399 145.637C370.115 145.896 370.834 146.156 371.567 146.346C372.538 146.598 373.547 146.711 374.553 146.823C374.844 146.856 375.134 146.888 375.422 146.924C375.69 146.957 375.961 146.959 376.233 146.96C376.575 146.962 376.916 146.964 377.246 147.029C377.682 147.114 378.112 147.237 378.541 147.36C379.073 147.512 379.604 147.664 380.146 147.745C380.532 147.802 380.931 147.782 381.329 147.763C381.805 147.739 382.28 147.716 382.724 147.824C383.89 148.111 385.023 148.55 386.151 148.988C386.311 149.049 386.47 149.112 386.629 149.174L386.883 149.271C388.078 149.732 389.281 150.196 390.418 150.779C391.51 151.339 392.529 151.23 393.109 150.25C393.995 148.759 394.924 147.37 396.895 147.189C397.277 147.154 397.648 146.991 398.018 146.828C398.188 146.755 398.356 146.681 398.526 146.619L398.326 146.54C397.837 146.348 397.348 146.156 396.862 145.958C396.852 145.955 396.855 145.93 396.857 145.904C396.859 145.874 396.861 145.84 396.848 145.831C395.673 144.972 393.723 145.675 393.065 146.939C392.66 147.718 391.878 148.489 391.08 148.828C390.264 149.174 389.576 148.745 388.849 148.291C388.549 148.103 388.242 147.913 387.917 147.77C386.523 147.353 385.267 146.942 384.016 146.519C383.624 146.386 383.233 146.245 382.843 146.103H382.842C382.009 145.801 381.177 145.499 380.322 145.287C379.894 145.18 379.44 145.188 378.984 145.196C378.628 145.202 378.271 145.208 377.924 145.16C377.24 145.065 376.559 144.939 375.878 144.812C375.124 144.671 374.369 144.532 373.608 144.434C373.104 144.37 372.587 144.356 372.073 144.342C371.237 144.319 370.404 144.296 369.635 144.057C369.354 143.97 369.08 143.869 368.809 143.769C368.098 143.506 367.394 143.247 366.561 143.235C365.824 143.224 364.964 142.718 364.394 142.183C364.321 142.113 364.251 142.055 364.182 142.005C373.149 140.24 379.976 140.543 380.019 140.55C448.278 151.117 434.227 241.55 379.328 244.393C379.29 244.395 324.061 245.247 321.846 195.508ZM167.854 348.597L167.911 348.765C168.266 349.803 168.871 350.756 169.494 351.737C169.737 352.12 169.982 352.507 170.217 352.905C170.368 353.09 170.505 353.272 170.637 353.446C170.876 353.762 171.1 354.057 171.361 354.313C173.024 355.935 174.842 357.355 177.004 358.26C177.148 358.322 177.335 358.286 177.52 358.249C177.707 358.214 177.893 358.178 178.036 358.241C179.976 359.098 181.902 357.998 181.824 355.859C181.797 355.124 181.577 354.398 181.356 353.668C181.201 353.159 181.047 352.648 180.956 352.132C180.864 351.596 180.958 350.909 181.234 350.451C181.959 349.251 183.109 348.519 184.322 347.808C184.894 347.472 185.38 346.995 185.869 346.516L185.87 346.516C186.251 346.142 186.632 345.769 187.056 345.459C187.73 344.969 188.446 344.539 189.162 344.108C189.687 343.793 190.211 343.477 190.719 343.139C191.068 342.905 191.396 342.645 191.724 342.385C192.497 341.772 193.267 341.16 194.314 340.898C195.639 340.568 197.023 340.987 197.812 342.221C198.15 342.75 198.551 343.237 198.952 343.724C199.257 344.094 199.562 344.465 199.84 344.853C200.514 345.794 201.148 346.769 201.74 347.762C201.978 348.161 202.186 348.583 202.393 349.004C202.752 349.735 203.109 350.464 203.623 351.063C204.324 351.877 205.129 352.601 205.936 353.325C206.484 353.817 207.033 354.31 207.549 354.831C209.004 356.3 210.878 356.685 212.775 356.847C213.749 356.928 214.735 356.737 215.697 356.55C216.301 356.433 216.896 356.318 217.472 356.273C218.235 356.213 218.842 355.912 219.439 355.617C219.995 355.341 220.54 355.071 221.193 355.005C221.804 354.943 222.369 354.425 222.934 353.908C223.186 353.676 223.438 353.445 223.695 353.254C225.313 352.051 225.366 349.817 223.747 348.681C223.582 348.566 223.338 348.557 223.095 348.548C222.843 348.539 222.593 348.53 222.437 348.402C221.192 347.383 219.858 347.654 218.494 347.95C217.289 348.21 215.823 346.874 215.839 345.649C215.847 345.15 215.713 344.646 215.582 344.149V344.147C215.547 344.019 215.514 343.892 215.482 343.765C215.406 343.45 215.31 343.138 215.213 342.827C215.041 342.268 214.868 341.711 214.812 341.143C214.763 340.644 214.641 340.163 214.52 339.682C214.361 339.05 214.201 338.418 214.204 337.746C214.206 337.341 214.049 336.941 213.892 336.537C213.776 336.24 213.659 335.941 213.604 335.637C213.524 335.198 213.492 334.751 213.461 334.303C213.427 333.839 213.394 333.374 213.307 332.918C213.19 332.303 213.035 331.695 212.882 331.089V331.087L212.881 331.086V331.085L212.88 331.083C212.706 330.396 212.532 329.71 212.412 329.015C212.323 328.499 212.322 327.968 212.322 327.436C212.322 327.09 212.322 326.744 212.297 326.402C212.283 326.2 212.282 325.982 212.281 325.761C212.279 325.141 212.277 324.501 211.965 324.148C211.582 323.717 211.598 323.268 211.615 322.81C211.629 322.429 211.643 322.041 211.427 321.653C211.014 320.909 210.989 319.944 210.966 318.986C210.957 318.627 210.947 318.269 210.918 317.925C210.898 317.688 210.926 317.421 210.955 317.159V317.157V317.156C211.003 316.707 211.05 316.271 210.85 316.016C210.118 315.084 210.54 314.159 210.852 313.475C210.87 313.435 210.887 313.397 210.904 313.358C211.414 312.227 212.019 311.138 212.625 310.049C213.274 308.882 213.923 307.715 214.453 306.497C214.946 305.362 215.103 304.068 215.257 302.796L215.258 302.794C215.288 302.54 215.319 302.287 215.352 302.036C215.412 301.582 215.395 301.117 215.379 300.652V300.651V300.65C215.36 300.133 215.341 299.616 215.429 299.117C215.492 298.764 215.978 298.46 216.389 298.203C216.451 298.164 216.512 298.126 216.569 298.09C216.611 298.063 216.704 298.145 216.818 298.244C216.949 298.36 217.106 298.497 217.238 298.514C217.612 298.562 218.021 298.558 218.427 298.554C219.217 298.547 219.997 298.539 220.493 298.915C221.381 299.59 222.313 299.554 223.203 299.52C223.571 299.506 223.932 299.492 224.279 299.529C226.226 299.736 228.208 299.613 230.19 299.491H230.192H230.193H230.194H230.196H230.197H230.198H230.2L230.201 299.491H230.202C230.978 299.443 231.752 299.395 232.525 299.367C233.037 299.349 233.554 299.329 234.059 299.247C236.571 298.842 239.041 298.255 241.028 296.556C241.642 296.032 242.157 295.392 242.672 294.752C242.887 294.484 243.103 294.216 243.326 293.957C243.918 293.267 244.141 292.481 244.393 291.582C244.861 289.92 243.822 287.833 242.023 287.967C241.283 288.023 240.783 287.79 240.189 287.506C239.834 287.334 239.356 287.332 238.946 287.378C238.663 287.41 238.377 287.464 238.093 287.519C236.938 287.739 235.795 287.956 234.868 286.66C234.674 286.389 234.292 286.242 233.925 286.101C233.817 286.06 233.711 286.019 233.61 285.976C233.403 285.886 233.178 285.82 232.954 285.754C232.553 285.638 232.156 285.522 231.872 285.272C230.707 284.247 229.622 283.123 228.573 281.977C228.039 281.393 227.532 280.783 227.026 280.174L227.025 280.173L227.024 280.172L227.023 280.171L227.022 280.169L227.021 280.168L227.02 280.167L227.019 280.166L227.018 280.165C226.493 279.533 225.967 278.9 225.412 278.297C224.315 277.106 223.165 275.958 221.974 274.861C220.997 273.96 219.954 273.121 218.885 272.33C218.108 271.754 217.271 271.256 216.437 270.76L216.199 270.619C215.095 269.96 215.003 268.801 214.979 267.761C214.974 267.517 215.407 267.264 215.841 267.01C216.04 266.893 216.24 266.776 216.397 266.66C216.434 266.633 216.474 266.601 216.495 266.561C216.679 266.227 216.864 265.894 217.048 265.56L217.049 265.559L217.05 265.558L217.05 265.556L217.051 265.555L217.052 265.553L217.053 265.552L217.054 265.551C217.598 264.57 218.141 263.59 218.657 262.593C218.791 262.335 218.844 262.032 218.896 261.731C218.916 261.62 218.935 261.508 218.958 261.4C219.041 261.018 219.136 260.636 219.232 260.253C219.484 259.251 219.735 258.249 219.746 257.244C219.751 256.75 219.65 256.081 219.553 255.5C219.369 254.399 219.174 253.293 218.873 252.221C218.765 251.836 218.578 251.474 218.39 251.112C218.248 250.836 218.105 250.559 217.996 250.271C217.863 249.919 217.767 249.539 217.672 249.161C217.493 248.455 217.316 247.754 216.9 247.243C216.521 246.779 216.205 246.261 215.888 245.741C215.15 244.531 214.408 243.314 212.875 242.769C212.257 242.548 211.671 242.209 211.088 241.872C210.31 241.421 209.537 240.975 208.702 240.82C206.549 240.419 204.294 240.455 202.086 240.492C200.346 240.522 198.538 240.597 196.897 241.099C195.715 241.46 194.521 242.044 193.388 242.804C193.181 242.941 192.972 243.079 192.76 243.217C191.68 243.922 190.574 244.644 189.867 245.593C189.595 245.958 189.28 246.308 188.963 246.661C188.005 247.727 187.022 248.822 187.087 250.463C186.01 251.076 185.979 252.13 185.951 253.108C185.942 253.414 185.933 253.712 185.894 253.987L185.889 254.019C185.721 255.16 185.541 256.383 185.803 257.731C186.123 259.384 186.486 260.866 187.348 262.284C187.858 263.123 188.279 264.015 186.865 264.481C186.667 264.547 186.424 264.718 186.358 264.898C186.021 265.814 185.566 266.644 184.596 266.971C183.706 267.271 183.772 267.894 183.838 268.506C183.855 268.663 183.872 268.819 183.872 268.969C183.872 269.048 184.617 269.305 184.799 269.175C185.351 268.779 185.885 268.356 186.419 267.933C187.151 267.354 187.882 266.775 188.66 266.265C189.129 265.958 189.957 265.915 190.514 266.09C191.12 266.279 191.688 266.582 192.257 266.885C192.604 267.069 192.951 267.253 193.306 267.413C194.223 267.824 195.149 268.214 196.074 268.604C196.559 268.808 197.042 269.012 197.526 269.219C198.156 269.489 198.27 269.843 197.683 270.299C197.38 270.535 197.075 270.771 196.77 271.005L196.769 271.007L196.768 271.008L196.767 271.008L196.766 271.01H196.765L196.764 271.011C195.977 271.619 195.189 272.226 194.414 272.85C192.262 274.585 191.179 276.993 190.882 279.602C190.678 281.404 190.877 283.388 191.454 285.103C191.909 286.459 192.839 287.676 193.746 288.863C193.909 289.076 194.071 289.288 194.229 289.499C195.406 291.073 197.082 292.006 198.75 292.933C199.226 293.199 199.703 293.463 200.166 293.742C201.238 294.389 202.482 294.785 203.689 295.161C204.284 295.345 204.899 295.458 205.515 295.571C206.007 295.662 206.499 295.752 206.982 295.879C207.422 295.995 207.851 296.158 208.279 296.32C208.678 296.471 209.077 296.623 209.487 296.736C210.223 296.941 210.971 297.109 211.719 297.277C212.091 297.361 212.464 297.445 212.835 297.533C212.841 297.534 212.843 297.543 212.845 297.557C212.845 297.564 212.846 297.571 212.847 297.58C212.848 297.596 212.849 297.614 212.853 297.628C212.853 297.631 212.854 297.634 212.855 297.636C212.856 297.639 212.857 297.641 212.857 297.643C212.86 297.647 212.863 297.651 212.865 297.653C213.363 298.048 214.063 301.016 213.871 301.59C213.521 302.632 213.224 303.693 212.928 304.752L212.867 304.968C212.803 305.196 212.763 305.437 212.722 305.677C212.65 306.11 212.577 306.541 212.368 306.893L212.17 307.229C211.256 308.776 210.332 310.338 209.197 311.715C208.067 313.084 206.748 314.374 205.066 315.093C204.737 315.233 204.455 315.45 204.17 315.668C203.585 316.116 202.99 316.573 201.96 316.392C201.407 316.296 200.73 316.898 200.056 317.497C199.759 317.762 199.462 318.026 199.176 318.229C199.106 318.278 199.054 318.352 199.002 318.426C198.99 318.443 198.978 318.46 198.966 318.476C198.955 318.493 198.942 318.508 198.93 318.523C198.942 318.526 198.952 318.53 198.964 318.533L198.981 318.539L198.995 318.544L199.006 318.549L199.02 318.553L199.051 318.565C199.135 318.597 199.218 318.629 199.303 318.629C199.591 318.633 199.883 318.625 200.173 318.617H200.174C200.771 318.6 201.368 318.584 201.949 318.668C202.515 318.749 203.525 319.221 203.499 319.399C203.365 320.333 203.31 321.271 203.256 322.211C203.168 323.718 203.079 325.23 202.66 326.74C202.396 327.689 201.967 328.542 201.541 329.39C201.217 330.033 200.895 330.674 200.647 331.352C199.994 333.136 198.401 334.702 196.918 336.029C195.649 337.164 194.243 338.146 192.837 339.129C192.135 339.618 191.433 340.109 190.748 340.618C189.935 341.225 189.137 341.854 188.34 342.482L188.337 342.484L188.335 342.486L188.333 342.488L188.33 342.49C187.869 342.853 187.409 343.216 186.945 343.575L186.804 343.683L186.803 343.684L186.802 343.685L186.798 343.687L186.797 343.689L186.796 343.689C186.085 344.238 185.371 344.787 184.643 345.314C184.345 345.528 184.052 345.755 183.759 345.981C182.993 346.572 182.225 347.164 181.368 347.561C179.991 348.198 179.142 349.242 179.153 350.571C179.161 351.543 179.425 352.511 179.689 353.481C179.822 353.966 179.954 354.451 180.054 354.938C180.115 355.229 180.119 355.532 180.123 355.835C180.125 355.974 180.127 356.113 180.134 356.25C179.855 356.242 179.567 356.254 179.279 356.267C178.63 356.297 177.98 356.327 177.428 356.108C176.765 355.847 176.166 355.433 175.565 355.018C175.144 354.728 174.721 354.435 174.275 354.195C172.669 353.33 171.786 351.861 170.94 350.373C170.336 349.308 169.831 348.181 169.331 347.061L169.262 346.908C169.25 346.883 169.239 346.856 169.227 346.829L169.206 346.786C169.008 346.349 168.754 345.79 168.908 345.49C169.414 344.507 170.077 343.589 170.782 342.729C172.176 341.025 173.614 339.357 175.052 337.689L175.053 337.688L175.054 337.686L175.055 337.685L175.056 337.684L175.056 337.683L175.058 337.681L175.06 337.679L175.559 337.101C175.765 336.861 175.967 336.615 176.168 336.368C176.752 335.655 177.338 334.938 178.045 334.378C179.982 332.845 181.534 331.039 182.893 328.987C183.952 327.387 184.368 325.779 183.972 323.925C183.948 323.808 184.025 323.669 184.103 323.53C184.14 323.465 184.176 323.399 184.202 323.336C183.875 323.253 183.547 323.17 183.22 323.086L183.205 323.082C182.864 322.996 182.523 322.909 182.182 322.823C182.149 322.96 182.105 323.099 182.06 323.237C181.962 323.539 181.864 323.841 181.894 324.129C182.13 326.385 181.411 328.071 179.702 329.71C177.512 331.811 175.501 334.103 173.491 336.393L173.49 336.396C172.822 337.157 172.154 337.918 171.479 338.672C171.12 339.073 170.743 339.451 170.366 339.828C169.074 341.12 167.797 342.397 167.354 344.533C167.017 346.162 167.427 347.357 167.854 348.597ZM230.839 297.035C230.271 297.077 229.702 297.12 229.128 297.154C220.493 297.653 210.709 295.096 210.018 294.777C209.265 294.428 208.441 294.23 207.617 294.033C207.29 293.954 206.963 293.876 206.64 293.788C206.362 293.712 206.082 293.643 205.801 293.573C205.362 293.464 204.921 293.355 204.489 293.222C203.328 292.864 202.171 292.482 201.024 292.08C200.613 291.936 200.214 291.733 199.842 291.504C199.568 291.336 199.288 291.175 199.007 291.013C198.227 290.563 197.446 290.113 196.8 289.518C196.158 288.927 195.693 288.128 195.238 287.346L195.197 287.275C195.127 287.156 195.057 287.036 194.987 286.918C194.486 286.076 194.03 285.189 193.664 284.288C192.127 280.498 194.053 276.403 194.861 275.088C195.884 273.423 197.789 272.509 199.342 272.228C200.675 271.987 202.434 271.932 204.049 272.489C205.159 272.872 206.126 273.452 207.088 274.03C207.66 274.373 208.23 274.715 208.827 275.014C210.833 276.018 212.63 277.322 214.41 278.613L214.62 278.765C215.648 279.51 216.531 280.451 217.416 281.393C217.96 281.972 218.504 282.552 219.083 283.089C219.982 283.919 220.951 284.674 221.919 285.428C222.148 285.607 222.378 285.785 222.606 285.965C222.845 286.153 223.081 286.349 223.319 286.544C224.035 287.135 224.754 287.729 225.563 288.142C226.588 288.666 227.691 289.04 228.792 289.414C229.145 289.534 229.499 289.654 229.85 289.779C230.698 290.082 231.556 290.368 232.429 290.582C232.526 290.606 232.623 290.631 232.721 290.655L232.724 290.656C233.407 290.829 234.113 291.008 234.788 290.953C236.754 290.792 236.844 290.723 238.482 289.479C238.57 289.412 238.661 289.342 238.758 289.269C238.956 289.118 239.285 289.009 239.517 289.058C240.872 289.34 242.262 289.682 243.14 290.81C243.331 291.055 242.875 292.049 242.475 292.462C242.4 292.539 242.325 292.616 242.251 292.693C241.056 293.93 239.887 295.14 238.151 295.853C236.645 296.471 235.22 296.824 233.638 296.869C232.703 296.894 231.772 296.965 230.839 297.035ZM188.051 259.794C188.043 259.653 188.034 259.512 188.018 259.376C187.945 258.767 187.881 258.158 187.816 257.548V257.546C187.79 257.296 187.763 257.045 187.736 256.794C187.89 255.523 188.025 254.529 188.202 253.542C188.234 253.366 188.261 253.186 188.288 253.005C188.374 252.423 188.462 251.835 188.72 251.34C189.013 250.776 189.381 250.25 189.749 249.724C190.102 249.22 190.455 248.715 190.743 248.176C191.723 246.341 193.424 245.433 195.102 244.538C195.551 244.298 196 244.059 196.433 243.803C197.36 243.253 198.515 243.073 199.656 242.894H199.657C200.023 242.837 200.388 242.78 200.742 242.711C201.679 242.53 202.648 242.418 203.6 242.436C205.122 242.465 206.591 242.817 208.082 243.19C210.112 243.699 211.742 244.743 213.234 246.071C213.539 246.343 213.717 246.759 213.894 247.174C213.981 247.377 214.068 247.581 214.17 247.768C214.38 248.154 214.594 248.538 214.807 248.923L214.81 248.927C215.169 249.574 215.529 250.221 215.873 250.876C216.353 251.79 215.553 252.817 214.497 252.873C213.759 252.912 208.296 253.374 206.323 255.104C204.64 256.578 204.231 257.145 203.572 258.058C203.458 258.216 203.337 258.384 203.2 258.569C202.716 259.224 202.305 262.232 202.568 263.034C202.798 263.735 203.114 264.407 203.43 265.08V265.081L203.43 265.083C203.683 265.62 203.936 266.159 204.145 266.713C204.295 267.109 204.331 267.548 204.367 267.988C204.383 268.187 204.399 268.386 204.426 268.581C204.233 268.575 204.039 268.578 203.844 268.58C203.403 268.585 202.961 268.59 202.538 268.504C202.067 268.409 201.613 268.231 201.159 268.053L201.158 268.052C200.956 267.973 200.754 267.894 200.55 267.822L199.989 267.624C199.32 267.387 198.651 267.151 197.981 266.915L197.932 266.897L196.595 266.426C196.311 266.326 196.024 266.233 195.737 266.14L195.736 266.14C195.102 265.935 194.469 265.73 193.872 265.447C191.624 264.38 189.521 263.088 188.258 260.83C188.096 260.538 188.073 260.164 188.051 259.794ZM211.247 333.044C211.386 333.62 211.525 334.195 211.652 334.772C211.673 334.867 211.61 334.979 211.547 335.091C211.518 335.144 211.488 335.196 211.468 335.247C211.654 336.302 211.83 337.081 212.028 337.854C212.169 338.403 212.314 338.95 212.459 339.498C212.736 340.545 213.013 341.594 213.26 342.648C213.396 343.234 213.462 343.868 213.405 344.462C213.25 346.065 215.099 349.541 216.575 349.781C217.579 349.945 218.61 349.93 219.644 349.914C220.284 349.905 220.925 349.896 221.561 349.929C222.061 349.954 222.603 350.189 223.003 350.49C223.128 350.585 222.968 351.319 222.735 351.573C222.189 352.169 221.563 352.712 220.893 353.162C218.521 354.759 215.812 354.734 213.114 354.642C210.729 354.561 208.554 354.014 207.106 351.841C206.426 350.822 205.707 349.827 204.988 348.833C204.544 348.218 204.1 347.604 203.665 346.984C203.301 346.463 202.947 345.936 202.592 345.409C202.158 344.763 201.724 344.118 201.272 343.486C200.931 343.009 200.569 342.544 200.207 342.079C199.428 341.078 198.65 340.078 198.087 338.968C197.794 338.39 198.384 337.101 198.925 336.416C199.5 335.689 200.151 335.021 200.802 334.353L200.804 334.351L200.805 334.35C201.55 333.586 202.295 332.822 202.924 331.972C203.227 331.562 203.332 331 203.436 330.441C203.546 329.854 203.656 329.27 203.993 328.872C204.851 327.862 204.863 326.737 204.875 325.631C204.879 325.154 204.884 324.68 204.957 324.221C205.064 323.555 205.162 322.884 205.261 322.213C205.467 320.807 205.675 319.399 205.952 318.012C206.055 317.503 206.598 317.073 207.122 316.659C207.297 316.521 207.469 316.384 207.623 316.247C207.691 316.186 208.226 316.431 208.296 316.624C208.531 317.272 208.71 317.954 208.806 318.638C208.92 319.452 209.016 320.27 209.112 321.088V321.089V321.091L209.112 321.092V321.093L209.113 321.095C209.238 322.167 209.364 323.238 209.531 324.302C209.618 324.855 209.771 325.398 209.924 325.941C210.059 326.418 210.193 326.895 210.283 327.379C210.373 327.862 210.415 328.355 210.458 328.847C210.503 329.36 210.548 329.874 210.645 330.377C210.819 331.271 211.033 332.158 211.247 333.044ZM209.677 268.551C209.153 268.706 208.295 268.282 207.808 267.865C207.376 267.495 207.053 266.997 206.729 266.5C206.59 266.286 206.451 266.072 206.302 265.867C206.171 265.67 206.04 265.482 205.913 265.3C205.504 264.713 205.141 264.192 204.938 263.616C204.815 263.266 204.814 262.875 204.814 262.482C204.814 262.167 204.814 261.851 204.751 261.552C204.457 260.166 205.207 259.299 205.979 258.405C206.092 258.275 206.207 258.143 206.317 258.009C207.212 256.93 208.313 256.129 209.529 255.521C210.225 255.172 211.07 255.027 211.86 254.975C212.368 254.942 212.884 254.965 213.399 254.987C214.143 255.02 214.883 255.052 215.594 254.917C216.389 254.764 216.638 255.141 216.901 255.564C217.146 255.959 217.297 256.471 217.311 256.937C217.346 258.167 217.305 259.402 217.239 260.631C217.235 260.728 217.129 260.817 217.02 260.906C216.914 260.995 216.806 261.085 216.789 261.186C216.407 263.541 214.964 265.314 213.334 266.826C212.385 267.707 210.965 268.171 209.677 268.551ZM226.595 286.061C226.583 286.052 226.47 286.183 226.404 286.248C226.2 286.071 226.001 285.899 225.806 285.729C225.007 285.034 224.284 284.406 223.528 283.823C223.337 283.675 223.104 283.579 222.872 283.483C222.619 283.378 222.367 283.274 222.171 283.104C221.506 282.529 220.863 281.93 220.22 281.331C219.675 280.824 219.13 280.316 218.572 279.823C217.43 278.815 216.258 277.841 215.075 276.882C214.827 276.681 214.58 276.476 214.334 276.271C213.496 275.572 212.654 274.872 211.729 274.317C210.852 273.79 209.917 273.359 208.983 272.929C208.417 272.669 207.851 272.408 207.298 272.126C206.686 271.814 206.11 271.428 205.537 271.043C205.45 270.986 205.364 270.928 205.277 270.871C205.263 270.861 205.452 270.372 205.577 270.357C206.027 270.302 206.484 270.222 206.941 270.141C208.121 269.932 209.306 269.723 210.394 269.955C211.934 270.283 213.49 270.837 214.949 271.841C217.354 273.497 219.479 275.391 221.499 277.445C223.717 279.704 225.906 281.992 228.095 284.28L228.896 285.117C229.866 286.129 230.807 287.169 231.747 288.209C231.833 288.303 231.892 288.546 231.835 288.622C231.644 288.873 231.314 289.307 231.182 289.261C230.746 289.107 230.351 288.82 229.967 288.541L229.897 288.49C229.319 288.07 228.744 287.645 228.17 287.22C227.645 286.832 227.122 286.444 226.595 286.061ZM478.084 354.242C477.835 354.252 477.571 354.29 477.307 354.327C476.726 354.409 476.145 354.492 475.711 354.279C475.685 354.266 475.613 354.23 475.498 354.172L475.469 354.157L475.464 354.155C471.11 351.958 412.418 322.348 352.546 304.13C300.646 288.338 246.135 283.866 243.803 283.675L243.736 283.669C243.487 283.648 299.131 282.269 353.365 298.533C415.713 317.23 477.825 353.929 478.084 354.242ZM283.57 250.695V250.693V250.691L283.572 250.676L283.573 250.664C283.638 250.062 283.704 249.453 283.778 248.837C283.737 248.671 283.699 248.509 283.66 248.349C283.484 247.614 283.325 246.949 283.076 246.32C283.052 246.261 283.029 246.202 283.007 246.143L282.974 246.058C282.592 245.071 282.21 244.083 280.929 243.775C280.647 243.708 280.406 243.491 280.161 243.271C279.96 243.089 279.756 242.906 279.525 242.801C278.847 242.495 278.11 242.284 277.377 242.155C277.007 242.09 276.627 242.08 276.246 242.071C275.872 242.062 275.497 242.052 275.132 241.99C274.477 241.878 273.826 241.737 273.175 241.596C272.173 241.38 271.172 241.164 270.159 241.052C269.769 241.01 269.38 240.973 268.99 240.936H268.989C267.901 240.833 266.817 240.73 265.732 240.5C264.728 240.288 263.684 240.258 262.642 240.229H262.641C262.308 240.219 261.976 240.21 261.645 240.194C261.493 240.187 261.337 240.237 261.181 240.287C261.009 240.343 260.838 240.398 260.676 240.374C259.527 240.2 258.383 239.991 257.238 239.782C256.946 239.729 256.654 239.675 256.363 239.623C255.853 239.531 255.347 239.538 254.835 239.546C254.263 239.555 253.684 239.564 253.085 239.434C252.056 239.212 250.985 239.204 249.905 239.196C249.178 239.19 248.448 239.184 247.724 239.113C246.23 238.967 244.719 239.001 243.207 239.036C242.588 239.051 241.97 239.065 241.353 239.067C240.441 239.07 239.308 240.12 239.243 241.013C239.224 241.266 239.238 241.543 239.252 241.819V241.821V241.822V241.823C239.282 242.408 239.311 242.99 239.038 243.335C238.348 244.208 238.442 245.148 238.537 246.091C238.614 246.865 238.692 247.64 238.337 248.385C237.985 249.123 238.03 250.01 238.074 250.896C238.096 251.328 238.118 251.761 238.093 252.176C238.052 252.874 237.989 253.572 237.927 254.27C237.804 255.638 237.681 257.008 237.72 258.382C237.726 258.569 237.775 258.756 237.823 258.943C237.885 259.179 237.946 259.413 237.918 259.637C237.799 260.597 237.655 261.553 237.51 262.509V262.511V262.512L237.509 262.513V262.515V262.516V262.517C237.388 263.318 237.266 264.12 237.16 264.923C237.083 265.501 237.087 266.078 237.091 266.66C237.095 267.404 237.1 268.154 236.936 268.915C236.747 269.798 236.743 270.711 236.739 271.634C236.736 272.329 236.733 273.029 236.65 273.725C236.544 274.62 236.561 275.522 236.579 276.428C236.603 277.651 236.627 278.88 236.347 280.102C236.174 280.858 236.128 281.642 236.081 282.427C236.052 282.93 236.023 283.434 235.959 283.932C235.936 284.116 235.819 284.321 235.71 284.512C235.581 284.74 235.463 284.947 235.531 285.069C235.748 285.457 236.26 285.754 236.711 285.92C237.938 286.374 239.591 285.778 239.661 284.906C239.692 284.516 239.737 284.124 239.781 283.731L239.782 283.73C239.899 282.704 240.017 281.675 239.891 280.678C239.774 279.75 239.985 278.889 240.195 278.033C240.373 277.308 240.55 276.586 240.525 275.83C240.518 275.598 240.799 275.156 240.961 275.149C243.056 275.06 245.154 275.008 247.251 274.996C247.999 274.991 248.746 275.013 249.494 275.035C250.316 275.058 251.137 275.081 251.958 275.071C252.819 275.06 253.681 275.023 254.543 274.987C255.933 274.928 257.324 274.869 258.712 274.917C259.583 274.948 260.448 275.124 261.314 275.3C261.917 275.423 262.522 275.546 263.129 275.62C263.505 275.666 263.884 275.675 264.262 275.683C264.878 275.697 265.496 275.711 266.115 275.885C266.479 275.987 266.873 275.974 267.269 275.962C267.636 275.95 268.005 275.939 268.35 276.018C268.915 276.149 269.465 276.348 270.014 276.548C270.486 276.719 270.958 276.89 271.441 277.018C271.993 277.164 272.563 277.241 273.133 277.317C273.42 277.355 273.707 277.394 273.992 277.441C274.245 277.484 274.51 277.558 274.775 277.633C275.348 277.794 275.918 277.955 276.362 277.783C277.237 277.446 278.095 276.688 278.605 275.885C279.123 275.069 279.334 274.029 279.534 273.046L279.564 272.9C279.625 272.6 279.592 272.265 279.56 271.937C279.518 271.506 279.477 271.086 279.649 270.771C280.169 269.815 280.306 268.795 280.442 267.779C280.509 267.279 280.576 266.78 280.688 266.29C280.742 266.055 280.714 265.78 280.687 265.514C280.651 265.161 280.617 264.823 280.775 264.613C281.482 263.675 281.583 262.605 281.684 261.535C281.748 260.86 281.812 260.185 282.028 259.542C282.324 258.655 282.494 257.7 282.665 256.745V256.743C282.739 256.329 282.813 255.915 282.897 255.507C283.22 253.941 283.392 252.344 283.57 250.695ZM278.446 267.35C278.257 268.323 278.068 269.291 277.636 270.195C277.614 270.4 277.6 270.587 277.586 270.761V270.763C277.551 271.23 277.523 271.594 277.369 271.893C277.129 272.357 277.098 272.895 277.067 273.432C277.015 274.309 276.964 275.182 276.005 275.723C275.964 275.747 275.922 275.771 275.879 275.797C275.573 275.974 275.221 276.177 274.95 276.117C274.674 276.057 274.415 275.912 274.157 275.767C273.886 275.615 273.616 275.464 273.327 275.41C272.817 275.315 272.296 275.274 271.776 275.234C271.179 275.188 270.583 275.141 270.004 275.012C269.511 274.902 269.038 274.704 268.564 274.506C268.082 274.304 267.601 274.102 267.099 273.994C266.459 273.855 265.8 273.807 265.141 273.759C264.629 273.722 264.115 273.684 263.61 273.604C259.281 272.917 254.935 273.02 250.589 273.123C247.985 273.185 245.381 273.247 242.78 273.139C241.88 273.102 241.123 273.052 241.057 271.902C241.033 271.489 240.959 271.056 240.885 270.624C240.733 269.736 240.581 268.851 240.874 268.15C241.492 266.67 241.419 265.209 241.346 263.754C241.315 263.143 241.285 262.533 241.305 261.924C241.501 256.184 241.552 250.438 241.597 244.694C241.598 244.61 241.598 244.527 241.598 244.444C241.6 243.504 241.602 242.632 242.294 241.849C242.693 241.399 243.045 241.231 243.661 241.276C244.385 241.328 245.111 241.338 245.838 241.348C246.662 241.36 247.486 241.371 248.304 241.444C249.125 241.516 249.941 241.645 250.757 241.773C251.616 241.908 252.474 242.042 253.338 242.112C253.893 242.157 254.467 242.117 255.039 242.076H255.04H255.042C255.929 242.014 256.81 241.952 257.591 242.212C259.172 242.738 260.767 242.777 262.359 242.815C263.185 242.834 264.009 242.854 264.83 242.942C265.467 243.01 266.138 242.959 266.802 242.909C267.802 242.833 268.788 242.759 269.627 243.091C271.006 243.638 272.384 243.648 273.743 243.659C274.281 243.663 274.817 243.667 275.348 243.704C277.588 243.862 279.533 244.501 280.774 246.141C281.495 247.093 282.19 248.67 281.282 250.151C281.203 250.281 281.223 250.469 281.245 250.661C281.256 250.768 281.269 250.877 281.263 250.977C281.236 251.453 281.242 251.941 281.247 252.43C281.259 253.55 281.271 254.671 280.895 255.641C280.533 256.572 280.36 257.528 280.188 258.482C280.043 259.281 279.899 260.079 279.644 260.858C279.466 261.403 279.469 262.015 279.473 262.623C279.477 263.31 279.482 263.992 279.223 264.562C278.815 265.46 278.631 266.408 278.446 267.35ZM238.373 273.372C238.335 273.334 238.298 273.297 238.27 273.266C238.787 273.318 239.371 273.423 239.495 273.72C239.629 274.044 239.609 274.433 239.59 274.821C239.581 274.985 239.573 275.151 239.576 275.311C239.537 275.311 239.493 275.316 239.449 275.322C239.352 275.334 239.255 275.346 239.213 275.304C239.152 275.244 239.11 275.154 239.069 275.067C239.016 274.955 238.966 274.848 238.883 274.818C237.92 274.473 237.894 274.411 238.523 273.549C238.534 273.534 238.453 273.453 238.373 273.372ZM344.478 378.842C344.813 379.013 345.144 379.183 345.477 379.347C345.726 379.472 345.988 379.577 346.249 379.681C346.68 379.853 347.108 380.025 347.478 380.283C347.937 380.599 348.322 381.025 348.704 381.45L348.762 381.514L348.805 381.562L348.857 381.618C348.886 381.651 348.915 381.683 348.945 381.715C348.97 381.742 348.995 381.77 349.02 381.797L349.067 381.846C349.123 381.908 349.084 382.187 349.039 382.201C348.93 382.234 348.815 382.278 348.699 382.322C348.38 382.444 348.051 382.57 347.808 382.48C347.406 382.329 346.993 382.208 346.58 382.087C345.352 381.727 344.125 381.367 343.21 380.241C342.467 379.325 341.439 378.566 340.398 377.996C339.929 377.742 339.072 378.116 338.879 378.895C338.392 380.858 333.055 388.644 325.065 388.644C317.075 388.644 304.505 387.821 301.163 383.81C296.468 378.173 298.277 367.408 298.451 366.372L298.46 366.315C298.516 365.963 298.257 365.519 298.036 365.19C297.969 365.089 297.492 365.148 297.291 365.273C296.675 365.663 296.076 366.077 295.477 366.492L295.47 366.496L295.442 366.515C295.352 366.578 295.261 366.641 295.171 366.703C295.029 366.801 294.887 366.899 294.744 366.996C294.601 367.093 294.459 367.191 294.317 367.29L294.234 367.347L294.119 367.428L293.926 367.563L293.918 367.568C293.172 368.091 292.426 368.614 291.633 369.048C291.39 369.182 290.989 369.051 290.614 368.929C290.503 368.894 290.393 368.858 290.292 368.83C290.079 368.771 289.879 368.668 289.678 368.564C289.587 368.518 289.497 368.471 289.404 368.428C289.568 368.282 289.728 368.13 289.887 367.978L289.888 367.977C290.241 367.64 290.594 367.302 290.994 367.035C291.536 366.675 292.105 366.353 292.674 366.031C293.088 365.797 293.503 365.562 293.907 365.312C294.954 364.665 295.986 363.989 297.005 363.3C297.129 363.216 297.254 363.133 297.38 363.051L297.382 363.05C297.903 362.708 298.431 362.361 298.838 361.912C300.566 360.002 302.509 358.383 304.525 356.772C305.462 356.026 306.489 355.513 307.51 355.003C308.227 354.646 308.941 354.29 309.62 353.855C310.097 353.55 310.7 353.449 311.306 353.348C311.639 353.293 311.974 353.236 312.289 353.145C312.898 352.971 313.501 352.778 314.104 352.585C314.552 352.442 315 352.298 315.449 352.162C315.577 352.125 315.72 352.129 315.859 352.134C315.906 352.136 315.952 352.137 315.997 352.137C316.553 352.137 317.11 352.123 317.668 352.108C318.978 352.073 320.287 352.038 321.572 352.196C322.377 352.296 323.147 352.673 323.917 353.05H323.918C324.264 353.22 324.609 353.389 324.959 353.533C324.94 353.564 324.924 353.602 324.907 353.64C324.875 353.715 324.843 353.789 324.794 353.805C322.94 354.318 321.131 354.622 319.233 353.749C318.646 353.479 317.863 353.577 317.129 353.669C316.983 353.687 316.838 353.705 316.697 353.72C316.014 353.793 315.339 353.961 314.668 354.128C314.517 354.166 314.366 354.203 314.215 354.24C314.127 354.261 314.038 354.282 313.948 354.302C313.897 354.313 313.845 354.325 313.794 354.336C313.274 354.452 312.751 354.568 312.281 354.79C310.584 355.588 308.902 356.434 307.25 357.328C306.702 357.623 306.179 357.961 305.655 358.299L305.654 358.3L305.652 358.301C305.178 358.607 304.704 358.913 304.212 359.187C303.941 359.339 303.648 359.456 303.356 359.574C302.598 359.88 301.842 360.184 301.473 361.069C301.444 361.137 301.357 361.181 301.272 361.226C301.253 361.235 301.234 361.245 301.216 361.255C301.198 361.265 301.18 361.276 301.163 361.287C301.357 361.292 301.554 361.311 301.751 361.33C302.193 361.372 302.634 361.415 303.034 361.301C303.709 361.111 304.35 360.804 304.992 360.497C305.069 360.46 305.146 360.422 305.223 360.386L305.294 360.352C305.412 360.296 305.531 360.241 305.65 360.186C305.968 360.043 306.283 359.886 306.596 359.73C307.206 359.428 307.815 359.125 308.453 358.908C308.831 358.779 309.242 358.754 309.655 358.729C309.949 358.711 310.244 358.693 310.53 358.637C311.063 358.535 311.589 358.394 312.115 358.252H312.116C312.382 358.18 312.648 358.109 312.914 358.042C313.043 358.012 313.182 358.003 313.317 358.003C313.886 358.002 314.463 358.031 315.04 358.06C316.42 358.129 317.8 358.197 319.074 357.861C319.588 357.726 320.05 357.77 320.502 357.813C320.872 357.849 321.237 357.883 321.62 357.819C322.355 357.697 323.189 358.039 323.984 358.364L324.124 358.421C324.178 358.443 324.231 358.465 324.284 358.486C324.334 358.506 324.384 358.526 324.434 358.545C324.467 358.558 324.501 358.571 324.534 358.584C325.405 358.913 326.321 359.268 327.039 359.835C327.881 360.504 328.651 361.262 329.421 362.019C329.746 362.339 330.072 362.66 330.403 362.973C330.341 363.037 330.271 363.123 330.2 363.209C330.049 363.393 329.897 363.578 329.83 363.551C329.51 363.423 309.632 360.941 301.867 365.19C299.05 366.731 301.642 377.924 301.859 378.86L301.867 378.895C303.034 383.96 321.231 386.879 328.155 385.722C336.489 384.328 336.989 375.616 337.151 372.79C337.18 372.295 337.198 371.98 337.246 371.918C337.693 371.346 338.405 371.039 339.038 371.569C339.34 371.82 339.541 372.309 339.591 372.711C339.638 373.092 339.757 373.455 339.873 373.807C339.965 374.088 340.056 374.361 340.105 374.632C340.259 375.487 340.811 376.024 341.367 376.566C341.756 376.945 342.148 377.328 342.408 377.823C343.146 378.161 343.82 378.506 344.478 378.842ZM140.171 325.662C139.91 325.604 139.649 325.546 139.475 325.642C138.868 325.981 113.054 337.531 95.0302 327.65C94.8096 327.528 94.4918 327.364 94.112 327.168C91.8559 326.002 87.3856 323.691 87.6534 322.381C88.3827 318.815 98.583 313.916 99.9094 313.279C99.9958 313.238 100.044 313.214 100.05 313.21C99.993 313.12 99.9411 313.012 99.8885 312.904C99.7731 312.665 99.6577 312.427 99.4864 312.377C98.9939 312.23 98.4184 312.211 97.9097 312.309C97.3153 312.421 90.8466 313.863 89.7132 314.582C88.5217 315.337 85.2617 319.31 85.3211 320.591C85.3474 321.139 85.1646 321.695 84.981 322.255C84.8852 322.547 84.7888 322.841 84.7213 323.135C84.6822 323.307 84.6747 323.495 84.6673 323.68C84.6552 323.975 84.643 324.265 84.5061 324.481C84.357 324.716 84.1809 325.095 83.967 325.553C83.548 326.453 82.984 327.662 82.1967 328.707C81.6064 329.49 80.8035 330.149 80.1936 330.65C79.8293 330.949 79.5331 331.192 79.3921 331.371C79.3078 331.479 79.1965 331.587 79.0818 331.697C78.7667 332.002 78.4327 332.325 78.5947 332.711C78.8132 333.233 79.5837 332.978 79.9973 332.84L80.0061 332.837C80.6092 332.639 81.1827 332.254 81.6752 331.837C82.3654 331.254 83.0157 330.609 83.5973 329.919C84.1937 329.21 84.7753 328.462 85.2017 327.65C85.6719 326.748 86.7122 326.375 87.6534 327.022C114.12 345.221 139.093 327.873 140.26 326.838C140.42 326.696 140.448 326.406 140.476 326.116C140.489 325.982 140.503 325.848 140.528 325.729C140.415 325.718 140.293 325.69 140.171 325.662ZM259.698 223.361C259.177 223.883 258.657 224.397 258.141 224.906C256.844 226.187 255.572 227.442 254.371 228.761C253.949 229.225 253.685 229.835 253.422 230.443C253.308 230.706 253.194 230.969 253.068 231.219C252.388 232.568 251.384 233.074 249.619 233.841C248.598 234.283 247.529 234.706 246.585 234.522C245.923 234.391 245.257 234.401 244.601 234.412C243.874 234.422 243.159 234.433 242.472 234.253C241.636 234.034 240.72 233.315 240.299 232.564C239.934 231.913 240.343 231.068 241.07 230.368C241.873 229.596 242.564 228.71 243.257 227.823C243.657 227.311 244.057 226.798 244.478 226.306C244.93 225.781 245.376 225.252 245.824 224.723L245.827 224.72C247.308 222.969 248.789 221.216 250.41 219.603C251.749 218.271 253.416 217.412 255.38 216.859C257.166 216.357 258.532 216.481 260.129 217.164C260.725 217.419 261.412 217.455 262.101 217.492C262.437 217.509 262.775 217.527 263.101 217.57C264.143 217.707 264.759 218.689 264.089 219.167C263.497 219.589 262.39 220.004 261.895 219.73C259.175 218.222 256.463 218.578 253.8 219.59C253.09 219.86 252.501 220.478 251.925 221.084C251.74 221.278 251.556 221.471 251.371 221.65C249.945 223.029 248.524 224.414 247.172 225.863C246.649 226.424 246.2 227.056 245.753 227.687C245.587 227.921 245.421 228.154 245.251 228.384C245.139 228.537 245.026 228.689 244.913 228.842C244.343 229.612 243.772 230.382 243.241 231.179C242.846 231.771 242.898 231.883 243.516 232.08C245.057 232.571 246.561 232.475 248.093 231.917C249.964 231.237 251.041 229.81 252.158 228.328L252.161 228.325C252.296 228.145 252.433 227.964 252.572 227.784C253.483 226.597 254.589 225.559 255.695 224.522C256.177 224.07 256.659 223.616 257.126 223.151C257.207 223.07 257.291 222.991 257.375 222.911C257.525 222.77 257.674 222.629 257.811 222.476C258.489 221.714 259.173 220.982 260.326 221.043C260.38 221.046 260.431 220.98 260.487 220.909C260.531 220.856 260.576 220.799 260.625 220.767C260.698 220.721 260.786 220.696 260.874 220.672C260.913 220.661 260.951 220.651 260.989 220.638C260.983 220.677 260.98 220.717 260.977 220.757C260.971 220.845 260.965 220.933 260.929 221.005C260.549 221.771 260.156 222.529 259.698 223.361ZM269.958 212.516C271.879 210.699 273.813 208.87 275.123 206.399C274.807 206.294 274.489 206.27 274.173 206.246C274.024 206.235 273.876 206.224 273.729 206.204C273.483 206.171 273.235 206.109 272.989 206.047C272.557 205.939 272.129 205.831 271.719 205.884C270.958 205.981 270.173 206.293 269.513 206.698C268.546 207.293 267.516 207.766 266.485 208.239C264.963 208.938 263.436 209.639 262.098 210.736C261.73 211.036 261.549 211.373 261.377 211.694C261.238 211.953 261.105 212.201 260.884 212.413C260.994 212.434 261.104 212.455 261.214 212.474C261.458 212.518 261.703 212.563 261.942 212.627C262.511 212.778 263.08 212.936 263.647 213.093C264.131 213.228 264.614 213.362 265.097 213.492C265.228 213.527 265.358 213.565 265.488 213.602C265.906 213.722 266.323 213.842 266.749 213.888C266.864 213.9 266.989 213.917 267.117 213.935C267.675 214.012 268.312 214.1 268.571 213.846C269.026 213.397 269.492 212.956 269.958 212.516ZM270.039 208.473C270.06 208.481 270.079 208.488 270.097 208.494C270.411 208.261 270.867 208.2 271.003 208.38C271.183 208.62 271.273 209.243 271.126 209.363C270.173 210.137 269.181 210.878 268.126 211.502C267.721 211.741 267.116 211.704 266.61 211.671C266.453 211.66 266.15 211.173 266.211 211.029C266.234 210.972 266.259 210.912 266.285 210.848L266.287 210.843C266.494 210.337 266.761 209.682 267.073 209.642C268.038 209.517 268.756 209.033 269.495 208.536C269.566 208.488 269.639 208.439 269.712 208.39C269.761 208.357 269.862 208.4 269.963 208.442L269.999 208.457C270.012 208.463 270.026 208.469 270.039 208.473ZM314.698 301.115C311.707 300.76 308.75 300.76 305.801 300.76H305.799C304.891 300.76 303.983 300.76 303.076 300.749C302.517 300.743 301.881 300.629 301.432 300.335C301.163 300.163 301.06 299.511 301.135 299.126C301.185 298.88 301.702 298.555 302.004 298.561C302.585 298.572 303.565 298.526 304.746 298.47C307.554 298.337 311.496 298.151 313.887 298.561C319.378 299.502 322.223 303.007 322.058 302.992C321.804 302.969 321.546 302.958 321.287 302.947C320.629 302.919 319.969 302.89 319.378 302.675C318.923 302.51 318.48 302.311 318.036 302.112C316.992 301.643 315.938 301.17 314.698 301.115ZM283.402 202.189C284.465 201.766 284.508 201.137 283.499 200.537C283.211 200.616 282.956 200.706 282.716 200.791C282.438 200.889 282.18 200.98 281.915 201.039C281.341 201.167 280.763 201.281 280.186 201.396C279.309 201.57 278.432 201.744 277.567 201.964C277.259 202.042 276.812 202.553 276.85 202.801C276.916 203.235 277.206 203.644 277.48 204.029C277.509 204.07 277.538 204.11 277.566 204.15C277.617 204.222 277.985 204.114 278.182 204.03C278.431 203.924 278.676 203.807 278.92 203.689C279.315 203.499 279.71 203.309 280.122 203.171C280.581 203.017 281.05 202.893 281.519 202.769C282.156 202.6 282.793 202.431 283.402 202.189ZM286.57 198.861C286.586 197.971 286.591 197.97 287.876 197.752L288.009 197.729C288.28 197.682 288.54 197.569 288.801 197.456C289.015 197.363 289.23 197.269 289.453 197.212C289.566 197.183 289.92 197.527 289.893 197.62C289.877 197.677 289.859 197.739 289.841 197.803C289.723 198.225 289.574 198.759 289.348 198.807C289.096 198.859 288.844 198.987 288.592 199.114C287.942 199.444 287.282 199.778 286.57 198.861ZM294.01 195.471C294.114 195.46 294.218 195.448 294.317 195.441C295.092 195.301 295.113 194.817 295.134 194.35C295.142 194.143 295.151 193.94 295.225 193.77C295.111 193.791 294.995 193.806 294.88 193.822C294.619 193.858 294.357 193.894 294.117 193.985C294.066 194.004 294.012 194.024 293.956 194.045C293.575 194.184 293.108 194.355 293.035 194.609C292.744 195.614 293.384 195.542 294.01 195.471ZM302.858 192.142L302.811 192.163C302.58 192.269 302.381 192.36 302.208 192.323C301.963 192.272 301.73 192.159 301.496 192.047C301.398 191.999 301.299 191.952 301.2 191.909C301.257 191.892 301.314 191.875 301.371 191.858C301.448 191.834 301.525 191.81 301.602 191.786L301.604 191.785H301.606C301.915 191.689 302.226 191.592 302.543 191.528C303.009 191.435 303.118 191.567 302.973 192.091C302.933 192.108 302.895 192.125 302.858 192.142ZM349.193 154.543C349.255 154.793 349.318 155.048 349.388 155.308C349.463 155.561 349.547 155.769 349.624 155.961C349.688 156.12 349.747 156.267 349.793 156.419C350.346 158.248 350.572 160.114 350.53 162.03C350.52 162.448 350.621 162.867 350.721 163.287C350.798 163.607 350.875 163.927 350.904 164.25C350.94 164.648 350.931 165.061 350.923 165.471C350.908 166.202 350.892 166.927 351.13 167.564C351.503 168.565 351.415 169.53 351.329 170.469V170.47C351.313 170.648 351.297 170.826 351.283 171.002C351.169 172.524 350.583 173.842 348.975 174.693C348.514 174.937 348.054 175.004 347.6 175.069C347.196 175.128 346.797 175.186 346.406 175.367C345.874 175.615 345.296 175.701 344.71 175.787C343.965 175.897 343.204 176.009 342.503 176.46C342.091 176.725 341.542 176.772 340.991 176.819C340.459 176.865 339.925 176.912 339.511 177.153C338.569 177.698 337.91 177.646 337.146 177.082C336.796 176.823 336.452 176.556 336.107 176.288C335.79 176.041 335.472 175.795 335.149 175.555C334.772 175.274 334.384 175.005 333.982 174.762C333.555 174.503 333.037 174.364 332.549 174.233C332.09 174.109 331.657 173.992 331.355 173.791C330.52 173.235 329.847 173.446 329.191 173.652C328.882 173.749 328.576 173.845 328.259 173.859C328.003 173.87 327.764 174.258 327.524 174.644C327.416 174.82 327.308 174.995 327.198 175.135C327.367 175.222 327.545 175.339 327.722 175.457C328.114 175.716 328.506 175.976 328.812 175.898C328.903 175.875 328.993 175.851 329.082 175.827C329.77 175.641 330.368 175.479 331.079 175.946C331.399 176.157 331.765 176.296 332.133 176.435C332.461 176.56 332.789 176.684 333.086 176.86L333.194 176.925C333.26 176.964 333.327 177.003 333.393 177.042C334.207 177.52 335.04 178.01 335.677 178.672C336.668 179.699 337.738 180.077 339.161 179.65C340.156 179.352 341.161 179.088 342.167 178.824C342.942 178.619 343.718 178.416 344.488 178.196C344.902 178.078 345.318 177.971 345.734 177.863C347.506 177.404 349.269 176.948 350.798 175.72C353.137 173.838 353.213 171.287 352.928 168.789C352.877 168.344 352.817 167.898 352.758 167.451C352.626 166.466 352.494 165.478 352.448 164.476C352.412 163.68 352.433 162.879 352.454 162.079V162.077C352.507 160.093 352.559 158.109 351.742 156.18C351.503 155.615 351.368 155.007 351.234 154.397C351.104 153.811 350.974 153.224 350.75 152.675C350.346 151.675 349.712 150.749 349.078 149.864L349.001 149.757C348.579 149.167 348.044 148.419 347.49 148.352C347.009 148.293 346.486 148.583 345.962 148.872C345.735 148.998 345.508 149.124 345.284 149.221C345.4 149.298 345.518 149.375 345.634 149.451L345.636 149.452C345.914 149.634 346.192 149.816 346.465 150.006C346.613 150.111 346.755 150.236 346.872 150.375C347.033 150.565 347.205 150.749 347.376 150.933C347.795 151.382 348.214 151.834 348.481 152.36C348.816 153.018 348.998 153.753 349.193 154.543ZM326.157 181.365L326.145 181.342C326.051 181.302 325.956 181.293 325.89 181.288C325.844 181.284 325.812 181.281 325.807 181.269C325.707 180.989 325.621 180.703 325.535 180.418C325.513 180.346 325.492 180.275 325.47 180.204C325.431 180.332 325.379 180.462 325.328 180.591C325.214 180.878 325.1 181.166 325.121 181.442C325.263 183.343 325.436 185.182 326.369 186.987C326.788 187.8 326.95 188.739 327.112 189.683C327.249 190.48 327.387 191.28 327.681 192.011C327.719 192.105 327.757 192.2 327.795 192.295C328.33 193.627 328.861 194.948 329.121 196.354C329.219 196.881 329.104 197.501 328.92 198.017C328.705 198.621 328.27 199.104 327.834 199.589C327.176 200.322 326.515 201.057 326.6 202.213C326.608 202.317 326.51 202.429 326.413 202.541C326.388 202.57 326.362 202.6 326.338 202.629C326.319 202.652 326.301 202.676 326.285 202.7C326.353 202.674 326.423 202.652 326.493 202.631C326.655 202.58 326.818 202.53 326.947 202.434C327.025 202.378 327.072 202.281 327.12 202.183C327.165 202.09 327.209 201.997 327.282 201.94C327.489 201.776 327.697 201.617 327.904 201.459C329.14 200.516 330.328 199.611 330.884 197.84C331.369 196.292 331.201 195.086 330.663 193.805C330.357 193.083 329.986 192.377 329.615 191.673C328.951 190.413 328.289 189.159 328.019 187.82C327.661 186.046 327.245 184.311 326.704 182.595C326.577 182.196 326.386 181.819 326.157 181.365ZM364.795 239.54H364.794C364.51 239.474 364.232 239.409 363.954 239.347C363.776 239.307 363.599 239.267 363.423 239.227C362.699 239.061 361.974 238.896 361.24 238.787C360.843 238.727 360.439 238.715 360.034 238.704C359.736 238.694 359.437 238.686 359.14 238.658C358.693 238.616 358.222 238.57 357.82 238.396C357.461 238.242 357.13 238.023 356.8 237.805C356.75 237.772 356.7 237.739 356.65 237.707C356.611 237.68 356.572 237.655 356.532 237.63C356.479 237.595 356.425 237.561 356.37 237.528C356.456 237.524 356.541 237.521 356.627 237.518C356.729 237.515 356.831 237.512 356.932 237.51C357.37 237.498 357.807 237.487 358.239 237.437C358.451 237.412 358.662 237.349 358.872 237.287C359.15 237.205 359.427 237.122 359.704 237.129L359.999 237.137C361.878 237.182 363.761 237.228 365.629 237.416C366.841 237.537 368.042 237.796 369.239 238.053C369.523 238.115 369.806 238.176 370.09 238.235C371.142 238.453 372.184 238.717 373.226 238.979L373.577 239.068C374.504 239.301 375.425 239.55 376.347 239.799L376.351 239.801L376.738 239.905C376.871 239.941 376.999 239.992 377.127 240.043C377.187 240.067 377.247 240.091 377.307 240.113C377.26 240.179 377.212 240.262 377.165 240.345C377.061 240.528 376.956 240.713 376.852 240.712C376.355 240.709 375.859 240.799 375.361 240.889C374.323 241.077 373.282 241.265 372.228 240.61C372.041 240.494 371.824 240.517 371.577 240.544C371.262 240.579 370.897 240.618 370.478 240.382C369.734 239.963 368.76 239.955 367.738 239.946C367.302 239.942 366.857 239.938 366.419 239.903C365.833 239.783 365.304 239.66 364.795 239.54ZM146.106 287.216C161.876 285.234 175.025 283.582 174.992 283.154C174.99 283.128 175.012 283.057 175.044 282.954C175.247 282.287 175.864 280.268 173.144 280.234C161.471 280.086 127.58 284.062 95.7319 290.889C50.5439 300.154 24.5101 313.067 24.8191 313.945C24.9597 314.345 36.1958 311.05 49.9859 307.005C66.5338 302.151 86.7595 296.219 95.9032 294.298L96.9213 294.087C105.641 292.301 127.665 289.533 146.106 287.216ZM107.63 315.17C110.497 315.17 114.635 315.481 119.929 317.276L121.258 317.731C122.27 318.08 124.151 318.596 126.876 319.27C127.509 319.426 127.896 320.066 127.739 320.699C127.583 321.332 119.509 319.627 119.509 319.627C114.051 317.767 111.873 317.258 109.322 317.371C106.838 317.48 101.591 319.407 97.6061 320.871L97.6047 320.871C94.7914 321.904 92.6075 322.707 92.4705 322.474C92.1379 321.914 92.5312 321.201 92.8848 320.857C96.4612 317.371 98.4427 316.386 107.63 315.17ZM302.436 294.873C302.629 294.704 302.776 294.478 302.848 294.211C303.043 293.492 297.475 292.412 293.726 293.813C292.965 294.097 292.291 294.539 291.553 295.184C291.429 295.292 291.155 295.669 290.816 296.137C290.259 296.903 289.527 297.911 288.994 298.369C288.137 299.106 286.681 299.891 285.684 300.394C285.279 300.598 283.743 300.938 282.012 301.321C279.238 301.935 275.963 302.66 276.037 303.113C276.158 303.848 277.512 303.737 278.247 303.616C279.525 303.407 280.628 303.246 281.588 303.107L281.59 303.107H281.591C284.048 302.75 285.566 302.529 286.676 301.97C287.882 301.363 288.925 300.646 289.94 299.772C290.101 299.634 290.329 299.425 290.585 299.185L291.4 298.41C291.273 299.447 291.62 300.444 292.497 301.152L292.83 301.417C303.284 309.683 314.592 310.935 326.525 305.16L326.711 305.069L326.798 305.543C327.108 307.118 327.551 308.43 328.137 309.482C329.005 311.041 330.486 312.571 332.571 314.1L334.168 311.925L333.902 311.728C332.25 310.48 331.117 309.287 330.495 308.169C329.836 306.986 329.372 305.211 329.132 302.857L328.927 300.84L327.145 301.808L326.791 301.998C315.115 308.21 304.337 307.232 294.191 299.051C294.132 299.003 294.07 298.189 294.191 297.838C294.403 297.218 294.887 295.982 296.131 295.555C296.942 295.276 302.436 294.873 302.436 294.873ZM386.859 223.867L386.297 222.852C385.875 222.096 385.328 221.125 385.057 220.679L384.969 220.538C383.867 218.832 383.666 216.669 383.949 213.168L384.066 211.874L384.174 210.747C384.492 207.279 384.412 205.956 383.777 205.273L383.68 205.175C383.048 204.564 382.309 204.572 379.642 205.165L378.991 205.312C375.91 206.018 373.873 206.19 371.517 205.63L369.481 205.124C368.962 204.997 368.448 204.871 368.078 204.781L368.075 204.78L368.065 204.778C367.789 204.711 367.596 204.663 367.548 204.651L366.996 204.51C362.139 203.238 360.095 201.872 359.331 198.561C359.148 197.77 359.223 196.953 359.51 195.935L359.575 195.713C359.761 195.099 360.665 192.661 360.665 192.661C360.869 192.083 361.04 191.555 361.193 191.025L361.388 190.336C361.553 189.748 361.723 189.123 361.899 188.453L363.743 181.236C364.074 179.964 364.356 178.908 364.471 178.552L364.995 177.014L365.215 176.39C365.359 175.992 365.497 175.624 365.64 175.267C366.793 172.38 368.016 170.598 369.74 170.105C371.328 169.652 372.498 169.714 373.778 170.224C374.045 170.33 374.738 170.661 375.263 170.912C375.546 171.046 375.78 171.158 375.873 171.199C377.156 171.767 378.47 172.127 380.251 172.306L380.59 172.338C381.449 172.41 382.156 172.316 384.251 171.858L385.755 171.525C387.353 171.178 388.4 171.006 389.547 170.935C390.586 170.87 391.554 170.916 392.475 171.09C393.993 171.377 396.319 172.321 399.513 173.93C400.013 174.181 400.214 174.79 399.962 175.289C399.711 175.788 399.103 175.989 398.603 175.738L398.008 175.44C395.28 174.094 393.294 173.304 392.099 173.079C391.355 172.938 390.553 172.9 389.672 172.956C388.587 173.023 387.565 173.197 385.894 173.567L384.636 173.846C382.404 174.334 381.599 174.443 380.528 174.363L380.42 174.354C378.234 174.169 376.618 173.741 375.055 173.051L373.307 172.227C373.187 172.172 373.089 172.128 373.028 172.104C372.163 171.759 371.452 171.722 370.296 172.051C369.402 172.306 368.444 173.702 367.52 176.017C367.353 176.437 367.189 176.875 367.014 177.371L366.402 179.161C366.128 179.955 364.141 187.866 364.074 188.138L363.749 189.374C363.537 190.167 363.335 190.9 363.138 191.584C363.007 192.042 362.863 192.495 362.7 192.972L362.574 193.335C362.41 193.799 362.264 194.21 362.135 194.576C361.223 197.15 361.112 197.463 361.183 197.728C361.192 197.764 361.206 197.8 361.221 197.841C361.243 197.9 361.269 197.97 361.294 198.07L361.303 198.106C361.859 200.512 363.399 201.505 367.783 202.623L371.761 203.605C373.762 204.122 375.501 204.014 378.221 203.411L379.945 203.02C381.093 202.766 381.384 202.733 382.045 202.707C383.37 202.654 384.432 203.004 385.26 203.896C386.471 205.199 386.583 206.684 386.193 210.898L385.992 213.021L385.944 213.616C385.738 216.415 385.901 218.15 386.596 219.321L386.813 219.673C387.021 220.018 387.334 220.566 387.643 221.113L388.628 222.884L388.759 223.112C390.075 225.378 391.161 226.647 392.315 227.087L392.439 227.131C393.914 227.614 395.739 226.654 398.093 223.596L398.398 223.199C398.755 222.758 399.118 222.481 400.793 221.444L403.378 219.855L403.689 219.659C405.304 218.635 406.254 217.873 406.465 217.443C408.938 212.396 410.514 204.518 410.038 195.562C409.979 194.439 409.381 192.719 408.235 190.452L408.098 190.184L408.035 190.149C405.329 188.61 403.36 187.149 402.12 185.74L401.975 185.571C400.706 184.06 399.428 181.595 398.113 178.152C397.914 177.63 398.175 177.045 398.697 176.846C399.219 176.646 399.804 176.908 400.004 177.43C401.246 180.679 402.43 182.966 403.525 184.269C404.533 185.469 406.276 186.795 408.744 188.223L409.351 188.567L409.614 188.714L409.753 188.981C411.203 191.748 411.976 193.885 412.059 195.454C412.553 204.752 410.908 212.974 408.283 218.333C407.837 219.242 406.744 220.119 404.773 221.368L404.282 221.677L402.19 222.961C400.452 224.035 400.103 224.294 399.866 224.608C396.974 228.442 394.322 229.878 391.808 229.053C389.924 228.436 388.528 226.796 386.859 223.867ZM417.462 163.165C416.954 162.931 416.353 163.152 416.119 163.659C415.613 164.756 414.823 165.444 413.691 165.778C412.881 166.017 411.972 166.156 410.861 166.228C410.473 166.253 410.139 166.268 409.642 166.282L407.933 166.326C405.195 166.415 404.001 166.647 402.805 167.508C401.22 168.651 400.554 172.303 401.11 174.406L401.14 174.521C401.16 174.6 401.181 174.685 401.201 174.778L401.27 175.083C401.274 175.103 401.289 175.176 401.311 175.276C401.358 175.501 401.434 175.863 401.485 176.095L401.58 176.521C401.665 176.888 401.75 177.216 401.844 177.535C402.219 178.811 402.715 179.845 403.445 180.696C403.547 180.813 403.829 181.323 404.139 181.908L405.201 183.938C406.061 185.452 406.954 186.553 408.084 187.289C408.56 187.599 408.996 187.727 409.813 187.874L410.176 187.941C410.839 188.065 411.153 188.143 411.547 188.297L411.854 188.422C412.162 188.54 412.525 188.627 413.051 188.718L413.426 188.78C413.426 188.78 414.318 188.915 414.821 188.996L415.365 189.089C415.885 189.183 416.346 189.284 416.785 189.403C417.213 189.519 417.61 189.649 417.978 189.798L418.212 189.89C418.586 190.03 418.897 190.118 419.446 190.247L419.956 190.365C420.189 190.419 420.355 190.462 420.503 190.509L420.676 190.567C421.329 190.8 421.881 191.21 422.573 192.067C423.49 193.203 423.49 193.735 422.785 194.223C422.325 194.541 422.21 195.172 422.528 195.631C422.846 196.091 423.476 196.206 423.936 195.887C425.735 194.644 425.735 192.76 424.148 190.796C423.23 189.66 422.375 189.026 421.36 188.662C421.157 188.589 420.97 188.532 420.738 188.472L420.433 188.398L419.802 188.251C419.408 188.156 419.177 188.09 418.916 187.991L418.464 187.816C418.098 187.679 417.715 187.558 417.314 187.449C416.717 187.288 416.098 187.159 415.385 187.037L413.445 186.732C412.984 186.653 412.702 186.585 412.54 186.516C411.912 186.252 411.529 186.14 410.741 185.988L410.038 185.858C409.569 185.769 409.355 185.701 409.189 185.593C408.383 185.068 404.061 177.903 403.785 176.964C403.683 176.614 403.59 176.245 403.491 175.799L403.209 174.479C403.184 174.366 403.16 174.263 403.137 174.165L403.067 173.888C402.702 172.509 403.212 169.71 403.988 169.151C404.772 168.586 405.789 168.412 408.287 168.341L409.714 168.306C410.228 168.291 410.579 168.275 410.993 168.248L411.361 168.221C412.45 168.133 413.388 167.978 414.265 167.719C415.958 167.219 417.208 166.131 417.957 164.507C418.191 164 417.97 163.399 417.462 163.165Z" fill="#00160A"/>
<path fill-rule="evenodd" clip-rule="evenodd" d="M181.035 268.38C181.408 267.65 181.725 267.014 182.167 266.483C182.615 265.945 183.181 265.503 183.715 265.041C183.768 264.996 184.062 265.11 184.06 265.14C184.052 265.301 184.033 265.511 183.93 265.61C183.137 266.364 183.071 267.366 182.829 268.352C182.562 269.432 182.832 270.279 183.324 271.18C183.653 271.781 183.892 272.441 184.098 273.096C184.53 274.48 184.958 275.867 185.303 277.274C185.537 278.222 185.752 279.204 185.761 280.173C185.807 285.058 185.78 289.944 185.782 294.829C185.784 297.326 185.748 299.823 185.821 302.316C185.846 303.13 186.286 303.933 186.3 304.745C186.311 305.401 185.982 306.068 185.765 306.717C185.734 306.81 185.4 306.917 185.352 306.87C185.008 306.532 184.434 306.16 184.428 305.791C184.384 302.921 184.494 300.049 184.465 297.178C184.452 295.883 184.154 294.592 184.122 293.296C184.046 290.276 184.386 287.202 183.921 284.251C183.557 281.945 183.646 279.749 183.681 277.481C183.689 276.972 182.269 276.337 181.422 275.944C180.321 275.433 179.621 276.116 179.099 277.032C179.052 277.115 178.854 277.156 178.854 277.216C178.828 282.55 178.794 287.884 178.816 293.218C178.822 294.762 178.999 296.304 179.075 297.848C179.104 298.427 179.042 298.727 179.931 298.592C181.432 298.363 183.404 300.582 182.969 301.849C182.634 302.824 182.028 303.706 181.692 304.681C180.933 306.882 179.275 309.01 180.006 311.401C180.562 313.217 181.765 314.913 182.992 316.407C183.481 317.002 184.819 316.875 185.755 317.138C186.07 317.228 186.438 317.448 186.582 317.716C186.674 317.892 186.472 318.35 186.269 318.506C186.147 318.601 185.767 318.356 185.502 318.269C185.066 318.126 184.637 317.917 184.19 317.864C182.086 317.621 181.97 317.493 181.014 315.15C180.671 314.31 180.029 313.596 179.664 312.762C179.321 311.975 179.127 311.116 178.936 310.272C178.752 309.46 178.508 308.618 178.561 307.806C178.624 306.85 178.903 305.885 179.23 304.976C179.522 304.165 180.023 303.429 180.388 302.641C180.429 302.549 180.214 302.286 180.062 302.178C179.981 302.12 179.756 302.182 179.643 302.259C178.555 303.002 178.036 304.2 177.348 305.25C177.121 305.596 177.19 306.136 177.127 306.588C177.032 307.263 176.852 307.941 176.866 308.613C176.896 309.858 176.757 311.213 177.196 312.319C178.109 314.62 178.994 317.049 180.858 318.76C181.543 319.391 182.683 319.693 183.826 319.847C185.332 320.048 186.759 319.612 188.236 319.779C188.911 319.857 189.645 319.268 190.351 319.271C191.212 319.274 191.886 318.802 192.648 318.68C193.519 318.537 194.237 318.163 194.996 317.802C196.234 317.216 197.578 316.798 198.708 316.052C199.713 315.388 200.48 314.368 201.368 313.522C202.739 312.217 203.895 310.774 204.816 309.093C205.221 308.354 205.864 307.791 205.599 306.854C205.557 306.708 205.453 306.475 205.366 306.469C205.17 306.456 204.904 306.498 204.776 306.627C201.872 309.557 199.039 312.564 196.052 315.407C195.246 316.172 193.987 316.471 192.921 316.954C192.326 317.222 191.692 317.395 191.095 317.657C189.796 318.227 188.765 317.434 187.658 317.021C187.71 316.906 187.739 316.714 187.816 316.691C189.62 316.212 191.449 315.812 193.229 315.257C194.052 315 194.821 314.503 195.542 314.009C196.242 313.531 196.82 312.881 197.501 312.372C200.045 310.468 202.128 308.228 203.125 305.117C203.394 304.275 205.206 303.74 206.248 304.051C206.876 304.239 207.594 304.223 208.145 304.526C208.499 304.721 208.879 305.379 208.809 305.747C208.439 307.709 207.208 309.164 205.835 310.561C204.923 311.488 204.36 312.771 203.411 313.648C201.805 315.134 200.128 316.602 198.276 317.747C196.403 318.905 194.326 319.768 192.258 320.553C190.777 321.114 189.183 321.53 187.611 321.661C184.926 321.888 182.284 321.672 179.903 320.078C178.411 319.079 177.406 317.694 176.63 316.197C176.194 315.359 176.612 314.098 176.231 313.204C175.475 311.43 175.336 309.611 175.495 307.783C175.603 306.535 176.376 305.324 176.38 304.096C176.385 302.716 177.4 302.038 177.843 300.996C177.932 300.787 177.694 300.459 177.693 300.186C177.681 297.068 177.687 293.95 177.684 290.833C177.683 289.264 177.781 287.683 177.629 286.129C177.54 285.225 176.98 284.377 176.757 283.473C176.645 283.013 176.837 282.485 176.842 281.987C176.858 280.576 176.719 279.149 176.88 277.756C177.082 276.002 177.57 274.284 177.835 272.535C177.982 271.557 177.93 270.55 177.964 269.556C178.032 267.601 178.432 265.671 179.794 264.264C180.856 263.167 182.128 262.13 183.892 262.126C184.325 262.125 184.917 261.342 185.157 261.464C185.705 261.743 186.236 262.3 186.451 262.867C186.547 263.119 185.933 263.774 185.515 264.058C184.77 264.563 183.9 264.546 182.99 264.506C181.497 264.442 180.134 266.397 179.558 268.113C179.085 269.521 179.808 270.775 179.486 272.116C179.39 272.515 180.178 273.137 180.59 273.631C180.633 273.683 181.015 273.564 181.016 273.522C181.025 272.675 181.083 271.817 180.962 270.986C180.847 270.199 180.317 269.41 181.3 268.814C181.211 268.716 181.124 268.618 181.035 268.38Z" fill="#FFB61D"/>
<path fill-rule="evenodd" clip-rule="evenodd" d="M236.315 332.315C236.053 333.741 235.774 335.026 235.544 336.316C235.505 336.53 235.74 336.779 235.748 337.016C235.818 339.046 235.448 341.053 235.382 343.083C235.351 344.058 235.438 345.124 235.17 346.082C234.839 347.268 235.317 348.826 233.798 349.524C233.213 349.792 232.352 350.3 232.01 350.082C231.348 349.661 230.247 349.429 230.421 348.128C230.573 346.984 230.254 345.761 230.497 344.652C230.913 342.756 230.472 340.844 230.798 339.002C230.996 337.884 230.782 336.771 231.041 335.715C231.459 334.013 231.396 332.279 231.621 330.572C231.836 328.951 231.965 327.323 232.176 325.709C232.396 324.04 232.523 322.364 232.749 320.709C232.952 319.227 232.918 317.657 233.344 316.286C233.723 315.071 232.836 313.67 234.021 312.621C234.184 312.477 233.758 311.792 233.823 311.394C234.362 308.084 233.941 304.753 234.11 301.438C234.121 301.204 234.491 300.868 234.756 300.789C235.592 300.542 236.451 300.354 237.313 300.237C237.514 300.21 237.964 300.556 237.961 300.724C237.91 303.57 237.745 306.415 237.732 309.26C237.722 311.314 237.948 313.368 237.969 315.423C237.979 316.423 237.736 317.425 237.652 318.43C237.564 319.475 237.891 320.469 237.276 321.583C236.812 322.42 237.219 323.716 237.141 324.799C236.996 326.826 236.873 328.864 236.52 330.857C236.446 331.279 236.287 331.715 236.315 332.315ZM232.407 346.972C232.865 347.664 232.841 347.645 233.264 347.117C233.762 346.495 233.384 345.769 233.547 345.138C233.984 343.44 233.875 341.701 234.082 339.989C234.248 338.616 234.484 337.246 234.558 335.869C234.654 334.09 234.47 332.287 234.686 330.528C234.872 329.017 234.813 327.501 235.348 325.966C235.89 324.408 235.658 322.58 235.754 320.868C235.777 320.449 235.6 319.933 235.786 319.628C236.421 318.592 235.853 317.512 236.009 316.468C236.029 316.328 235.675 316.136 235.494 315.965C235.39 316.164 235.222 316.35 235.191 316.56C234.992 317.925 234.766 319.288 234.654 320.662C234.506 322.485 234.454 324.319 234.362 326.147C234.355 326.287 234.42 326.471 234.352 326.561C233.596 327.574 234.182 328.783 233.839 329.919C233.406 331.354 233.6 332.979 233.524 334.523C233.522 334.571 233.532 334.618 233.522 334.663C233.294 335.743 233.006 336.818 232.852 337.909C232.727 338.787 233.24 339.588 232.53 340.607C231.991 341.383 232.463 342.829 232.388 343.968C232.343 344.658 232.068 345.331 231.99 346.023C231.967 346.227 232.259 346.47 232.407 346.972ZM236.036 308.723C236.067 307.949 236.098 307.174 236.124 306.4C236.127 306.291 236.101 306.085 236.087 306.085C235.91 306.083 235.588 306.085 235.578 306.136C235.437 306.91 235.307 307.69 235.258 308.473C235.251 308.589 235.673 308.732 236.036 308.723Z" fill="#00160A"/>
<path fill-rule="evenodd" clip-rule="evenodd" d="M181.524 312.562C181.462 312.027 181.47 311.562 181.477 311.096C181.858 311.206 182.284 311.241 182.613 311.438C184.343 312.474 186.041 313.565 187.772 314.602C188.073 314.783 188.472 314.824 188.834 314.876C189.112 314.916 189.402 314.87 189.687 314.861C189.414 315.096 189.088 315.572 188.877 315.525C187.559 315.233 185.989 316.306 184.891 314.822C184.869 314.794 184.748 314.802 184.702 314.835C184.209 315.179 183.656 315.857 183.104 315.202C182.474 314.451 182.086 313.497 181.524 312.562Z" fill="#00160A"/>
</svg>
