<svg width="417" height="493" viewBox="0 0 417 493" fill="none" xmlns="http://www.w3.org/2000/svg">
<path fill-rule="evenodd" clip-rule="evenodd" d="M9.26113 203.83C10.9379 168.161 32.8888 106.155 142.118 100.284C273.825 93.2044 288.591 -4.58265 338.54 86.7793C388.488 178.141 460.099 274.314 383.26 348.52C311.954 417.384 218.702 399.801 98.8984 339.996C11.4998 296.362 7.58346 239.497 9.26009 203.831L9.26113 203.83Z" fill="#583DFF"/>
<g clip-path="url(#clip0_262_376)">
<path d="M63.0003 274.564C71.0192 274.564 77.5197 268.317 77.5197 260.612C77.5197 252.906 71.0192 246.66 63.0003 246.66C54.9815 246.66 48.481 252.906 48.481 260.612C48.481 268.317 54.9815 274.564 63.0003 274.564Z" fill="#F6F5F5"/>
<path fill-rule="evenodd" clip-rule="evenodd" d="M57.3061 210.867C54.831 204.55 56.9934 200.766 58.3792 195.825C59.5367 191.698 68.5902 184.994 72.7566 191.984C73.9824 194.041 73.4904 195.985 76.1695 197.792C82.6548 202.167 79.1169 193.09 79.358 190.796C79.4757 189.677 78.5503 187.095 78.8946 186.015C79.2564 184.881 81.1832 183.271 81.1832 180.922C81.1832 178.573 77.2639 177.667 76.1695 177.09C66.4466 171.961 60.2634 163.392 63.3447 159.044C67.6383 152.985 84.4639 162.518 89.5199 163.392C89.5852 163.404 90.488 158.587 91.2257 157.484C92.7011 155.277 94.3318 153.135 96.2774 151.349C97.1487 150.549 98.3297 150.055 99.4911 149.895C102.965 149.416 106.52 149.023 110 149.457C111.23 149.61 118.554 140.949 121.409 138.155C143.319 116.719 187.239 142.841 163.298 178.337C158.898 184.861 153.272 186.935 152.545 189.241C150.93 194.363 161.092 193.689 165.396 194.236C172.749 195.171 176.374 199.031 171.809 205.647C168.965 209.768 152.283 209.558 144.975 206.578C142.263 205.472 138.911 200.635 136.347 204.603C134.581 207.336 127.694 213.136 120.307 216.417C116.972 217.898 113.174 217.005 110.329 218.328C106.324 220.19 94.4995 228.006 89.5199 228.004C84.5044 228.002 78.0144 221.834 77.2639 221.43C76.1191 220.813 67.2662 219.046 62.8925 212.149C61.5702 210.063 58.2124 213.18 57.3061 210.867Z" fill="#F6F5F5"/>
<path d="M142.461 175.797C143.31 175.797 143.999 175.103 143.999 174.248C143.999 173.392 143.31 172.699 142.461 172.699C141.611 172.699 140.923 173.392 140.923 174.248C140.923 175.103 141.611 175.797 142.461 175.797Z" fill="#FFB61D"/>
<path d="M131.2 172.54C132.025 172.54 132.693 171.857 132.693 171.014C132.693 170.171 132.025 169.488 131.2 169.488C130.375 169.488 129.707 170.171 129.707 171.014C129.707 171.857 130.375 172.54 131.2 172.54Z" fill="#FFB61D"/>
<path d="M240 190.416C251.193 190.416 260.267 181.144 260.267 169.706C260.267 158.268 251.193 148.996 240 148.996C228.807 148.996 219.733 158.268 219.733 169.706C219.733 181.144 228.807 190.416 240 190.416Z" fill="#F6F5F5"/>
<path d="M235.52 287.195C235.52 315.602 209.154 338.631 176.629 338.631C144.105 338.631 117.739 315.602 117.739 287.195C117.739 258.788 144.105 235.76 176.629 235.76C209.154 235.76 235.52 258.788 235.52 287.195Z" fill="#F6F5F5"/>
<path fill-rule="evenodd" clip-rule="evenodd" d="M126.704 315.241L127.365 315.73C125.873 317.098 123.629 315.397 122.371 313.803C120.347 311.239 118.294 308.515 117.679 305.282C117.328 303.443 117.468 301.548 117.61 299.679L118.181 292.146C118.433 288.808 118.687 285.464 119.252 282.166C120.783 273.24 124.636 264.741 130.308 257.777L130.365 257.707C131.367 256.477 132.461 255.135 132.442 253.541C132.401 250.169 134.301 247.017 136.797 244.81C139.292 242.603 142.347 241.186 145.356 239.8C146.718 239.171 148.498 238.608 149.554 239.69C151.727 241.914 155.353 240.497 158.223 239.367C161.746 237.981 165.51 237.233 169.285 237.171C169.394 237.169 169.505 237.168 169.617 237.166C171.884 237.133 174.435 237.096 175.817 235.301C176.698 234.159 178.382 234.225 179.795 234.397L189.514 235.586C190.257 235.676 191.147 235.883 191.381 236.609C192.009 238.556 194.223 239.35 196.143 239.942C202.97 242.045 209.643 244.901 215.438 249.145C221.234 253.389 226.132 259.098 228.731 265.883C224.505 259.98 220.17 253.967 214.305 249.775C212.627 248.576 210.842 247.54 209.03 246.564C204.753 244.26 200.303 242.275 195.679 240.832C174.215 234.138 149.386 240.347 133.373 256.414C131.052 258.743 128.875 261.309 127.558 264.35L129.297 264.901C126.541 266.161 124.493 268.919 124.05 271.972C125.159 270.03 126.74 268.372 128.612 267.189C128.076 269.017 126.683 270.486 125.318 271.926C123.578 273.761 121.882 275.549 122.062 277.975C122.888 275.759 124.969 274.086 127.272 273.788C123.62 277.434 119.702 281.713 119.818 286.928C121.15 283.916 123.412 281.342 126.199 279.666L122.186 285.177C120.669 287.261 119.071 289.642 119.418 292.215C120.738 289.794 122.625 287.698 124.877 286.154C123.793 288.674 122.245 290.985 120.337 292.93C122.151 292.706 123.897 291.938 125.303 290.747C124.714 291.588 124.183 292.536 124.163 293.571C124.143 294.605 124.799 295.715 125.801 295.864C126.104 295.171 127.055 294.878 127.682 295.285C125.781 297.175 125.761 300.677 127.641 302.59C127.808 301.691 128.55 300.933 129.43 300.763C128.028 303.268 127.776 306.415 128.76 309.12C129.058 307.587 129.891 306.169 131.073 305.178C130.391 308.814 128.884 312.285 126.704 315.241ZM125.873 314.083C127.06 314.07 127.799 312.713 127.922 311.507C128.07 310.063 127.72 308.62 127.372 307.213L125.306 298.867C124.918 298.993 124.873 299.425 124.826 299.878C124.785 300.264 124.743 300.665 124.485 300.904C123.962 300.239 123.903 299.234 124.343 298.51C124.788 297.779 124.497 296.756 123.866 296.187C123.235 295.618 122.356 295.424 121.515 295.396C121.06 295.38 120.576 295.416 120.204 295.684C119.831 295.952 119.636 296.52 119.9 296.899C120.687 298.026 121.279 299.294 121.641 300.628C121.668 300.728 121.694 300.829 121.72 300.931C121.9 301.623 122.085 302.335 122.581 302.829C122.964 303.211 123.062 303.793 123.14 304.334L123.771 308.72C123.886 309.519 124 310.333 123.869 311.128C123.738 311.923 123.317 312.712 122.611 313.074L124.866 313.857C125.193 313.971 125.527 314.086 125.873 314.083ZM150.451 242.2C150.007 242.296 149.634 241.897 149.316 241.557L149.28 241.517C148.953 241.169 148.393 240.866 148.05 241.196C144.047 245.043 139.493 248.29 134.578 250.799C133.686 251.255 133.566 252.483 133.565 253.502C133.565 253.842 133.884 254.32 134.092 254.054C135.105 252.757 136.423 251.749 137.726 250.757C141.391 247.964 145.1 245.146 149.302 243.305C149.812 243.081 150.409 242.765 150.451 242.2ZM190.674 237.873C190.447 237.329 189.803 237.133 189.234 237.023C187.685 236.725 186.109 236.59 184.533 236.455C182.37 236.27 180.21 236.085 178.128 235.478C177.461 235.283 176.891 235.974 176.526 236.576C177.623 236.459 178.726 236.411 179.829 236.432C181.748 236.468 183.658 236.712 185.562 236.956C186.531 237.08 187.505 237.206 188.434 237.513C188.541 237.548 188.65 237.586 188.76 237.625C189.394 237.847 190.049 238.077 190.674 237.873ZM170.185 246.233C170.624 246.335 171.041 246.67 171.107 247.125C171.172 247.579 170.869 248.021 170.481 248.252C170.094 248.483 169.635 248.548 169.19 248.608L167.851 248.789C167.717 248.807 167.578 248.827 167.462 248.898C167.125 249.101 167.148 249.653 167.424 249.937C167.699 250.221 168.121 250.292 168.512 250.291C170.334 250.287 172.059 248.948 172.616 247.175C172.748 246.754 172.818 246.286 172.654 245.876C172.571 245.669 172.432 245.489 172.278 245.329C171.561 244.587 170.494 244.26 169.476 244.333C168.459 244.407 167.491 244.85 166.662 245.459C166.266 245.751 165.888 246.092 165.662 246.536C165.437 246.979 165.388 247.542 165.641 247.97C165.737 248.134 165.885 248.278 166.069 248.309C166.253 248.339 166.466 248.218 166.489 248.029C166.552 247.503 166.928 247.059 167.375 246.792C167.823 246.524 168.339 246.407 168.847 246.303C169.289 246.213 169.746 246.13 170.185 246.233ZM134.279 272.239C134.78 269.213 137.172 266.753 139.96 265.613C141.496 264.985 143.255 264.71 144.8 265.315C145.181 265.464 145.551 265.67 145.825 265.979C146.083 266.27 146.246 266.635 146.368 267.007C147.154 269.386 146.357 272.138 144.67 273.964C142.984 275.79 140.528 276.748 138.077 276.928C137.292 276.986 136.448 276.953 135.8 276.497C135.151 276.041 134.83 275.028 135.329 274.406C135.565 274.417 135.692 274.633 135.823 274.853C135.887 274.962 135.952 275.073 136.032 275.16C136.304 275.46 136.754 275.481 137.154 275.464C138.892 275.389 140.656 274.949 142.071 273.915C143.485 272.881 144.502 271.191 144.472 269.414C144.462 268.841 144.34 268.255 144.023 267.783C143.502 267.009 142.516 266.659 141.598 266.721C140.681 266.783 139.82 267.199 139.038 267.694C138.01 268.347 137.059 269.167 136.414 270.214C135.77 271.261 135.454 272.555 135.727 273.76C135.486 274.204 134.77 274.116 134.474 273.708C134.178 273.3 134.196 272.74 134.279 272.239ZM150.285 297.179C149.013 298.015 147.959 299.324 147.763 300.855C147.604 302.095 148.011 303.329 148.411 304.51C148.724 305.432 149.047 306.374 149.643 307.136C150.718 308.514 152.499 309.083 154.202 309.363C154.665 309.439 155.369 309.225 155.203 308.776C153.406 308.742 151.638 307.891 150.468 306.496C149.299 305.101 148.746 303.186 148.989 301.365C149.04 300.983 149.126 300.601 149.283 300.25C149.601 299.539 150.195 298.992 150.837 298.568C152.221 297.655 153.905 297.227 155.546 297.372C157.127 297.511 158.708 298.22 159.674 299.508C160.639 300.795 160.87 302.696 160.017 304.065C159.879 304.287 159.778 304.681 160.032 304.727C161.403 303.972 162.165 302.307 162.088 300.716C162.011 299.126 161.189 297.637 160.06 296.54C159.436 295.933 158.696 295.42 157.858 295.214C156.753 294.942 155.597 295.223 154.499 295.518C153.036 295.911 151.556 296.343 150.285 297.179ZM212.731 299.154C208.133 297.4 203.137 296.746 198.255 297.26C196.208 297.475 194.154 297.902 192.314 298.844C188.841 300.619 186.358 304.275 185.945 308.221C185.532 312.166 187.202 316.277 190.228 318.763C191.376 319.706 192.678 320.412 193.983 321.119C194.873 321.601 195.765 322.084 196.608 322.643C196.849 322.879 196.306 323.113 195.989 323.009C193.04 322.036 190.176 320.557 188.073 318.231C185.514 315.402 184.265 311.385 184.759 307.566C185.253 303.746 187.479 300.198 190.669 298.145C193.192 296.521 196.209 295.837 199.189 295.727C202.169 295.618 205.141 296.053 208.087 296.519C209.928 296.81 212.086 297.369 212.731 299.154ZM164.351 305.042C164.143 304.553 163.303 304.425 163.15 304.935C162.174 308.179 159.077 310.631 155.76 310.786C155.011 310.822 154.26 310.75 153.513 310.677C151.904 310.517 150.245 310.329 148.836 309.52C146.81 308.356 145.59 305.966 145.576 303.59C145.562 301.215 146.664 298.907 148.338 297.259C148.106 296.594 147.108 296.915 146.613 297.407C143.867 300.134 143.396 304.842 145.323 308.223C147.249 311.604 151.287 313.5 155.092 313.07C158.898 312.64 162.334 310.036 164.104 306.566C164.345 306.093 164.56 305.53 164.351 305.042ZM140.518 321.466C139.898 323.895 139.84 326.472 140.348 328.929C140.576 330.031 140.601 330.637 140.605 330.751C140.606 330.764 140.606 330.771 140.607 330.771C140.607 330.771 140.607 330.764 140.608 330.751C140.613 330.637 140.64 330.028 140.873 328.924C141.393 326.464 141.269 323.864 140.518 321.466ZM143.812 322.935C142.931 324.822 143.04 327.156 144.093 328.948C144.33 329.351 144.509 329.678 144.642 329.92C144.82 330.245 144.913 330.414 144.945 330.402C144.98 330.39 144.943 330.163 144.864 329.687C144.833 329.496 144.795 329.265 144.753 328.991L143.812 322.935ZM146.292 325.344C145.918 326.549 146.194 327.942 146.995 328.904C147.814 329.886 148.081 330.201 147.831 328.936C147.577 327.645 147.048 326.411 146.292 325.344ZM218.06 311.643C216.936 316.256 213.344 319.752 209.861 322.904C210.02 323.254 210.535 323.129 210.864 322.939C214.392 320.91 217.247 317.603 218.549 313.687C219.852 309.77 219.528 305.27 217.472 301.706C217.299 301.407 217.079 301.089 216.746 301.022C216.413 300.955 216.028 301.351 216.224 301.634C218.2 304.494 218.889 308.246 218.06 311.643ZM167.341 269.99C167.333 269.26 167.343 268.47 167.774 267.888C168.368 267.087 169.494 267.003 170.478 266.989C170.916 266.983 171.36 266.977 171.788 267.081C172.697 267.302 173.421 267.988 174.066 268.678C174.209 268.831 174.361 269.02 174.326 269.228C174.282 269.487 173.965 269.605 173.714 269.553C173.546 269.517 173.396 269.432 173.246 269.347H173.246C173.17 269.305 173.094 269.261 173.016 269.225C172.112 268.801 171.05 269.266 170.238 269.853C170.11 269.945 169.972 270.064 169.969 270.223C169.966 270.384 170.1 270.508 170.227 270.603C171.325 271.424 172.73 271.805 174.081 271.646C174.404 271.608 174.784 271.487 174.868 271.166C174.9 271.041 174.888 270.893 174.875 270.75C174.855 270.512 174.835 270.287 175.031 270.204C175.134 270.161 175.25 270.192 175.356 270.224C176.087 270.441 176.943 270.791 177.084 271.556C177.125 271.777 177.096 272.007 177.027 272.22C176.826 272.846 176.264 273.334 175.628 273.437C175.346 273.483 175.057 273.458 174.772 273.433C174.028 273.368 173.283 273.303 172.545 273.181C171.191 272.958 169.866 272.546 168.62 271.959C168.188 271.756 167.739 271.505 167.52 271.073C167.353 270.745 167.345 270.36 167.341 269.99ZM195.159 251.994C194.724 250.792 193.672 249.843 192.451 249.55C192.073 249.46 191.646 249.438 191.325 249.661C191.005 249.885 190.895 250.431 191.2 250.676C191.497 250.913 191.317 251.471 190.956 251.576C190.593 251.681 190.204 251.43 190.023 251.093C189.842 250.756 189.823 250.355 189.821 249.97C189.818 249.457 189.864 248.884 190.235 248.538C190.376 248.406 190.552 248.321 190.727 248.241C191.45 247.911 192.25 247.631 193.022 247.808C193.758 247.978 194.345 248.533 194.859 249.098C195.28 249.561 195.678 250.046 196.051 250.55C196.38 250.995 196.696 251.469 196.82 252.011C196.943 252.554 196.837 253.184 196.427 253.551C196.025 253.91 195.407 253.941 194.92 253.719C194.489 253.523 194.122 253.091 194.154 252.611C194.186 252.13 194.764 251.732 195.159 251.994ZM199.044 285.797C200.124 285.765 201.13 284.915 201.363 283.837C201.505 283.182 201.33 282.402 200.771 282.05C200.363 281.792 199.849 281.811 199.37 281.843C198.707 281.886 198.019 281.945 197.443 282.283C196.867 282.622 196.439 283.323 196.619 283.976C196.913 285.038 197.964 285.828 199.044 285.797ZM199.183 284.204C198.974 284.262 198.676 284.207 198.657 283.987C198.65 283.895 198.698 283.809 198.753 283.736C199.06 283.33 199.644 283.172 200.107 283.371C199.946 283.774 199.594 284.091 199.183 284.204ZM199.741 267.878C199.564 267.463 199.905 266.98 200.319 266.821C200.651 266.694 201.011 266.707 201.368 266.72C201.458 266.723 201.546 266.727 201.634 266.728C202.076 266.733 202.565 266.658 202.852 266.314C202.953 266.193 203.022 266.014 202.944 265.876C202.864 265.731 202.674 265.706 202.511 265.697C201.384 265.638 200.052 265.673 199.403 266.616C199.263 266.819 198.921 266.75 198.79 266.542C198.66 266.333 198.69 266.058 198.764 265.823C199.03 264.977 199.794 264.362 200.629 264.116C201.464 263.87 202.36 263.947 203.207 264.144C203.493 264.209 203.79 264.297 203.998 264.507C204.164 264.673 204.256 264.902 204.317 265.131C204.605 266.227 204.179 267.483 203.288 268.162C202.397 268.841 201.098 268.899 200.152 268.303C199.983 268.197 199.819 268.064 199.741 267.878ZM195.877 287.253C196.4 287.894 197.02 288.477 197.772 288.803C199.292 289.463 201.236 288.854 202.132 287.436C202.459 286.921 202.605 286.133 202.122 285.767C201.348 287.428 199.105 288.162 197.532 287.268C197.23 287.096 196.956 286.877 196.707 286.634C195.575 285.527 194.985 283.719 195.649 282.269C195.865 281.796 196.198 281.388 196.561 281.021C197.354 280.222 198.488 279.567 199.546 279.922C199.59 279.937 199.634 279.954 199.678 279.97C199.826 280.026 199.975 280.082 200.131 280.073C200.332 280.061 200.544 279.876 200.492 279.676C200.476 279.617 200.44 279.566 200.403 279.518C199.749 278.666 198.466 278.403 197.541 278.931C196.44 279.56 195.322 280.3 194.737 281.441C193.784 283.297 194.562 285.644 195.877 287.253ZM213.405 258.608C213.357 258.679 213.37 258.777 213.381 258.872C213.395 258.984 213.408 259.09 213.318 259.135C212.988 259.301 212.594 259.284 212.243 259.174C211.285 258.874 210.642 257.975 210.099 257.113C209.782 256.609 209.466 256.074 209.415 255.477C209.364 254.88 209.663 254.208 210.226 254.039C210.853 253.851 211.468 254.328 211.956 254.772C212.507 255.273 213.07 255.79 213.411 256.458C213.751 257.126 213.827 257.989 213.405 258.608ZM211.322 256.371C211.457 256.506 211.531 256.686 211.605 256.867C211.677 257.045 211.751 257.222 211.882 257.356C212.049 257.526 212.302 257.602 212.532 257.552C212.101 256.87 211.602 256.234 211.044 255.656C210.895 255.702 210.883 255.928 210.972 256.058C211.027 256.136 211.103 256.194 211.179 256.253C211.228 256.29 211.278 256.328 211.322 256.371ZM129.269 317.949C129.216 318.844 129.283 319.88 129.984 320.419C130.217 320.286 130.201 319.945 130.172 319.673C129.991 318.001 130.499 316.39 131.01 314.768C131.375 313.607 131.743 312.44 131.86 311.242C131.895 310.895 131.804 310.419 131.462 310.405C131.206 310.395 131.041 310.671 130.938 310.911C129.981 313.132 129.413 315.527 129.269 317.949ZM197.223 285.691C198.013 286.048 198.89 286.412 199.717 286.155C200.046 286.053 200.339 285.859 200.627 285.668C200.626 286.162 200.21 286.577 199.747 286.717C199.283 286.859 198.785 286.783 198.313 286.679C197.788 286.563 197.146 286.234 197.223 285.691ZM134.7 326.921C134.902 326.554 134.936 326.119 134.966 325.699L135.205 322.355C135.322 320.714 135.439 319.066 135.334 317.425C135.321 317.217 135.3 316.999 135.182 316.831C135.064 316.662 134.814 316.572 134.652 316.697C134.533 316.789 134.503 316.956 134.482 317.107C134.223 319.006 134.085 320.922 134.068 322.839C134.056 324.229 134.118 325.665 134.7 326.921ZM131.123 324.047C130.914 324.228 130.565 324.069 130.449 323.815C130.334 323.56 130.38 323.263 130.43 322.988C130.948 320.102 131.535 317.229 132.192 314.372C132.208 314.301 132.226 314.226 132.271 314.169C132.444 313.951 132.793 314.171 132.916 314.422C133.216 315.038 133.072 315.773 132.922 316.444L131.304 323.654C131.272 323.798 131.234 323.952 131.123 324.047ZM136.726 324.176C136.636 325.258 136.795 326.344 136.953 327.419C137.01 327.801 137.279 328.309 137.617 328.135L138.276 320.933C138.303 320.64 138.321 320.315 138.144 320.084C137.966 319.852 137.516 319.862 137.459 320.15L136.973 322.62C136.871 323.135 136.77 323.652 136.726 324.176ZM204.786 302.102C202.91 301.115 200.626 300.725 198.677 301.552C197.221 302.17 193.106 304.839 192.559 308.258C192.192 310.548 192.196 312.888 192.98 315.098L193.106 315.445C193.34 316.071 194.084 316.79 194.5 316.273C193.285 314.029 193.058 311.25 193.892 308.832C194.726 306.413 196.607 304.394 198.929 303.423C199.418 303.219 199.928 303.058 200.454 303.007C201.517 302.904 202.578 303.257 203.529 303.754C205.575 304.825 208.11 306.607 209.084 308.735C210.023 310.787 210.714 313.234 209.865 315.326C209.015 317.418 203.433 318.931 203.433 318.931L204.051 320.083C204.051 320.083 207.175 319.453 209.084 318.033C217.095 312.07 206.581 303.046 204.786 302.102Z" fill="#00160A"/>
<path fill-rule="evenodd" clip-rule="evenodd" d="M63.1684 272.662C60.3349 272.972 57.3342 272.302 55.1219 270.467C53.5552 269.167 52.4544 267.359 51.6817 265.453C50.8429 263.385 50.3608 261.166 50.2639 258.929C50.2272 258.087 50.2468 257.23 50.4892 256.423C50.8877 255.097 51.8477 254.033 52.8273 253.073C54.912 251.03 57.3624 249.166 60.2197 248.736C62.167 248.444 64.1476 248.843 66.0536 249.344C67.5507 249.737 69.0458 250.202 70.3919 250.977C73.3675 252.692 75.4291 255.961 75.7274 259.438C76.0256 262.915 75.6587 265.219 71.0669 269.539C68.681 271.131 66.0019 272.351 63.1684 272.662ZM68.1651 261.747C67.7056 261.895 67.2474 262.157 66.7729 262.072C65.8039 261.898 65.6303 260.539 65.8453 259.558C66.4614 256.749 68.3776 254.268 70.9082 253.003C70.3351 251.941 68.8137 251.863 67.7372 252.373C66.6611 252.884 65.8197 253.803 64.7791 254.385C64.2611 254.675 63.6472 254.88 63.084 254.7C62.1564 254.403 61.8027 253.162 62.106 252.219C62.4098 251.276 63.1672 250.572 63.8946 249.914C61.2591 250.008 58.6509 250.817 56.4079 252.235C54.6517 253.344 52.986 255.164 53.2194 257.26C54.6709 256.066 56.3755 255.195 58.1811 254.723C58.5643 254.623 59.0451 254.573 59.2849 254.894C59.4662 255.138 59.4142 255.488 59.2977 255.769C58.7204 257.168 57.0232 257.638 55.9706 258.708C55.8323 258.849 55.6996 259.011 55.6664 259.208C55.6006 259.593 55.9595 259.944 56.3366 260.008C56.7138 260.072 57.0923 259.932 57.4498 259.794C58.1926 259.508 58.9355 259.222 59.6783 258.935C60.2163 258.728 60.8546 258.53 61.3329 258.855C61.8274 259.193 61.8739 259.959 61.5945 260.495C61.315 261.031 60.8017 261.391 60.3076 261.729C59.1172 262.545 57.9268 263.36 56.7364 264.175C55.7397 264.858 54.6231 265.779 54.7179 267.001C54.807 268.151 56.0457 268.933 57.1725 268.859C58.2997 268.785 59.2917 268.081 60.1237 267.301C60.9553 266.52 61.7062 265.628 62.6722 265.03C63.3028 264.64 64.2022 264.424 64.7142 264.965C65.1098 265.384 65.0718 266.056 64.9233 266.618C64.4954 268.237 63.3382 269.639 61.8483 270.342C63.0605 270.628 64.3247 270.682 65.5556 270.5C66.2579 270.397 66.9845 270.198 67.4923 269.692C68 269.186 68.1967 268.294 67.7564 267.726C67.0993 266.879 67.1253 265.638 67.5452 264.645C67.965 263.653 68.7147 262.851 69.449 262.073C69.2386 261.63 68.6246 261.6 68.1651 261.747ZM73.7762 263.671C74.4363 262.113 74.4602 260.35 74.2929 258.66C74.1082 256.79 73.4707 254.653 71.7474 253.998C69.2224 255.069 67.2738 257.458 66.6982 260.19C66.65 260.419 66.6121 260.666 66.7004 260.882C66.7887 261.099 67.0511 261.257 67.2546 261.148C67.9526 260.775 68.8115 260.562 69.5211 260.913C70.2306 261.263 70.5762 262.356 70.0015 262.907C69.3666 263.516 68.7147 264.15 68.3721 264.968C68.0294 265.786 68.0789 266.845 68.7241 267.442C69.2083 267.892 69.2096 268.774 68.7262 269.225C70.1005 268.814 71.0801 267.607 71.971 266.462C72.6524 265.587 73.3414 264.698 73.7762 263.671ZM57.955 255.609C56.5257 256.215 55.1377 256.925 53.8061 257.73C53.4891 257.921 53.1691 258.124 52.9374 258.416C52.6246 258.811 52.5056 259.326 52.4092 259.825C52.0969 261.434 51.936 263.167 52.5973 264.662C52.8085 265.139 53.097 265.575 53.3841 266.009C53.469 266.137 53.565 266.274 53.7105 266.318C53.8556 266.361 54.0476 266.241 54.0134 266.09C53.9085 265.626 54.2524 265.19 54.5916 264.863C56.5798 262.951 59.258 261.853 61.0462 259.744C60.7748 259.416 60.2603 259.57 59.8737 259.739C58.9525 260.141 58.0028 260.474 57.0347 260.735C56.535 260.87 55.9782 260.979 55.5226 260.731C54.8553 260.367 54.7469 259.373 55.0993 258.69C55.4517 258.006 56.1216 257.565 56.7676 257.163C57.4135 256.762 58.0915 256.343 58.4794 255.68C58.4085 255.491 58.138 255.532 57.955 255.609ZM62.848 268.42C63.4795 267.901 64.1621 267.289 64.2313 266.464C64.2671 266.033 63.9966 265.505 63.5746 265.546C63.4449 265.559 63.3263 265.624 63.2145 265.693C61.3773 266.814 60.1685 269.007 58.0958 269.553C58.6816 269.82 59.2922 270.031 59.9168 270.181C60.1028 270.226 60.2965 270.265 60.4834 270.225C60.7014 270.179 60.8836 270.033 61.0569 269.891C61.6538 269.4 62.2507 268.91 62.848 268.42ZM64.5564 250.491C64.1476 250.953 63.7389 251.415 63.3301 251.877C63.0063 252.243 62.6586 252.726 62.839 253.184C62.9717 253.521 63.3638 253.691 63.7184 253.663C64.0734 253.635 64.3964 253.45 64.6938 253.25C65.7536 252.54 66.7076 251.572 67.9445 251.288C67.0869 250.969 66.2293 250.649 65.3717 250.33C65.1934 250.263 64.9941 250.197 64.8184 250.271C64.713 250.315 64.6328 250.404 64.5564 250.491Z" fill="#00160A"/>
<path fill-rule="evenodd" clip-rule="evenodd" d="M80.5151 195.298C80.408 197.487 78.7551 199.858 76.6247 199.599C75.663 198.463 74.9108 197.053 74.1671 195.659C72.7386 192.982 71.343 190.366 68.562 189.869C65.8305 189.381 63.2867 191.434 61.5856 193.672C59.122 196.912 57.5297 200.838 57.0279 204.91C56.7327 207.304 57.6935 210.623 60.0402 210.36C62.7209 210.059 64.6273 212.213 66.5665 214.405C68.361 216.433 70.1833 218.494 72.6738 218.667C75.6387 218.874 78.0605 220.689 80.5121 222.527C82.1496 223.754 83.8004 224.991 85.6351 225.766C89.0859 227.223 93.0659 226.941 96.5885 225.675C100.111 224.41 103.247 222.23 106.214 219.914L106.369 219.792C107.989 218.527 109.685 217.202 111.698 216.923C121.997 215.497 131.576 209.324 137.274 200.442C145.351 207.04 156.644 209.295 166.558 206.289C168.239 205.779 169.932 205.096 171.18 203.835C172.427 202.574 173.135 200.616 172.521 198.936C171.851 197.099 169.847 196.115 167.942 195.879C166.898 195.749 165.846 195.788 164.793 195.826H164.793C163.925 195.858 163.056 195.889 162.191 195.827C156.955 195.448 152.594 191.758 148.629 188.242C154.374 186.441 159.032 181.918 162.108 176.643C165.184 171.367 166.832 165.358 168.084 159.352C168.743 156.191 169.233 152.631 167.466 149.951C166.675 148.752 165.515 147.875 164.36 147.001C163.058 146.017 161.762 145.037 161.004 143.604C159.545 140.849 156.701 139.215 154.003 137.727C146.943 133.832 138.834 129.823 131.226 132.425C128.262 133.438 125.702 135.379 123.206 137.301C119.061 140.491 114.621 144.234 113.832 149.476C107.05 146.375 98.2755 148.852 94.0118 155.069C93.0364 156.492 92.2881 158.06 91.5401 159.627C90.6595 161.472 89.7801 163.314 88.5334 164.913C83.5252 162.581 78.4227 160.462 73.2434 158.562C70.9471 157.72 68.2036 156.975 66.2247 158.434C64.6379 159.603 64.1511 161.898 64.617 163.839C65.0825 165.781 66.3263 167.427 67.6596 168.89C70.5524 172.063 74.0276 174.68 77.8501 176.565C77.9734 176.626 78.0976 176.686 78.2222 176.747C79.419 177.329 80.6495 177.929 81.4465 178.998C82.3263 180.179 82.3809 182.155 81.1474 182.938C79.3255 184.095 78.9897 186.692 79.3635 188.851C79.4911 189.588 79.6784 190.319 79.8653 191.049C80.2258 192.455 80.5855 193.857 80.5151 195.298ZM129.982 206.842C125.391 211.768 118.93 214.65 112.324 215.493C105.718 216.335 98.9722 215.24 92.6618 213.073C94.3595 213.072 95.5866 210.801 94.6838 209.332C91.2061 213.475 85.9039 215.415 80.8517 217.187C76.2872 218.788 70.8314 217.625 67.4787 214.079C64.1259 210.532 63.2189 204.712 65.5766 200.41C66.6015 198.54 68.3397 196.912 70.4295 196.728C72.5193 196.544 74.77 198.315 74.5759 200.45C73.4132 200.243 72.1891 201.252 72.1413 202.457C76.6405 201.963 80.8701 199.328 83.3622 195.469C84.2224 194.136 84.8765 192.686 85.5305 191.234C85.97 190.259 86.4095 189.283 86.9121 188.342C88.1631 186.001 89.9589 183.769 92.4481 182.964C94.4457 182.319 96.6051 182.677 98.6697 183.041L107.842 184.657C108.528 184.051 107.416 183.081 106.529 182.892C103.662 182.279 100.755 181.902 97.8484 181.525C95.1531 181.175 92.457 180.825 89.7929 180.288C84.2552 179.172 78.6894 177.129 74.6591 173.092C77.3931 171.484 79.4731 168.753 80.3265 165.651C80.4993 165.023 80.088 163.992 79.5888 164.398C79.0192 166.412 78.4014 168.514 76.9733 170.019C75.5453 171.525 73.0386 172.186 71.4224 170.895C69.324 169.218 67.1182 167.388 66.2883 164.802C65.4584 162.215 66.7713 158.741 69.4166 158.424C70.6045 158.282 71.765 158.783 72.8602 159.274L83.9079 164.222C87.1958 165.695 90.5332 167.183 94.0848 167.717C96.5786 168.092 99.1152 167.987 101.633 167.881L108.774 167.58C109.065 167.568 109.365 167.554 109.634 167.437C110.351 167.124 110.594 166.228 110.753 165.448C112.669 156 115.243 146.03 122.207 139.514C125.324 136.599 129.206 134.546 133.335 133.63C137.405 132.728 141.895 132.993 145.399 135.293C139.521 135.735 133.813 138.269 129.485 142.356C127.666 140.372 124.281 141.994 122.83 144.272C120.582 147.805 120.622 152.712 122.93 156.205C124.872 159.145 125.592 162.653 126.314 166.17C126.977 169.401 127.642 172.64 129.258 175.451C131.814 179.897 136.575 182.752 141.547 183.637C146.52 184.521 151.674 183.597 156.399 181.786C151.11 187.177 142.662 189.042 135.667 186.362C135.157 186.166 134.65 185.948 134.143 185.73L134.142 185.729C132.535 185.038 130.922 184.344 129.199 184.365C130.209 185.457 131.498 186.278 132.904 186.721C131.283 189.503 129.583 192.236 127.806 194.916C127.579 195.259 127.32 195.624 126.93 195.74C126.497 195.869 126.045 195.648 125.649 195.425C122.382 193.58 119.454 191.111 117.06 188.183L112.272 194.135C114.729 197.204 117.602 199.925 120.783 202.197C116.549 207.541 110.136 211.022 103.432 211.613C110.371 211.974 117.396 208.649 121.613 203.006C124.283 204.537 127.087 205.823 129.982 206.842ZM151.927 154.509C153.46 152.801 154.028 150.36 153.897 148.046C153.766 145.732 153.004 143.506 152.161 141.353C154.357 141.087 156.589 141.934 158.339 143.317C160.088 144.7 161.403 146.581 162.48 148.555C163.787 150.947 164.789 153.534 165.223 156.238C166.247 162.604 164.062 169.094 160.951 174.708C160.347 175.798 159.697 176.88 158.815 177.75C157.927 178.627 156.835 179.257 155.716 179.788C151.096 181.981 145.783 182.614 140.794 181.565C143.979 178.856 146.228 175.123 147.66 171.149C149.093 167.175 149.749 162.952 150.126 158.735L150.128 158.711C150.223 157.648 150.323 156.53 150.916 155.652C151.113 155.361 151.356 155.109 151.599 154.857C151.71 154.742 151.82 154.627 151.927 154.509ZM146.163 172.074C144.789 175.359 142.66 178.375 139.774 180.391C139.436 180.627 139.073 180.855 138.666 180.903C138.307 180.946 137.947 180.845 137.603 180.734C135.149 179.942 132.83 178.539 131.256 176.459C130.685 175.704 130.218 174.872 129.802 174.018C126.772 167.796 126.475 160.247 129.007 153.797C129.128 153.489 129.301 153.143 129.62 153.078C130.032 152.995 130.348 153.426 130.58 153.784C132.471 156.712 136.007 158.195 139.438 158.349C142.868 158.502 146.243 157.506 149.496 156.382C148.903 157.864 148.752 159.477 148.602 161.076V161.078L148.602 161.081C148.583 161.28 148.565 161.48 148.545 161.679C148.196 165.234 147.538 168.789 146.163 172.074ZM145.465 141.557C147.22 141.149 149.268 141.037 150.61 142.264C151.043 142.66 151.364 143.169 151.629 143.698C153.291 147.015 152.64 151.384 150.088 154.047C147.138 157.125 142.469 157.632 138.269 157.267C136.761 157.136 135.211 156.898 133.924 156.086C132.259 155.034 131.273 153.181 130.362 151.411C134.409 146.789 139.546 142.932 145.465 141.557ZM159.662 197.351C159.111 198.772 158.555 200.212 158.374 201.729C158.194 203.247 158.429 204.875 159.332 206.093C151.838 206.517 144.224 204.156 138.224 199.548C140.159 196.75 141.687 193.659 142.742 190.408C143.159 189.124 144.75 188.588 146.042 188.885C147.232 189.159 148.23 189.939 149.204 190.699L149.324 190.792C149.368 190.826 149.411 190.861 149.455 190.895C152.645 193.369 156.16 195.365 159.662 197.351ZM107.299 216.756C106.117 218.116 104.705 219.244 103.262 220.309C100.251 222.53 96.9665 224.55 93.3061 225.196C87.9421 226.141 82.1466 223.777 78.8946 219.316L90.5951 214.856C90.875 214.75 91.1651 214.641 91.4638 214.658C91.6323 214.668 91.7944 214.718 91.957 214.767C92.0654 214.8 92.1737 214.833 92.2842 214.855C92.6597 214.927 93.0386 214.863 93.4192 214.799C93.656 214.76 93.8936 214.72 94.1313 214.712C95.0072 214.686 95.8119 215.094 96.6085 215.499C96.8103 215.602 97.0121 215.704 97.2144 215.799C100.317 217.257 103.894 217.021 107.299 216.756ZM90.4052 165.601C90.3228 165.412 90.4099 165.195 90.4969 165.009C92.8931 159.881 96.0628 155.131 99.8597 150.979C102.531 154.769 104.308 159.211 105.001 163.827C105.139 164.75 104.99 166.026 104.083 166.141C99.7381 166.695 95.317 166.62 90.9923 165.919C90.7636 165.882 90.4999 165.816 90.4052 165.601ZM106.77 165.284C105.875 160.258 104.018 155.413 101.334 151.103C103.606 149.881 106.292 149.861 108.859 149.869C110.48 149.875 112.25 149.933 113.486 151.006L110.281 160.669C109.737 162.31 109.185 163.997 109.254 165.728L107.228 165.761C107.156 165.762 107.081 165.763 107.015 165.734C106.853 165.665 106.802 165.461 106.77 165.284ZM132.839 190.016C133.377 189.08 133.89 188.081 133.944 186.997C136.368 188.111 139.038 188.663 141.695 188.6C142.112 188.59 142.097 189.247 141.926 189.636C141.409 190.812 140.891 191.99 140.292 193.126C139.678 194.292 138.98 195.41 138.283 196.526L136.612 199.201C136.384 199.568 136.148 199.942 135.808 200.203C134.896 200.904 133.595 200.567 132.554 200.089C130.828 199.297 129.239 198.193 127.883 196.844C129.766 194.757 131.431 192.463 132.839 190.016ZM70.1547 192.327C70.9577 193.155 71.483 194.216 71.9945 195.257L69.5851 195.608C68.7822 195.725 67.9591 195.849 67.2496 196.25C66.5592 196.64 66.0267 197.266 65.5583 197.915C63.5986 200.628 62.5123 203.988 62.5055 207.36C62.5033 208.578 61.0945 209.447 59.9416 209.138C58.7888 208.83 58.0054 207.659 57.8062 206.459C57.6069 205.258 57.8876 204.03 58.2396 202.866C59.4783 198.772 61.6944 194.905 64.9725 192.232C65.5992 191.721 66.2913 191.243 67.0823 191.114C68.2087 190.93 69.3518 191.5 70.1547 192.327ZM171.336 199.182C171.614 199.548 171.821 199.993 171.809 200.457C171.792 201.056 171.421 201.581 171.02 202.019C168.695 204.566 165.12 205.434 161.734 205.842C161.511 205.869 161.278 205.894 161.068 205.81C160.896 205.741 160.758 205.606 160.635 205.465C159.818 204.526 159.495 203.214 159.561 201.96C159.627 200.705 160.051 199.497 160.578 198.363C160.69 198.124 160.818 197.872 161.045 197.744C161.225 197.642 161.441 197.634 161.647 197.629L165.745 197.519C166.754 197.492 167.774 197.466 168.761 197.678C169.749 197.891 170.716 198.368 171.336 199.182ZM125.671 159.62C124.001 156.459 122.752 153.066 121.969 149.564L122.643 147.723C123.477 146.072 124.53 144.536 125.761 143.17C126.264 142.613 127.133 142.551 127.826 142.82C128.518 143.088 129.075 143.621 129.613 144.142L132.032 146.484C132.104 146.554 132.179 146.629 132.203 146.727C132.248 146.911 132.099 147.081 131.963 147.212C130.831 148.313 129.824 149.554 129.017 150.922C127.797 152.989 127.052 155.307 126.317 157.601L125.671 159.62ZM131.853 141.865C136.779 139.169 142.166 136.633 147.722 137.24C150.627 137.557 153.405 138.737 155.825 140.41C148.894 138.59 141.168 140.269 135.563 144.814C134.696 145.517 133.396 146.28 132.625 145.47C132.427 145.262 132.297 144.971 132.171 144.687C131.969 144.232 131.775 143.797 131.323 143.754C130.891 143.713 130.698 143.114 130.882 142.713C131.065 142.311 131.471 142.074 131.853 141.865ZM118.322 191.171C119.295 192.126 120.365 192.968 121.433 193.809L125.749 197.205C124.42 198.402 123.119 199.632 121.85 200.894C118.826 199.062 116.128 196.673 113.923 193.876C115.13 192.592 116.289 191.26 117.395 189.885C117.569 190.392 117.943 190.798 118.322 191.171ZM90.5771 181.985C88.3047 183.798 85.9555 185.708 84.7058 188.363C84.4617 188.882 84.2599 189.428 84.0585 189.973C83.6302 191.132 83.2035 192.287 82.3736 193.169C82.0054 193.059 81.8608 192.615 81.7712 192.234L80.9063 188.559C80.7898 188.063 80.6725 187.554 80.7386 187.048C80.8048 186.545 81.0475 186.087 81.2856 185.641L83.8226 180.904C83.8793 180.799 83.9378 180.69 84.0287 180.613C84.2531 180.423 84.585 180.483 84.8683 180.555L90.5771 181.985ZM127.489 198.258C129.039 199.886 130.965 201.138 133.064 201.881C133.457 201.504 134.216 201.712 134.371 202.24C133.648 203.198 132.855 204.1 132 204.937C131.618 205.31 131.006 205.231 130.491 205.111C127.974 204.52 125.551 203.52 123.338 202.159C123.191 202.068 123.024 201.939 123.039 201.762C123.049 201.644 123.139 201.552 123.225 201.472L126.331 198.549C126.657 198.243 127.18 197.934 127.489 198.258ZM167.141 157.427C167.112 157.785 167.063 158.185 166.789 158.41C166.787 155.597 166.104 152.787 164.818 150.298C164.585 149.848 164.332 149.406 164.051 148.985C164.015 148.93 163.978 148.876 163.941 148.822C163.657 148.403 163.367 147.975 163.298 147.475L166.626 151.028C166.932 151.355 167.247 151.696 167.392 152.123C167.532 152.536 167.498 152.985 167.463 153.421L167.141 157.427ZM163.317 152.912L162.563 151.942C161.734 150.873 160.717 149.708 159.383 149.706C158.609 149.705 157.897 150.11 157.225 150.504L156.182 151.115C155.897 151.282 155.604 151.456 155.403 151.722C154.823 152.488 155.246 153.608 155.794 154.398C156.173 154.944 156.628 155.469 157.231 155.733C158.011 156.073 158.908 155.922 159.726 155.692C160.845 155.376 161.927 154.921 162.94 154.34C163.264 154.153 163.621 153.881 163.605 153.502C163.595 153.279 163.453 153.087 163.317 152.912ZM156.733 153.662C156.603 153.451 156.469 153.225 156.467 152.976C156.463 152.489 156.939 152.162 157.358 151.929L158.845 151.1C159.07 150.974 159.304 150.846 159.56 150.829C159.815 150.811 160.099 150.937 160.185 151.183C160.439 151.911 161.064 152.491 161.797 152.68C162.034 152.742 162.111 153.077 161.999 153.3C161.886 153.522 161.657 153.652 161.438 153.763C160.654 154.16 159.834 154.485 158.992 154.73C158.655 154.828 158.298 154.915 157.956 154.831C157.398 154.696 157.039 154.158 156.733 153.662ZM146.152 161.166C144.677 161.341 144.396 164.059 145.081 165.509C145.222 165.807 145.443 166.114 145.764 166.156C146.314 166.227 146.618 165.534 146.739 164.981L146.742 164.968C146.903 164.24 147.618 160.991 146.152 161.166ZM138.544 164.731C138.839 164.028 138.937 163.24 138.825 162.484C138.772 162.132 138.668 161.775 138.439 161.508C138.209 161.241 137.829 161.086 137.502 161.207C137.206 161.316 137.019 161.612 136.879 161.9C136.384 162.917 136.187 164.082 136.319 165.21C136.381 165.734 137.027 166.021 137.518 165.855C138.009 165.69 138.34 165.217 138.544 164.731ZM142.893 163.122C143.122 162.928 143.41 163.28 143.503 163.569C143.809 164.518 144.062 165.484 144.26 166.462C144.386 167.08 144.49 167.722 144.356 168.338C144.167 169.207 143.521 169.914 142.771 170.367C142.021 170.819 141.168 171.054 140.326 171.283C140.104 171.344 139.825 171.387 139.681 171.203C139.559 171.047 139.619 170.803 139.758 170.662C139.894 170.525 140.084 170.461 140.266 170.4L140.277 170.396C141.589 169.956 142.99 169.161 143.296 167.785C143.464 167.029 143.259 166.269 143.054 165.505C142.867 164.81 142.68 164.112 142.772 163.412C142.786 163.305 142.811 163.19 142.893 163.122ZM133.731 160.027C133.386 159.538 133.663 158.795 134.164 158.476C134.665 158.157 135.298 158.161 135.883 158.238C136.582 158.331 137.269 158.512 137.924 158.778C138.063 158.834 138.214 158.906 138.275 159.046C138.389 159.305 138.095 159.589 137.817 159.588C137.593 159.588 137.391 159.478 137.19 159.369C137.141 159.343 137.093 159.317 137.045 159.292C135.951 158.738 134.502 159.059 133.731 160.027ZM146.332 159.858C146.851 159.77 147.402 159.893 147.839 160.193C148.021 160.319 148.283 160.108 148.284 159.883C148.285 159.658 148.12 159.469 147.948 159.33C147.575 159.03 147.111 158.85 146.637 158.823C146.332 158.806 145.994 158.866 145.797 159.106C145.6 159.345 145.659 159.794 145.955 159.878C146.06 159.908 146.17 159.887 146.279 159.868C146.296 159.865 146.314 159.861 146.332 159.858ZM139.884 173.652C140.03 173.568 140.223 173.715 140.245 173.885C140.267 174.055 140.172 174.218 140.063 174.349C139.518 175.006 138.58 175.208 137.751 175.054C136.922 174.9 136.178 174.445 135.479 173.964C135.151 173.739 134.826 173.505 134.508 173.265C134.177 173.015 133.825 172.71 133.786 172.292C133.746 171.875 134.27 171.453 134.569 171.741C135.304 172.448 136.056 173.167 136.969 173.605C137.884 174.042 139.005 174.159 139.884 173.652ZM124.147 177.002C121.085 170.2 119.808 162.57 120.483 155.115C120.494 154.988 120.51 154.851 120.592 154.755C120.709 154.619 120.947 154.624 121.057 154.766C121.018 158.867 120.98 162.992 121.635 167.038C122.29 171.084 123.681 175.087 126.221 178.262C126.297 178.358 126.374 178.452 126.451 178.546C126.888 179.082 127.329 179.622 127.576 180.267C125.925 180.235 124.837 178.535 124.147 177.002ZM127.15 146.288C127.094 146.226 127.028 146.171 126.951 146.137C126.73 146.039 126.472 146.139 126.278 146.285C125.507 146.868 125.505 148.232 126.272 148.819C126.648 148.492 127.032 148.153 127.252 147.703C127.471 147.253 127.485 146.658 127.15 146.288ZM133.796 153.471C134.627 154.16 135.573 154.703 136.582 155.068C139.836 156.247 143.492 155.507 146.633 154.04C147.112 153.816 147.724 153.934 148.091 154.322C146.075 155.79 143.605 156.597 141.129 156.596C140.583 156.596 140.038 156.558 139.494 156.509C138.381 156.41 137.26 156.264 136.213 155.866C135.166 155.468 134.188 154.794 133.596 153.826L133.796 153.471ZM169.231 198.286C169.199 198.4 169.288 198.508 169.37 198.591L170.606 199.845C170.741 199.484 170.59 199.064 170.33 198.784C170.071 198.503 169.721 198.332 169.379 198.168C169.312 198.171 169.25 198.221 169.231 198.286Z" fill="#00160A"/>
<path fill-rule="evenodd" clip-rule="evenodd" d="M250.431 149.516C251.946 150.052 253.373 148.656 254.678 147.705C256.698 146.233 259.332 145.677 261.757 146.21C262.16 146.298 262.581 146.431 262.846 146.753C263.088 147.047 263.157 147.448 263.196 147.831C263.435 150.172 262.862 152.591 261.603 154.561C260.989 155.52 260.222 156.373 259.674 157.372C259.126 158.371 258.813 159.591 259.203 160.664C261.524 167.045 260.558 174.571 256.705 180.125C252.852 185.678 246.221 189.1 239.561 188.972C236.154 188.907 232.817 187.978 229.607 186.81C228.207 186.3 226.667 185.741 225.278 186.279C222.741 187.261 220.071 187.882 217.368 188.116C216.698 188.175 215.997 188.204 215.378 187.934C214.452 187.529 213.893 186.502 213.786 185.478C213.68 184.455 213.957 183.43 214.307 182.464C215.362 179.552 218.638 175.002 220.622 173.954C220.462 170.417 220.479 166.839 221.227 163.382C221.975 159.925 223.503 156.571 226.008 154.125C227.043 153.114 228.227 152.273 229.467 151.544C235.74 147.853 243.592 147.093 250.431 149.516ZM240.878 149.228C236.081 149.343 231.412 151.312 227.662 154.371C226.561 155.27 225.527 156.267 224.7 157.433C224.049 158.352 223.534 159.366 223.103 160.413C220.549 166.62 221.132 174.078 224.618 179.792C224.694 179.917 224.781 180.049 224.917 180.098C225.084 180.157 225.265 180.07 225.421 179.985C236.37 174.023 246.115 165.765 253.876 155.873C254.061 155.638 254.255 155.364 254.216 155.065C254.186 154.841 254.029 154.658 253.876 154.494C250.564 150.947 245.675 149.114 240.878 149.228ZM247.584 186.285C252.785 183.79 256.735 178.86 258.424 173.248C258.807 171.978 259.081 170.664 259.108 169.335C259.131 168.217 258.979 167.105 258.826 165.998C258.606 164.393 258.385 162.788 258.164 161.183C258.106 160.757 257.705 160.196 257.411 160.504C249.274 169.061 240.39 176.874 230.897 183.821C230.581 184.052 230.233 184.338 230.216 184.735C230.196 185.194 230.625 185.527 231.015 185.756C235.991 188.689 242.384 188.78 247.584 186.285ZM215.507 185.631C215.885 186.251 216.705 186.379 217.42 186.399C221.17 186.505 224.88 185.382 228.235 183.667C231.591 181.952 234.628 179.658 237.579 177.291C241.515 174.134 245.334 170.825 249.055 167.407C253.664 163.174 258.193 158.684 261.219 153.158C261.804 152.089 262.345 150.917 262.253 149.695C262.162 148.474 261.208 147.241 260.01 147.289C257.468 147.39 254.969 148.389 253.034 150.076C252.649 150.412 252.922 151.126 253.395 151.308C253.869 151.49 254.397 151.309 254.86 151.101C255.322 150.892 255.804 150.648 256.307 150.705C257.075 150.792 257.62 151.595 257.666 152.384C257.712 153.172 257.371 153.93 256.969 154.604C256.225 155.853 255.253 156.941 254.272 158.004C245.545 167.451 235.478 175.604 224.484 182.128C223.494 182.716 222.492 183.293 221.426 183.72C220.867 183.945 220.227 184.125 219.681 183.869C218.787 183.447 218.715 182.164 218.983 181.196C219.386 179.742 220.257 178.428 221.428 177.506C221.206 176.867 220.984 176.229 220.762 175.59C217.872 177.477 215.843 180.687 215.348 184.155C215.277 184.656 215.245 185.202 215.507 185.631ZM223.726 181.249C223.747 181.183 223.709 181.114 223.673 181.056C223.3 180.449 222.926 179.843 222.553 179.237C222.384 178.963 222.057 178.652 221.804 178.847C220.891 179.55 220.238 180.596 219.998 181.738C219.951 181.963 219.924 182.215 220.044 182.41C220.267 182.772 220.801 182.692 221.196 182.547C222.038 182.239 222.849 181.842 223.612 181.366C223.659 181.337 223.71 181.303 223.726 181.249ZM256.213 152.386C256.176 152.228 255.992 152.16 255.834 152.153C255.353 152.131 254.85 152.535 254.88 153.027C254.911 153.518 255.625 153.827 255.924 153.441C256.014 153.324 256.052 153.175 256.088 153.032C256.123 152.889 256.159 152.746 256.195 152.604C256.212 152.532 256.23 152.457 256.213 152.386Z" fill="#00160A"/>
</g>
<g clip-path="url(#clip1_262_376)">
<path fill-rule="evenodd" clip-rule="evenodd" d="M70.0048 57.0643C70.0127 57.3546 70.0516 57.5326 69.9799 57.6214C69.3313 58.4255 68.6633 59.2141 68.001 60.0072C68.0559 58.8108 67.7673 57.4608 68.2262 56.4452C70.0322 52.4492 70.9866 48.3396 71.1167 43.959C71.2866 38.2365 69.5535 33.3071 65.7485 29.1022C65.1623 28.4543 64.7099 28.4141 64.0877 29.2425C63.1995 30.4249 62.1102 31.459 61.0836 32.5341C59.0744 34.6382 56.0559 35.2346 53.9614 33.9626C52.6188 33.1472 51.4316 29.2991 51.8073 27.4084C52.6814 23.01 58.4793 21.7883 61.8466 22.9075C63.2026 23.3582 62.9447 22.8868 62.8698 22.0653C62.5161 18.1836 60.3969 15.3905 57.3051 13.3297C54.0005 11.1271 50.4061 10.5894 46.55 11.979C45.2135 12.4606 44.0613 12.1589 43.5014 10.5739C42.8907 8.84514 44.499 6.55629 46.2381 6.50589C48.5896 6.43781 51.0534 6.68258 53.2937 7.36099C58.7269 9.00618 62.5407 12.5384 64.3218 18.0655C64.4492 18.4609 64.6438 18.8548 64.6703 19.2594C64.8963 22.708 66.2909 25.5331 68.2943 28.3866C74.237 36.8511 74.5009 46.1198 70.8989 55.6768C70.7255 56.1369 70.2952 56.5016 70.0048 57.0643ZM54.3306 28.4394C54.0786 30.6203 56.3244 32.9738 57.8513 31.8873C59.6144 30.6326 60.7745 28.5162 62.1514 26.7392C62.2105 26.6629 61.8584 26.1922 61.629 25.9799C59.4012 23.9191 56.0277 24.914 54.3306 28.4394Z" fill="#FFB61D"/>
</g>
<path fill-rule="evenodd" clip-rule="evenodd" d="M311.556 317.453C311.329 317.635 311.211 317.774 311.097 317.77C310.064 317.74 309.032 317.685 308 317.637C308.986 316.957 309.886 315.911 310.973 315.662C315.247 314.683 319.097 312.958 322.664 310.412C327.324 307.086 330.201 302.724 331.249 297.151C331.41 296.292 331.168 295.908 330.132 295.913C328.654 295.921 327.171 295.679 325.694 295.512C322.803 295.184 320.503 293.141 320.249 290.704C320.086 289.142 322.432 285.869 324.165 285.024C328.197 283.06 332.676 286.938 333.822 290.297C334.283 291.649 334.502 291.159 335.111 290.602C337.988 287.973 338.931 284.596 338.702 280.887C338.457 276.923 336.711 273.736 333.272 271.505C332.081 270.732 331.624 269.632 332.547 268.228C333.555 266.696 336.35 266.592 337.442 267.947C338.919 269.778 340.214 271.888 341.029 274.083C343.005 279.404 342.499 284.578 339.175 289.339C338.937 289.68 338.741 290.073 338.435 290.339C335.825 292.605 334.419 295.424 333.358 298.745C330.212 308.598 322.991 314.414 313.201 317.326C312.73 317.466 312.179 317.344 311.556 317.453ZM324.87 287.657C322.981 288.776 322.465 291.988 324.254 292.547C326.32 293.192 328.707 292.835 330.955 292.857C331.051 292.858 331.213 292.293 331.243 291.982C331.537 288.961 328.704 286.877 324.87 287.657Z" fill="#FFB61D"/>
<path fill-rule="evenodd" clip-rule="evenodd" d="M316.799 27.3899C316.688 27.1217 316.588 26.9695 316.623 26.8609C316.94 25.8776 317.281 24.902 317.614 23.9241C317.992 25.0606 318.746 26.2173 318.682 27.3299C318.429 31.7078 319.012 35.8863 320.461 40.0221C322.355 45.4249 325.741 49.4048 330.801 51.9654C331.58 52.36 332.017 52.2353 332.301 51.2389C332.706 49.8166 333.352 48.4606 333.924 47.0888C335.045 44.4042 337.649 42.7649 340.061 43.2011C341.606 43.4808 344.094 46.6471 344.422 48.5467C345.183 52.9661 340.209 56.1858 336.665 56.3487C335.237 56.4143 335.647 56.7619 336.011 57.5018C337.734 60.9985 340.714 62.8458 344.339 63.6606C348.214 64.5316 351.762 63.7444 354.863 61.0643C355.938 60.1354 357.122 60.0038 358.213 61.2826C359.403 62.6774 358.722 65.3908 357.117 66.0615C354.946 66.9684 352.559 67.6235 350.224 67.7937C344.562 68.2064 339.735 66.277 336.091 61.7563C335.83 61.4329 335.507 61.135 335.337 60.7667C333.889 57.6286 331.574 55.4916 328.681 53.5465C320.098 47.7762 316.527 39.2188 316.462 29.0058C316.459 28.514 316.73 28.0193 316.799 27.3899ZM341.697 48.4893C341.15 46.3631 338.209 44.9716 337.174 46.5334C335.978 48.3369 335.654 50.7286 335.006 52.8812C334.978 52.9736 335.476 53.2867 335.766 53.4026C338.585 54.5274 341.377 52.3888 341.697 48.4893Z" fill="#FFB61D"/>
<path fill-rule="evenodd" clip-rule="evenodd" d="M220.304 478.443C220.019 478.501 219.85 478.57 219.75 478.514C218.847 478.013 217.956 477.49 217.061 476.973C218.249 476.822 219.53 476.307 220.609 476.585C224.855 477.68 229.068 477.917 233.406 477.295C239.073 476.483 243.633 473.931 247.124 469.463C247.662 468.774 247.624 468.322 246.702 467.85C245.385 467.178 244.179 466.282 242.944 465.454C240.527 463.835 239.423 460.963 240.317 458.682C240.891 457.219 244.479 455.391 246.406 455.437C250.889 455.545 253.086 461.049 252.559 464.558C252.347 465.971 252.768 465.636 253.564 465.422C257.328 464.409 259.717 461.843 261.218 458.444C262.823 454.811 262.737 451.177 260.708 447.616C260.004 446.382 260.104 445.195 261.57 444.372C263.169 443.474 265.699 444.667 266.047 446.372C266.516 448.677 266.697 451.146 266.412 453.47C265.721 459.104 262.894 463.466 257.754 466.167C257.386 466.361 257.031 466.62 256.637 466.715C253.278 467.528 250.733 469.386 248.265 471.848C240.943 479.152 231.856 480.999 221.824 479.087C221.341 478.995 220.908 478.633 220.304 478.443ZM245.822 458.1C243.63 458.225 241.696 460.84 243.028 462.159C244.566 463.681 246.85 464.462 248.836 465.514C248.922 465.559 249.325 465.132 249.495 464.869C251.144 462.322 249.586 459.168 245.822 458.1Z" fill="#FFB61D"/>
<defs>
<clipPath id="clip0_262_376">
<rect width="320" height="327" fill="white" transform="translate(0 57)"/>
</clipPath>
<clipPath id="clip1_262_376">
<rect width="36" height="52" fill="white" transform="translate(26.408 29.6083) rotate(-52.7824)"/>
</clipPath>
</defs>
</svg>
