<svg width="407" height="276" viewBox="0 0 407 276" fill="none" xmlns="http://www.w3.org/2000/svg">
<g clip-path="url(#clip0_233_1661)">
<path fill-rule="evenodd" clip-rule="evenodd" d="M121.679 54.9559C121.118 60.428 123.168 66.1095 127.093 69.9654C128.492 69.1217 129.387 67.5017 129.356 65.8684C130.827 68.285 130.003 71.5627 128.174 73.7219C126.345 75.8805 123.721 77.1751 121.175 78.4104C119.716 79.1187 118.201 79.8404 116.58 79.8892C114.106 79.963 111.89 78.4767 109.868 77.0513L103.935 72.8707C107 78.5871 113.978 81.9165 120.353 80.7038C124.787 86.9194 127.502 94.3464 128.121 101.955L126.929 99.7542C126.918 99.7275 126.903 99.7008 126.885 99.674L126.929 99.7542C127.1 100.176 126.43 100.643 125.979 100.425C125.5 100.192 125.318 99.6154 125.177 99.1017C123.432 92.7764 120.304 86.8363 116.075 81.8166L122.478 95.3737C123.846 98.2702 125.311 101.289 127.89 103.191C130.12 101.168 129.356 97.5416 128.296 94.7235C126.32 89.4684 123.924 84.3709 121.138 79.4958C121.737 78.3825 123.047 78.0246 124.314 77.6789H124.315V77.6783C124.608 77.5987 124.899 77.5191 125.178 77.4314C127.969 76.5516 130.25 74.2013 131.044 71.3855C131.839 68.5697 131.122 65.3745 129.201 63.1677C128.759 64.9602 128.087 66.6964 127.207 68.3193C124.575 65.0201 123.046 60.8562 122.919 56.6383C122.858 54.6308 122.654 51.9781 120.691 51.5504C121.008 53.8853 119.444 56.3348 117.191 57.0297C114.938 57.7245 112.264 56.5821 111.209 54.4743C108.38 48.8167 105.494 43.0866 101.264 38.3818C97.0342 33.677 91.2228 30.0414 84.8981 29.8058C78.0506 29.5508 71.5814 33.2973 66.7782 38.1811C68.4841 34.4165 68.1315 29.7932 65.8744 26.3305C63.6174 22.8678 59.5283 20.6767 55.3933 20.7144C54.3444 20.724 53.2389 20.8465 52.1305 20.9693C48.9668 21.3199 45.7802 21.6731 43.8231 19.4084C42.4408 17.809 42.4149 15.6409 42.3887 13.4527C42.3766 12.441 42.3645 11.4251 42.2182 10.4589C41.6504 6.70818 38.8166 3.50782 35.3271 2.01467C31.8376 0.521528 27.8011 0.608541 24.181 1.74978C23.0872 2.0946 21.9723 2.56803 21.2603 3.4666C19.6413 5.50972 20.9313 8.66029 22.9638 10.2931C24.0336 11.1524 25.2632 11.7709 26.4937 12.3898C27.6013 12.9469 28.7097 13.5045 29.703 14.2383C31.8001 15.7877 33.333 18.7538 31.9735 20.9778C29.9437 24.2983 33.0925 28.768 36.8576 29.7594C39.97 30.579 43.2001 29.8769 46.3846 29.1848C47.0525 29.0396 47.7183 28.8949 48.3806 28.7647C52.201 28.0139 56.6393 27.921 59.4514 30.6123C62.8445 33.8596 62.1848 39.3493 61.2692 43.9542C61.1586 44.5106 61.0246 45.109 60.598 45.4832C60.2209 45.814 59.6939 45.8985 59.1972 45.9695L40.2238 48.6836C38.7721 48.8913 38.2793 50.9892 39.1324 52.1813C39.9854 53.3734 41.5824 53.7673 43.0482 53.8137C45.2894 53.8845 47.4763 53.3552 49.6674 52.8249C50.7788 52.5559 51.8913 52.2866 53.0125 52.0953C56.344 51.5268 60.2109 51.8396 62.4293 54.3876C65.9963 58.4848 72.7663 59.2874 77.1937 56.1384C80.6153 62.2554 86.5702 66.1491 92.5514 70.0595C97.9366 73.5813 103.343 77.1164 106.942 82.3012C110.908 88.0164 112.222 95.1023 113.442 101.95C114.865 101.93 115.922 100.137 115.249 98.8832L113.912 100.646C113.418 89.8531 107.902 79.393 99.2727 72.8852C97.1354 71.2734 94.7922 69.8602 92.4537 68.4506C87.3151 65.353 82.2008 62.2694 79.3553 57.1239C79.0995 56.6605 78.8605 56.1697 78.8192 55.6419C78.7669 54.974 79.0332 54.3302 79.2902 53.7087L79.3268 53.62C80.3524 51.1335 81.0688 48.4051 80.5652 45.7632C80.0612 43.1212 78.0712 40.623 75.4095 40.2254C79.9146 43.1053 80.8385 50.2524 77.213 54.1816C73.5876 58.1108 66.3846 57.7693 63.1477 53.5148C60.5535 50.1051 55.3661 50.5225 51.1907 51.4896C47.0152 52.4565 42.0982 53.4686 38.8726 50.6479C45.7734 48.7517 52.8744 47.5842 60.0194 47.171C61.7215 47.0726 62.3892 44.9507 62.6184 43.2623C62.9708 40.6669 63.3233 38.0297 62.9372 35.439C62.5511 32.8484 61.3189 30.2641 59.1191 28.8401C56.4775 27.1303 53.0673 27.3953 49.9371 27.7226L41.6185 28.5924C39.8261 28.7798 37.984 28.9635 36.2462 28.4866C34.5084 28.0096 32.8732 26.7148 32.54 24.9448C32.3296 23.8269 32.6498 22.7261 32.9726 21.6163C33.2051 20.8173 33.4389 20.0137 33.477 19.1957C33.5855 16.8665 32.0799 14.7323 30.2503 13.2852C29.1294 12.3987 27.8803 11.701 26.6301 11.0027C25.8398 10.5613 25.049 10.1196 24.2898 9.62978C22.8608 8.70776 21.3946 7.21794 21.7919 5.56511C22.046 4.5081 23.0032 3.77536 23.9654 3.26844C27.2144 1.55692 31.2754 1.47998 34.5869 3.0672C37.8985 4.65443 40.3806 7.86744 41.0787 11.4709C41.251 12.3598 41.3293 13.2882 41.4074 14.2147C41.5881 16.358 41.7679 18.4912 43.1079 20.1015C44.7085 22.025 47.4749 22.5096 49.9754 22.3905C50.8327 22.3497 51.69 22.2537 52.5466 22.1579C54.1882 21.9741 55.8273 21.7906 57.4595 21.9961C62.9477 22.6868 67.2718 28.3935 66.4491 33.8601C66.4036 34.1623 66.3451 34.4673 66.2863 34.7732C66.0769 35.8637 65.8655 36.9647 66.2382 37.989C66.7154 39.3005 68.803 39.999 69.4644 38.7699C72.4282 33.2623 79.2256 30.4875 85.4405 31.2149C91.656 31.9423 97.2174 35.6821 101.298 40.4232C105.378 45.1643 108.154 50.8695 110.686 56.5884C111.577 58.6029 114.232 59.3321 116.353 58.7331C118.474 58.1336 120.156 56.5491 121.679 54.9559ZM110.541 64.5546C110.601 64.5459 110.741 64.8196 110.952 65.2321C111.471 66.2467 112.419 68.1026 113.671 68.6673C113.615 69.1932 112.787 68.9114 112.443 68.5099C111.465 67.3675 110.427 66.0538 110.541 64.5546ZM113.494 73.5691C114.139 74.5151 110.273 74.9851 108.987 74.1606C109.214 74.117 109.512 74.1403 109.843 74.1658C110.234 74.196 110.671 74.2303 111.086 74.1606C111.694 74.0583 112.28 73.8718 112.723 73.7312C113.153 73.5947 113.447 73.5011 113.494 73.5691ZM112.566 70.0555C111.026 70.3193 109.135 68.2705 109.135 66.3437C109.579 67.7679 111.155 68.898 112.026 69.5226C112.469 69.8405 112.73 70.027 112.566 70.0555ZM118.08 78.1129C116.03 78.1129 115.101 74.658 116.03 74.436C116.253 74.3355 116.263 74.6446 116.279 75.1019C116.295 75.5819 116.317 76.2257 116.596 76.7265C116.907 77.2838 117.564 77.6556 117.948 77.8729C118.238 78.0368 118.371 78.1129 118.08 78.1129ZM120.364 73.4087C120.815 73.6563 121.225 74.0403 121.341 74.5406C121.458 75.0409 121.178 75.6469 120.675 75.7515C120.518 75.5197 120.603 75.3727 120.693 75.2175C120.825 74.9898 120.968 74.7446 120.364 74.1891C120.11 73.9549 119.815 73.8532 119.607 73.7818C119.447 73.7271 119.34 73.69 119.344 73.6249C119.37 73.2088 119.999 73.2077 120.364 73.4087ZM116.527 68.9067C116.425 68.977 116.356 69.0258 116.416 69.0816C116.601 69.2536 116.819 69.3355 117.037 69.2106C117.203 69.1153 117.287 68.9218 117.326 68.7347C117.545 67.6877 116.439 66.6069 115.397 66.8486C115.489 67.0927 115.666 67.1705 115.881 67.2653C116.129 67.3745 116.428 67.5058 116.705 67.9393C117.078 68.5238 116.736 68.762 116.527 68.9067ZM116.177 78.7736C114.97 78.422 113.776 75.5731 114.418 75.3576C114.819 75.2228 114.817 75.2443 114.793 75.4697C114.772 75.6766 114.733 76.0537 114.97 76.6382C115.263 77.3645 115.674 77.9537 115.935 78.3285C116.114 78.5859 116.224 78.7422 116.177 78.7736ZM392.659 14.0931C390.067 14.4112 388.025 16.5 386.736 18.7698C386.114 19.8671 385.615 21.0283 385.117 22.1894V22.1898V22.1902C384.584 23.4304 384.052 24.6705 383.369 25.8321C380.108 31.3744 373.912 34.4039 367.975 36.8796C366.951 37.3065 365.157 37.1057 365.477 36.044C375.198 34.2006 383.566 26.509 386.216 16.9821C386.529 15.8598 385.068 14.9125 383.941 15.2093C382.921 15.4778 382.195 16.3279 381.539 17.1713L381.335 17.4367C375.92 24.475 368.147 30.4255 359.271 30.8096C358.643 30.8368 357.744 30.4538 358.021 29.8893C364.594 29.6691 370.791 26.4266 375.672 22.0209C380.553 17.6152 384.276 12.093 387.758 6.51679C388.297 5.65423 389.59 5.83858 390.553 6.16675C393.507 7.17367 396.342 8.53194 398.978 10.2037C400.393 11.1011 399.272 13.4958 397.663 13.9653C396.739 14.2351 395.773 14.1697 394.804 14.1039C394.086 14.0552 393.366 14.0063 392.659 14.0931ZM390.134 8.60091L389.907 8.53217C389.215 8.33403 388.443 8.22404 387.886 8.65303C387.671 8.81927 387.517 9.04878 387.375 9.283L385.525 12.4004C386.496 12.6249 387.426 13.0225 388.26 13.5688C388.94 14.0152 389.879 14.0324 390.575 13.6111C391.273 13.19 391.693 12.3517 391.613 11.5417C391.584 11.2396 392.079 11.1575 392.286 11.3797C392.441 11.5457 392.487 11.7735 392.532 12.0004V12.0007V12.001L392.533 12.0017C392.548 12.0781 392.564 12.1544 392.584 12.2282C392.662 12.5216 392.901 12.8375 393.199 12.7772C393.501 12.4905 393.666 12.0659 393.637 11.6508C393.745 11.2224 394.413 11.6043 394.517 12.0338C394.62 12.4632 394.815 13.074 395.241 12.9593C395.869 12.8043 396.066 11.931 395.76 11.3618C395.455 10.7928 394.84 10.471 394.253 10.1994C392.916 9.58021 391.539 9.04593 390.134 8.60091ZM384.511 13.669C385.477 14.6403 386.882 15.1571 388.248 15.0432C387.411 13.9898 385.987 13.4396 384.658 13.6432L384.511 13.669ZM315.357 110.415C310.71 111.729 305.46 110.693 301.66 107.712C298.221 109.514 294.666 111.261 290.824 111.824C286.982 112.388 282.752 111.597 279.975 108.885C280.434 109.878 280.901 110.909 280.916 112.004C280.93 113.098 280.364 114.28 279.327 114.631C277.615 115.211 276.119 113.382 275.23 111.809C274.744 113.02 275.246 114.383 275.734 115.708C276.29 117.22 276.829 118.682 275.861 119.814C274.854 120.993 272.942 120.691 271.555 119.995C266.361 117.392 263.92 110.837 265.046 105.139C266.171 99.441 270.27 94.6694 275.153 91.5184C271.838 89.0908 269.413 85.476 268.425 81.49C269.1 82.3604 269.602 83.3715 270.102 84.3831C270.603 85.3947 271.103 86.4063 271.778 87.2767C272.419 88.103 273.234 88.788 274.05 89.4737C274.865 90.1587 275.68 90.8444 276.321 91.67C276.484 91.881 276.625 92.2354 276.393 92.3673C271.713 95.0239 267.71 99.2568 266.382 104.469C265.054 109.682 266.901 115.834 271.484 118.655C272.292 119.152 273.255 119.551 274.173 119.308C275.09 119.066 275.778 117.916 275.251 117.127C273.765 114.903 273.584 111.871 274.796 109.486L278.636 113.79C279.52 113.562 279.738 112.375 279.503 111.495C279.428 111.216 279.326 110.941 279.224 110.666V110.665C279.005 110.073 278.786 109.483 278.845 108.863C278.931 107.956 280.116 107.145 280.742 107.808C283.239 110.453 287.251 111.203 290.844 110.621C294.436 110.039 297.727 108.315 300.945 106.617L304.743 104.613C304.469 105.708 303.581 106.627 302.496 106.939C306.162 109.571 311.065 110.399 315.393 109.115C316.139 108.894 316.904 108.588 317.387 107.979C317.871 107.37 317.949 106.38 317.365 105.867C317.293 105.805 317.214 105.75 317.135 105.695V105.694C316.978 105.587 316.823 105.479 316.733 105.315C316.599 105.069 316.808 104.653 317.066 104.766C318.528 104.664 319.43 106.628 318.834 107.966C318.238 109.304 316.768 110.017 315.357 110.415ZM289.408 90.9885C288.573 90.72 287.636 91.2958 287.274 92.0936C286.911 92.8914 287.014 93.8292 287.288 94.6619C287.375 93.7229 287.495 93.0152 287.85 92.3975C288.004 92.1314 288.479 91.8804 288.896 91.6596C289.435 91.3743 289.879 91.1395 289.408 90.9885ZM288.7 88.6288C289.918 88.3255 291.294 88.7938 292.074 89.7776C292.853 90.7613 292.994 92.2069 292.419 93.3226C292.281 93.1558 292.248 92.8536 292.208 92.4748C292.087 91.3557 291.893 89.5672 288.7 88.6288ZM287.644 97.2755C287.258 97.7566 288.601 99.0273 290.701 98.1511C291.089 97.9884 290.772 97.9698 290.271 97.9408C289.815 97.914 289.207 97.8786 288.844 97.7165C288.538 97.5799 288.38 97.3609 288.263 97.1964C288.088 96.9536 288 96.8315 287.644 97.2755ZM291.898 98.8844C293.243 98.2144 292.399 100.178 289.585 99.9373C289.331 99.9158 288.999 99.8181 289.002 99.5625C289.003 99.4724 289.241 99.4515 289.611 99.4195C290.186 99.3696 291.08 99.2917 291.898 98.8844ZM283.597 95.1564C284.103 95.6503 284.84 95.6636 285.332 95.5683C285.632 95.5108 285.779 95.2429 285.504 95.1564C285.44 95.136 285.333 95.1192 285.205 95.0988C284.913 95.0529 284.509 94.9896 284.238 94.8257C284.064 94.7212 283.965 94.3632 283.88 94.0564C283.793 93.7409 283.72 93.4794 283.597 93.602C283.353 93.8443 283.09 94.6619 283.597 95.1564ZM284.045 96.8281C284.291 97.2011 283.357 97.0727 283.156 96.8281C282.956 96.5834 282.758 95.6636 283.094 95.6636C283.192 95.6636 283.225 95.8083 283.265 95.982C283.302 96.1424 283.344 96.3272 283.448 96.4446C283.65 96.6729 283.784 96.7072 283.884 96.7316C283.951 96.7484 284.002 96.7612 284.045 96.8281ZM326.036 94.9774C326.539 95.982 325.658 97.1087 324.809 97.8455C321.358 100.84 317.233 103.055 312.829 104.279C317.575 104.311 322.3 102.281 325.542 98.817C327.051 97.2052 328.015 94.179 326.069 93.1372C328.379 92.372 331.114 90.7746 330.762 88.3685C330.635 87.5085 330.109 86.7683 329.599 86.0652L329.296 85.6492C326.143 81.343 322.287 76.7899 317 76.4685C320.043 74.7632 323.668 77.1856 326.35 79.4157L327.136 80.0664C330.687 82.9839 334.403 85.7602 338.615 87.5841C343.14 89.5434 348.342 90.3261 353.035 88.8153L366.168 84.5853C368.703 83.7474 371.688 82.1727 371.457 79.5412C371.331 78.0914 370.007 76.8451 368.552 76.8044C367.096 76.7643 365.705 77.9351 365.498 79.3756L365.213 77.1368C364.509 76.5348 363.385 77.0502 362.819 77.7829C362.605 78.06 362.426 78.3663 362.248 78.6719C361.955 79.1739 361.663 79.6736 361.217 80.038C359.667 81.3052 357.607 80.2634 355.758 79.1693L354.605 78.4802C351.317 76.5505 347.422 76.2547 343.575 75.963C342.744 75.8997 341.916 75.8369 341.096 75.7579C335.734 75.2402 330.448 73.9346 325.462 71.8962C330.035 75.6435 336.01 76.2727 342.037 76.9072C345.073 77.2268 348.124 77.5481 351.015 78.2704C353.308 78.8433 355.843 80.0112 356.405 82.3052C357.222 85.637 353.262 88.2174 349.845 88.5289C344.255 89.0385 338.808 86.6625 334.062 83.6306L333.527 83.2849C331.81 82.1582 330.145 80.9456 328.481 79.7341C325.428 77.5104 322.378 75.289 319.008 73.6011C322.488 73.776 325.03 71.2571 327.627 68.6848C329.027 67.2972 330.443 65.8934 332.032 64.8887C336.699 61.9353 342.658 62.6075 348.151 63.5564L349.014 63.7081C347.722 57.4549 344.566 51.5986 340.054 47.0786L347.808 62.3135C339.644 59.5954 329.853 62.9922 325.13 70.181C328.775 57.8871 337.447 47.1632 348.71 41.0214C352.339 42.3782 355.405 44.7993 358.465 47.2162L358.467 47.218L358.468 47.2184C359.455 47.998 360.441 48.7771 361.446 49.5198C365.566 52.5661 370.577 55.1474 375.622 54.2407C379.249 53.5887 382.302 51.2311 385.012 48.7099L385.449 48.2999C388.678 45.2409 391.678 41.9421 394.419 38.4399C397.418 34.6076 401.104 30.0574 405.938 30.6286C406.793 30.7294 407.622 30.9955 408.449 31.2607C409.592 31.6272 410.729 31.9919 411.915 31.9156C413.959 31.7842 415.837 29.0425 414.233 27.7702L406 21.2397C405.195 20.6015 404.267 19.9263 403.248 20.0585C402.524 20.1524 401.923 20.6405 401.363 21.1092L399.514 22.6606C395.204 26.2887 390.945 29.9924 387.205 34.1995C386.963 34.4722 386.72 34.7487 386.475 35.0272C383.443 38.4699 380.153 42.206 375.65 42.4752C371.256 42.7379 367.564 39.5684 364.19 36.6718C364.02 36.5262 363.852 36.3814 363.684 36.2377L363.055 35.7051C359.477 32.7041 355.651 29.9982 351.628 27.6244C348.073 25.5262 344.131 23.6363 340.011 23.9228C335.193 24.258 331.128 27.4781 327.646 30.8617L327.12 31.3782C325.412 33.0552 323.37 34.8671 321.021 34.5089L320.834 34.4841C318.467 34.2146 316.248 35.682 314.465 37.3245L314.187 37.5851C309.524 42.0311 306.089 47.7507 304.356 53.9542C294.184 51.232 283.03 52.3546 273.605 57.0491C271.23 58.2321 268.914 59.6744 267.261 61.7487C264.901 64.7104 264.208 68.4663 263.51 72.2548V72.2553C263.001 75.0194 262.488 77.8015 261.322 80.3058C260.976 81.0472 260.571 81.7712 260.167 82.4941C259.22 84.1878 258.274 85.8787 258.1 87.7869C257.851 90.5097 260.395 93.6689 262.918 92.6108C265.444 92.2133 266.781 88.6532 265.14 86.6922C266.163 87.4243 267.588 87.5498 268.723 87.0083L266.087 82.1443C270.534 79.7782 274.481 76.4778 277.596 72.5203C278.87 70.9021 281.237 70.493 283.237 70.9898C284.951 71.4157 286.462 72.382 287.91 73.4099L288.629 73.9264C287.791 74.536 288.274 76.1559 289.31 76.2071C288.642 73.4883 291.362 70.633 294.151 70.898C296.94 71.1624 299.052 74.1269 298.687 76.9026C297.214 80.5487 293.571 82.6289 289.967 84.6864C286.057 86.9188 282.194 89.1245 281.203 93.2737C280.205 97.4544 283.431 102.136 287.695 102.695C291.959 103.254 296.283 99.5619 296.398 95.2656C296.398 95.2656 297.029 95.3307 297.252 94.6619C297.604 93.6084 297.938 92.4411 298.268 91.2842C298.889 89.1093 299.499 86.9711 300.204 85.6939C302.181 82.1123 305.861 79.2768 309.952 79.178C311.252 79.1466 312.543 78.9543 313.833 78.7614C315.48 78.5156 317.125 78.2704 318.784 78.3616C321.739 78.5243 324.98 80.2541 325.406 83.182C322.128 82.5458 318.708 82.6533 315.476 83.4935L326.917 84.8537C329.429 85.1524 329.9 89.0396 328.109 90.8264C326.421 92.5102 323.848 92.7874 321.441 92.8943L321.005 92.9123C321.426 93.7706 322.472 93.8589 323.519 93.9478C324.564 94.0367 325.609 94.125 326.036 94.9774ZM386.896 45.0137C383.349 48.9492 379.203 53.1789 373.906 53.3763C369.275 53.5489 365.224 50.5662 361.477 47.8074L361.2 47.6038L360.306 46.9504C356.119 43.9157 351.783 41.087 347.319 38.4781C343.862 36.4579 339.885 34.5063 336.008 35.5084L342.146 37.4391C341.111 37.9939 340.742 39.5035 341.405 40.4726C341.547 39.0217 343.226 38.0992 344.668 38.326C346.108 38.5529 347.28 39.6101 348.173 40.7632C340.435 43.7287 333.851 49.5995 330.024 56.9465C329.313 58.3129 328.693 59.7261 328.075 61.1392C327.236 63.0538 326.398 64.9678 325.33 66.7621C323.474 69.8812 320.727 72.7179 317.192 73.5441C316.697 73.6597 316.189 73.7359 315.682 73.812C314.666 73.9636 313.652 74.1153 312.749 74.5859C312.7 74.6115 312.651 74.6376 312.6 74.6644L312.505 74.7149L312.434 74.7527C311.373 75.3186 310.064 76.0171 309.41 75.0961C308.339 73.5877 306.63 72.5464 304.797 72.2855C307.828 62.1113 315.624 53.4651 325.436 49.3976C325.991 49.1674 325.778 48.337 325.475 47.8182L321.012 40.1866C320.6 39.4817 321.082 38.5231 321.809 38.1491C322.535 37.7751 323.401 37.8313 324.211 37.9322C329.374 38.5747 334.344 40.6916 338.383 43.9682C339.029 44.4922 340.088 45.0069 340.56 44.3224C335.953 39.6784 329.361 37.5254 322.876 36.6576C328.482 36.1099 334.28 37.8744 338.629 41.4521L338.841 41.6253C339.881 42.4684 341.138 43.3645 342.337 42.8476C337.479 38.1912 330.837 35.443 324.107 35.3056C325.491 34.2766 326.785 33.1328 328.077 31.989L328.078 31.9888L328.078 31.9884C329.392 30.826 330.706 29.6637 332.116 28.6218C334.913 26.5546 338.257 24.9406 341.73 25.1433C344.252 25.2905 346.617 26.3779 348.847 27.5616C353.563 30.064 358.004 33.0844 362.063 36.551C362.35 36.7965 362.64 37.0455 362.93 37.2962C366.789 40.6186 370.998 44.2433 375.984 43.775C379.024 43.4895 381.718 41.6539 383.858 39.4764C385.042 38.2718 386.098 36.9524 387.154 35.6327C388.007 34.567 388.86 33.501 389.781 32.4949C391.109 31.0439 392.647 29.6793 394.535 29.1253C396.423 28.5713 398.725 29.03 399.846 30.646L386.896 45.0137ZM264.697 71.9677C265.382 68.2281 266.058 64.5297 268.586 61.8074C269.825 60.4739 271.409 59.514 273.022 58.6709C281.273 54.358 290.896 52.7163 300.112 54.0491C302.367 54.3753 305.161 55.6398 305.125 57.7797C305.112 57.9105 305.099 58.0413 305.087 58.1724C305.111 58.0384 305.123 57.9075 305.125 57.7797C306.044 48.8323 311.259 40.4147 318.878 35.6211C319.553 40.3296 321.617 44.8305 324.745 48.4157C316.455 51.9052 309.572 58.6145 305.875 66.8097L305.816 66.9387C304.766 69.2362 303.1 72.0572 300.668 71.4854L301.872 64.0503C301.983 63.3681 302.084 62.6302 301.761 62.0195C301.4 61.3385 300.628 61.0242 299.875 60.7976L299.611 60.7209C295.252 59.4879 290.362 58.3036 286.381 60.4646C284.275 61.6075 282.763 63.5239 281.349 65.4907L280.299 66.9643C277.808 70.4401 275.019 73.7033 271.972 76.705C270.745 77.9142 269.418 79.1158 267.776 79.6364C266.133 80.1571 264.092 79.8067 263.117 78.3866C263.895 76.357 264.297 74.1554 264.697 71.9677ZM291.563 100.94C288.974 101.899 286.868 101.426 284.848 100.25C283.984 99.7473 283.17 99.1 282.683 98.2266C281.952 96.917 282.062 95.2912 282.483 93.8519C283.113 91.7008 284.401 89.7473 286.13 88.3203C287.326 87.3337 288.703 86.6091 290.079 85.8857V85.8851L290.081 85.8845C290.555 85.6347 291.03 85.3854 291.497 85.1251C296.062 82.5801 300 78.9206 302.872 74.5551C303.445 73.6836 304.653 73.4012 305.664 73.6586C306.675 73.916 307.518 74.608 308.247 75.3541C308.769 75.8875 309.156 76.9491 308.46 77.2187C303.585 79.1048 299.659 83.2901 298.091 88.2726C298.048 88.4092 298.007 88.5463 297.965 88.684C297.727 89.4719 297.486 90.2697 296.974 90.9077C296.374 91.6567 295.168 94.2941 295.783 95.5445C295.783 95.5445 294.151 99.9803 291.563 100.94ZM298.325 61.4658C299.116 61.6424 299.975 61.8969 300.409 62.5802C300.763 63.1398 300.741 63.851 300.685 64.5105C300.465 67.1212 299.916 69.7034 299.055 72.1775C298.909 72.5958 298.46 73.0984 298.132 72.8004C297.761 70.9276 296.048 69.4047 294.144 69.2536C292.239 69.1025 290.307 70.3361 289.645 72.1269C289.514 72.4808 289.054 72.6121 288.691 72.5145C288.417 72.4413 288.184 72.2763 287.961 72.0979L287.74 71.9183C285.471 70.0764 282.399 69.2588 279.514 69.7278C281.052 67.1427 283.001 64.8033 285.268 62.8248C286.196 62.0154 287.201 61.2519 288.373 60.8725C289.475 60.5152 290.66 60.5187 291.817 60.5773C294.007 60.6889 296.186 60.9864 298.325 61.4658ZM401.789 28.5644C400.686 27.3894 399.174 26.6032 397.577 26.3797L399.389 24.0797C399.964 23.3587 400.635 22.619 401.542 22.5052C402.195 22.4232 402.838 22.6911 403.433 22.9744C405.423 23.9222 407.299 25.1094 409.008 26.5021C409.578 26.9669 410.152 27.4857 410.399 28.1781C410.647 28.8704 410.447 29.7766 409.784 30.0933C409.12 30.41 408.162 29.7164 408.435 29.0333L408.461 28.9566C408.573 28.5683 408.397 28.1095 408.046 27.9051L407.404 29.1343C407.345 29.2417 407.276 29.3457 407.171 29.4041C406.742 29.6406 406.394 28.9755 406.366 28.4874L406.362 28.4197C406.316 27.9391 406.063 27.326 405.621 27.4758C405.562 28.2991 404.972 29.0597 404.19 29.3236C403.407 29.5874 402.477 29.3389 401.931 28.7199L401.789 28.5644ZM263.63 89.2389L262.855 86.3029C262.487 86.2 262.128 86.5684 262.076 86.9472C262.041 87.1994 262.097 87.4487 262.172 87.6951L262.292 88.0617C262.69 89.3081 262.68 90.6805 262.264 91.9211C261.496 90.3505 261.095 88.6027 261.103 86.8549C260.602 86.58 260.262 87.4179 260.298 87.9873L260.514 91.3859C259.464 90.4411 259.094 88.9071 259.274 87.5062C259.453 86.1059 260.111 84.8125 260.851 83.6097C261.237 82.9816 261.665 82.3523 262.279 81.9444C262.894 81.5365 263.74 81.397 264.367 81.784C264.888 82.1059 265.13 82.6777 265.376 83.257C265.561 83.6951 265.749 84.1379 266.06 84.4807C266.171 84.6021 266.299 84.7259 266.431 84.8526C266.938 85.3412 267.479 85.8636 267.125 86.39C266.033 85.7201 265.034 84.8985 264.166 83.9566C263.852 85.9019 264.14 87.9408 264.98 89.7235C265.152 90.0884 264.584 90.4359 264.226 90.2494C263.869 90.0623 263.733 89.6288 263.63 89.2389ZM368.51 79.6335C369.07 79.1391 369.581 78.6864 369.828 78.8096C370.549 79.1693 368.591 80.748 367.554 81.1942C367.629 81.6945 368.356 81.4702 368.78 81.1942C369.204 80.9182 370.392 80.6207 370.16 80.9212C368.711 82.7945 365.912 84.2831 363.326 84.5742C362.277 84.6922 360.981 84.4127 360.647 83.4121C360.342 82.4999 361.021 81.5992 361.738 80.9212L361.911 80.7631C362.212 80.4935 362.697 80.2303 362.974 80.5243C363.714 81.3058 365.006 80.6667 365.857 80.0089C365.857 80.0089 368.069 77.8753 368.441 78.0124C368.81 78.1478 367.337 80.5533 367.337 80.5533C367.702 80.3482 368.118 79.9804 368.51 79.6341L368.51 79.6335ZM357.919 81.6138C358.183 81.5533 358.46 81.6603 358.688 81.8067C359.52 82.3401 359.917 83.465 359.604 84.4017C359.292 85.3383 358.299 86.0001 357.314 85.9287C357.173 85.9188 357.028 85.8921 356.918 85.8043C356.688 85.6201 356.717 85.2686 356.768 84.9781L357.139 82.8566C357.229 82.3442 357.411 81.7288 357.919 81.6138ZM311.052 76.7957C312.477 76.5551 313.953 76.6138 315.355 76.9671C315.273 77.5452 314.598 77.8079 314.027 77.9258C312.263 78.2901 310.439 78.3686 308.651 78.1577C309.099 77.3157 310.111 76.9543 311.052 76.7957ZM400.418 29.745L396.677 27.5372C398.52 27.2619 400.486 28.2295 401.391 29.8574C401.131 30.0939 400.72 29.9234 400.418 29.745ZM318.442 74.0235C316.856 74.443 315.288 74.9311 313.744 75.4854C315.348 76.3715 317.625 75.6632 318.442 74.0235ZM302.94 72.0194C303.376 72.1095 303.178 72.7957 302.83 73.074C301.77 73.92 300.159 73.9927 299.027 73.246L302.94 72.0194ZM402.492 20.8074C402.749 20.7466 403.013 20.8505 403.254 20.959C404.816 21.664 406.248 22.6585 407.453 23.8768L402.077 21.1336C402.159 20.9718 402.316 20.8493 402.492 20.8074ZM320.588 35.6279L320.641 35.665C321.126 35.5953 321.627 35.6363 322.094 35.7841C321.686 36.5543 321.119 37.2397 320.438 37.7842C320.097 37.1089 320.157 36.2495 320.588 35.6279ZM412.582 28.0899L412.593 28.1238C413.187 28.365 413.591 29.0089 413.55 29.6484C412.327 29.0142 411.336 27.9415 410.802 26.6716C411.533 26.9245 412.173 27.434 412.582 28.0899ZM301.271 74.9822L301.183 75.1037C300.873 75.5243 300.503 75.9816 299.984 76.042C299.464 76.1019 298.932 75.4308 299.298 75.0578C299.914 74.7823 300.637 74.7544 301.271 74.9822ZM264.478 80.1954C264.941 80.3035 265.465 80.6411 265.393 81.1112C264.331 80.9729 263.283 80.7277 262.27 80.3802C262.963 80.0908 263.747 80.0252 264.478 80.1954ZM363.077 80.1054C362.835 80.2099 362.617 79.7701 362.846 79.6417C362.846 79.6417 364.429 76.8671 364.498 78.8096C364.531 79.2936 363.508 79.8846 363.077 80.1054ZM296.185 94.351C296.303 93.5085 296.524 91.9211 296.974 91.9211C297.612 91.8537 297.367 92.9391 297.194 93.7043C297.146 93.9152 297.104 94.1017 297.087 94.2331C297.029 94.6927 296.6 95.0535 296.108 94.8321C296.127 94.7647 296.152 94.5875 296.185 94.351ZM147.799 123.465C151.047 123.746 154.307 123.88 157.566 123.867C157.335 126.929 159.827 129.946 162.88 130.298C165.934 130.65 169.048 128.28 169.52 125.244C169.709 124.025 171.359 123.813 172.59 123.909L180.424 124.519C181.767 124.623 183.667 124.2 183.522 122.862L182.634 114.664C182.555 113.925 182.813 112.847 183.543 112.993C186.652 113.617 190.048 111.235 190.474 108.095C190.901 104.954 188.214 101.736 185.044 101.636C183.521 101.589 182.796 99.5979 183.191 98.1273C183.404 97.3365 183.808 96.6206 184.212 95.9036V95.903C184.56 95.2871 184.908 94.67 185.135 94.0035C185.628 92.5625 185.215 90.5538 183.731 90.2064C172.464 87.5661 160.637 87.3424 149.278 89.5533L149.07 89.5945C148.445 89.72 147.819 89.8752 147.279 90.2093C145.505 91.3069 145.368 93.727 145.455 95.8618L145.513 97.0483C145.824 103.933 145.282 110.855 143.902 117.606L143.871 117.759C143.562 119.299 143.311 121.057 144.339 122.224C145.101 123.088 146.321 123.321 147.484 123.436L147.799 123.465ZM167.782 125.117C167.873 125.559 167.759 126.021 167.581 126.437L167.524 126.564C166.476 128.775 163.355 129.724 161.264 128.43C159.134 127.113 158.612 123.801 160.233 121.891C156.113 122.384 151.937 122.416 147.81 121.988C146.532 121.855 144.863 121.165 145.124 119.909C146.92 111.267 147.481 102.371 146.785 93.5718C146.659 91.9774 148.623 91.15 150.197 90.8612C160.354 88.9978 170.864 89.0745 180.993 91.0872C182.289 91.3447 183.957 92.3284 183.382 93.5178C182.03 96.3173 181.49 99.5021 181.843 102.59C181.933 103.378 182.55 104.408 183.238 104.014C185.09 102.951 187.772 103.803 188.669 105.741C189.566 107.678 188.48 110.272 186.47 110.995C184.46 111.718 181.969 110.409 181.426 108.345C180.94 112.597 181.113 116.924 181.937 121.124C182.223 122.58 180.102 123.129 178.621 123.019L166.803 122.139C166.441 122.709 166.813 123.298 167.203 123.918C167.446 124.305 167.698 124.703 167.782 125.117ZM228.932 98.4271L252.08 98.892L252.458 98.9012C253.153 98.9227 253.854 98.9838 254.479 99.276C255.894 99.9355 256.543 101.562 256.974 103.063C259.27 111.07 258.987 119.795 256.175 127.636L256.057 127.957C255.691 128.922 255.212 129.884 254.348 130.426C253.637 130.873 252.77 130.967 251.926 131.011L251.746 131.021C248.304 131.184 244.85 131.096 241.421 130.757C243.207 129.659 243.658 126.984 242.523 125.221C241.39 123.458 238.993 122.722 236.977 123.294C235.747 123.644 234.601 124.483 234.156 125.681C233.711 126.879 234.141 128.417 235.278 129.002C236.064 129.406 235.929 130.68 235.24 131.235C234.552 131.789 233.596 131.828 232.712 131.843L221.098 132.031C220.225 132.045 219.307 132.049 218.541 131.631C217.454 131.038 216.954 129.762 216.649 128.563C215.91 125.67 215.81 122.617 216.358 119.682C217.018 122 219.876 123.407 222.117 122.519C224.358 121.63 225.474 118.647 224.364 116.508C223.255 114.368 220.173 113.558 218.155 114.876L218.071 114.128C217.781 111.507 217.556 108.852 218.059 106.271C218.611 103.443 220.185 100.666 222.765 99.3818C224.646 98.4451 226.818 98.3934 228.932 98.4271ZM254.2 100.847C253.62 100.498 252.922 100.438 252.242 100.41L252.073 100.403C244.872 100.134 237.667 99.9983 230.462 99.9948L228.06 99.9989C226.54 100.004 224.972 100.026 223.581 100.637C221.506 101.551 220.162 103.669 219.613 105.867C219.064 108.066 219.196 110.369 219.331 112.632C222.979 111.627 226.904 115.332 226.471 119.089C226.038 122.846 221.87 125.56 218.156 124.835C217.988 126.022 217.822 127.254 218.171 128.402C218.52 129.549 219.538 130.586 220.737 130.548L231.504 130.201C232.171 130.18 233.092 129.835 232.898 129.197C231.798 125.576 234.973 121.348 238.76 121.39C242.547 121.433 245.625 125.731 244.444 129.327C246.81 129.86 249.271 129.972 251.676 129.657C252.457 129.554 253.272 129.389 253.871 128.877C254.459 128.373 254.748 127.612 254.993 126.878C257.492 119.395 257.765 111.186 255.771 103.554C255.512 102.567 255.154 101.505 254.328 100.929L254.2 100.847ZM152.04 172.103C150.894 164.649 150.895 157.019 152.044 149.565L152.102 149.204C152.388 147.513 152.889 145.727 154.303 144.795C155.362 144.097 156.699 144.045 157.974 144.044L167.739 144.071C168.184 144.073 168.671 144.089 169.005 144.382C169.34 144.675 169.331 145.347 168.902 145.466C167.88 145.749 167.291 146.928 167.416 147.981C167.54 149.034 168.225 149.947 169.03 150.638C170.949 152.287 173.933 152.873 176.058 151.498C178.182 150.123 178.682 146.581 176.669 145.048C181.23 144.955 185.794 144.97 190.354 145.091L192.065 145.141C192.617 145.159 193.229 145.204 193.615 145.599C193.904 145.896 194 146.328 194.065 146.738C194.571 149.893 194.018 153.208 192.518 156.03C192.279 156.479 191.725 156.974 191.348 156.632C189.745 155.179 187.05 155.376 185.41 156.788C183.771 158.2 183.137 160.545 183.426 162.688C183.705 164.751 185.21 166.954 187.291 166.85C187.877 166.821 188.487 166.619 189.085 166.421C190.159 166.065 191.194 165.721 191.99 166.412L189.903 175.727C189.533 177.381 188.868 179.344 187.209 179.699C177.63 181.747 167.587 181.592 158.075 179.25L157.614 179.134C156.46 178.831 155.31 178.441 154.41 177.67C152.843 176.329 152.353 174.141 152.04 172.103ZM190.141 168.077C187.431 169.351 183.901 168.258 182.205 165.791C180.509 163.325 180.675 159.801 182.415 157.365C184.155 154.93 187.283 153.635 190.266 153.89L190.515 153.912C190.934 153.947 191.363 153.962 191.718 153.754C192.167 153.489 192.358 152.946 192.483 152.441C192.982 150.423 192.954 148.278 192.404 146.274L179.78 146.366C180.01 149.868 177.125 153.285 173.632 153.649C170.14 154.013 166.611 151.263 166.114 147.789L166.045 147.272C165.97 146.751 165.853 146.236 165.464 145.905C165.19 145.673 164.831 145.581 164.476 145.511L164.343 145.485C160.67 144.792 156.014 144.503 154.086 147.704C153.43 148.794 153.253 150.098 153.12 151.363C152.352 158.626 152.535 165.988 153.661 173.204L153.716 173.542C153.899 174.615 154.186 175.718 154.985 176.439C155.535 176.934 156.257 177.179 156.973 177.381L157.152 177.431C166.311 179.948 176.063 180.285 185.375 178.408L185.892 178.302C186.349 178.206 186.825 178.095 187.185 177.796C187.654 177.406 187.834 176.778 187.99 176.189L190.141 168.077ZM258.267 186.533C258.267 186.533 258.32 185.082 258.503 184.605C258.834 183.744 259.81 182.519 259.81 182.519C259.742 182.85 259.648 183.205 259.549 183.571C259.214 184.826 258.843 186.211 259.406 187.236C259.841 188.027 266.201 192.193 268.387 193.169C277.735 197.344 287.13 201.122 296.569 204.917L296.569 204.918H296.57L296.571 204.918L296.579 204.922C300.437 206.473 304.301 208.026 308.172 209.612C301.518 208.802 295.391 205.705 289.421 202.658C288.133 209.802 292.116 217.004 297.49 221.888C301.404 225.444 306.01 228.08 310.616 230.716V230.717H310.617L310.617 230.717H310.618C312.337 231.701 314.055 232.685 315.738 233.716L316.357 234.099C322.327 237.834 328.039 242.55 330.675 249.054C331.159 250.247 332.643 250.926 333.863 250.512C335.083 250.098 335.847 248.657 335.503 247.415C336.78 248.462 336.043 250.802 334.497 251.381C332.95 251.959 331.177 251.174 330.035 249.982C329.175 249.084 328.575 247.986 327.976 246.89L327.975 246.889V246.888L327.975 246.888L327.974 246.885C327.778 246.528 327.583 246.171 327.378 245.82C323.693 239.505 317.181 235.583 310.721 231.994L307.689 230.316C300.678 226.404 293.496 221.705 290.494 214.3C279.594 216.028 268.247 214.856 257.932 210.936C255.725 210.097 253.565 209.136 251.405 208.175H251.405C247.965 206.643 244.528 205.114 240.911 204.085C238.896 203.51 236.119 203.449 235.364 205.402C235.364 205.401 235.363 205.403 235.361 205.407C235.339 205.445 235.196 205.696 234.553 205.752C234.252 205.777 233.975 205.249 233.889 204.899C233.816 204.801 233.79 204.524 233.79 203.956C233.79 203.651 234.415 202.312 235.589 201.485C236.406 200.91 237.325 200.7 237.807 200.591C238.024 200.542 238.152 200.513 238.141 200.48C238.117 200.402 237.282 200.186 236.522 200.553C235.937 200.838 235.383 201.212 234.873 201.558H234.872C234.083 202.091 233.402 202.552 232.877 202.491C232.168 202.409 231.664 202.078 231.656 201.364C231.648 200.65 231.838 199.782 232.389 199.333C233.567 198.375 235.088 197.847 236.607 197.868C236.935 197.873 237.298 197.92 237.512 198.168C237.727 198.417 237.621 198.913 237.293 198.928C235.325 199.016 233.048 199.345 232.281 201.364C232.059 201.952 233.468 202.046 234.012 201.732C234.329 201.551 234.6 201.307 234.872 201.062C235.069 200.885 235.265 200.707 235.479 200.553C236.119 200.094 236.915 199.853 237.703 199.881C238.021 199.892 238.371 199.965 238.558 200.222C238.745 200.479 238.613 200.945 238.295 200.95C236.254 200.983 234.391 202.752 234.251 204.786C234.259 204.86 234.315 205.196 234.553 205.276C234.831 205.369 235.137 205.143 235.15 205.121C236.213 203.224 238.153 201.957 240.239 202.591C241.027 202.831 241.786 203.197 242.541 203.56C243.863 204.196 245.174 204.828 246.615 204.774L245.75 200.191C242.244 196.981 236.961 195.848 232.446 197.341C231.963 197.501 231.441 197.732 231.244 198.201C231.047 198.67 231.479 199.351 231.955 199.169C231.207 199.86 229.944 198.688 230.228 197.71C230.513 196.734 231.585 196.232 232.57 195.975C238.1 194.539 243.612 197.043 248.938 199.462L248.942 199.464C249.93 199.913 250.91 200.358 251.884 200.775C262.729 205.42 274.983 206.72 286.562 204.452C286.06 205.826 284.347 206.241 282.893 206.405C272.579 207.564 261.985 206.146 252.341 202.314C251.163 203.81 251.724 206.133 253.065 207.485C254.405 208.837 256.301 209.451 258.126 209.996C268.352 213.051 279.195 215.387 289.644 213.215L287.95 203.313L287.916 203.132C287.832 202.737 287.678 202.329 287.309 202.203L287.215 202.171C273.822 197.626 263.614 194.162 250.36 181.536C250.334 181.51 250.308 181.484 250.283 181.458C250.185 185.253 248.981 186.088 243.959 185.053C233.002 182.796 221.784 181.614 210.726 183.167C211.562 179.037 212.61 174.949 213.863 170.926C210.265 172.086 206.017 168.79 206.249 165.019C206.482 161.248 211.103 158.499 214.531 160.092C215.709 157.377 215.783 154.202 214.735 151.434C214.232 150.106 216.237 149.34 217.658 149.34L225.508 149.338C226.606 149.337 228.136 148.828 227.863 147.766C227.217 145.247 228.95 142.369 231.48 141.76C233.964 141.162 236.76 142.862 237.402 145.326L237.435 145.463C238.031 148.109 241.385 148.948 244.098 148.897L245.449 148.864C247.795 148.815 250.241 148.891 251.811 150.531C253.689 152.493 253.269 155.617 252.651 158.281L252.609 158.457C252.307 159.73 251.867 160.764 251.424 161.804C250.58 163.786 249.728 165.789 249.803 169.505C249.834 171.02 249.889 172.41 249.951 173.683C250.169 172.789 250.36 172.198 250.36 172.198C250.36 172.198 275.949 191.238 291.752 193.823C293.645 192.15 292.552 188.892 290.645 187.236C289.841 186.539 288.926 185.974 288.013 185.412C286.76 184.64 285.511 183.87 284.561 182.761C282.672 180.556 282.334 177.519 281.999 174.508C281.635 171.234 281.274 167.991 278.927 165.881C278.717 165.693 278.495 165.517 278.271 165.341L278.271 165.341C277.768 164.944 277.266 164.549 276.924 164.013C276.077 162.691 276.493 160.85 277.518 159.66C278.544 158.47 280.044 157.805 281.527 157.288C284.607 156.213 287.983 155.613 291.129 156.479C294.274 157.344 297.091 159.962 297.4 163.207C297.996 161.916 299.307 160.983 300.723 160.841L298.667 163.024L301.268 163.076L297.689 165.073C299.908 169.174 299.549 174.231 298.127 178.671C297.952 179.215 297.763 179.759 297.572 180.303C296.812 182.482 296.046 184.679 296.243 186.953C296.484 189.749 298.968 192.605 301.684 192.033L301.82 192.002C305.084 191.178 308.659 191.655 311.592 193.306C315.012 195.232 317.341 198.497 319.645 201.729C320.18 202.479 320.714 203.227 321.259 203.956C323.816 207.374 326.843 210.552 330.625 212.532C334.408 214.512 339.046 215.166 342.987 213.522C343.712 213.22 344.408 212.844 345.104 212.469C346.285 211.832 347.462 211.197 348.768 210.926C350.842 210.496 353.484 211.511 353.73 213.614C352.657 211.822 350.114 211.505 348.114 212.109C346.985 212.45 345.944 213.007 344.901 213.565C344.096 213.996 343.29 214.427 342.443 214.76C338.199 216.425 333.257 215.416 329.35 213.068C325.565 210.793 322.601 207.396 319.927 203.877L319.668 203.536C319.397 203.176 319.127 202.813 318.857 202.451L318.856 202.449L318.856 202.449L318.855 202.448L318.854 202.447L318.854 202.447L318.853 202.446L318.853 202.445L318.852 202.444C316.972 199.918 315.077 197.375 312.595 195.453C309.811 193.298 306.072 192.025 302.72 193.059L302.515 193.125C299.309 194.211 295.912 191.145 295.335 187.811C294.758 184.478 296.118 181.146 297.449 178.035C298.822 174.826 296.301 171.083 293.123 169.636C290.174 168.294 286.632 168.324 283.707 169.716C282.759 170.168 282.587 171.411 282.619 172.474L282.623 172.591C282.787 176.342 283.79 180.285 286.531 182.855C287.345 183.618 288.286 184.235 289.226 184.851C290.402 185.622 291.575 186.39 292.494 187.443C294.147 189.337 294.402 192.885 292.105 193.91C296.046 194.621 299.945 195.563 303.776 196.728C283.165 194.621 264.213 184.906 250.606 173.17C250.328 173.714 250.132 174.288 250.013 174.878C250.044 175.466 250.077 176.026 250.108 176.56C250.151 177.313 250.191 178.012 250.223 178.659C250.877 180.813 252.408 182.712 254.511 183.547C254.344 182.034 254.855 180.459 255.877 179.331C255.214 180.813 254.161 183.655 258.267 186.533ZM289.927 157.536C288.093 157.194 286.229 157.012 284.364 156.993C284.237 157.228 284.189 157.504 284.229 157.768C286.309 157.941 288.357 158.488 290.246 159.377C289.457 160.166 288.153 159.693 287.093 159.309L287.031 159.287C285.221 158.632 283.233 158.474 281.342 158.833C280.377 159.017 279.413 159.347 278.67 159.988C277.927 160.63 277.441 161.629 277.607 162.596C277.818 163.831 278.981 164.675 280.141 165.151C283.018 166.328 286.467 165.996 289.066 164.291C289.277 164.153 289.573 164.384 289.586 164.635C289.598 164.887 289.428 165.109 289.25 165.287C288.214 166.317 286.672 166.646 285.214 166.73C284.787 166.755 284.359 166.764 283.93 166.772C282.892 166.792 281.854 166.812 280.851 167.066C280.987 167.893 282.02 168.178 282.856 168.238C286.051 168.47 289.293 168.04 292.317 166.984C293.074 166.719 293.77 167.478 294.217 168.144L297.475 173.002C298.545 171.995 298.481 170.256 297.977 168.876C297.779 168.337 297.528 167.817 297.278 167.298C296.887 166.489 296.497 165.681 296.313 164.805C296.212 164.323 296.176 163.827 296.139 163.333C296.089 162.639 296.037 161.946 295.807 161.293C294.997 158.992 292.327 157.982 289.927 157.536ZM250.573 201.886L247.615 200.188C247.288 200 246.683 199.968 246.716 200.345C246.615 201.87 246.739 203.739 247.721 205.01C248.339 205.811 248.785 206.222 250.969 206.764L250.809 202.491C250.8 202.265 250.769 201.999 250.573 201.886ZM295.603 178.645C295.962 178.437 296.191 178.066 296.405 177.71C296.788 177.073 297.182 176.399 297.199 175.656C297.217 174.913 296.703 174.103 295.96 174.074C295.59 174.059 295.239 174.235 294.937 174.449C294.267 174.922 293.75 175.609 293.48 176.383C293.822 176.876 294.596 176.436 294.94 175.945C295.284 175.454 295.794 174.833 296.341 175.078C295.98 176.331 295.341 177.503 294.483 178.485C294.712 178.831 295.243 178.854 295.603 178.645ZM301.519 214.731C300.696 213.426 299.808 212.016 298.343 211.592C301.594 217.706 306.632 222.858 312.674 226.246C314.784 227.429 317.009 228.4 319.232 229.371C322.333 230.725 325.429 232.076 328.201 233.997C331.676 236.404 334.55 239.67 336.493 243.421C335.729 238.072 331.253 233.977 326.476 231.449C324.313 230.303 322.04 229.381 319.769 228.459L319.768 228.458C317.022 227.343 314.278 226.228 311.731 224.724C307.671 222.324 304.191 218.951 301.669 214.968C301.619 214.89 301.569 214.81 301.519 214.731ZM311.73 216.539L311.82 216.741C312.22 217.666 312.498 218.829 311.746 219.455C311.148 219.954 310.241 219.764 309.534 219.432C308.008 218.717 306.746 217.452 306.035 215.924C306.925 215.747 307.761 215.299 308.4 214.655C308.932 214.12 309.873 214.229 310.471 214.687C311.07 215.145 311.411 215.856 311.73 216.539ZM311.245 218.729C312.014 217.349 310.445 215.314 309.679 215.181C309.346 215.124 309.002 215.454 308.632 215.808C308.253 216.172 307.846 216.561 307.397 216.584C307.397 216.584 310.476 220.108 311.245 218.729ZM350.031 222.696C368.704 222.083 386.935 212.992 398.653 198.449C399.26 197.696 400.46 197.684 401.304 198.157C402.147 198.63 402.717 199.461 403.256 200.263C403.843 200.177 403.86 199.266 403.456 198.832C403.256 198.617 403.005 198.462 402.755 198.307C402.497 198.147 402.239 197.987 402.038 197.764C401.222 196.861 401.658 195.441 402.136 194.322L404.266 189.336C404.552 188.669 404.998 187.889 405.725 187.899C406.257 187.907 406.665 188.351 407.003 188.762C410.679 193.238 414.09 197.932 417.211 202.811C415.287 203.11 413.437 202.162 411.613 201.228C409.575 200.185 407.568 199.157 405.524 199.897C403.743 200.542 402.694 202.334 401.751 203.976C398.667 209.347 395.133 214.519 390.658 218.801C380.264 228.746 365.76 233.05 351.63 235.772C360.37 239.078 369.998 240.005 379.209 238.428C384.48 237.526 389.736 235.748 393.845 232.327C395.508 230.941 396.951 229.314 398.387 227.694L408.968 215.758C409.588 215.059 410.731 215.73 411.309 216.464C411.885 217.198 412.669 218.113 413.549 217.8C412.919 216.39 411.825 215.192 410.478 214.435C410.398 212.752 410.347 210.949 411.243 209.52C412.139 208.092 414.372 207.397 415.534 208.618C419.345 212.624 422.995 216.781 426.476 221.076C424.433 221.396 422.493 220.518 420.567 219.646H420.567H420.566V219.646H420.565C419.971 219.377 419.378 219.108 418.783 218.875C416.262 217.89 412.73 217.911 411.58 220.36C408.437 227.056 405.171 233.924 399.775 238.987C390.764 247.443 377.597 249.351 365.315 250.744C359.868 251.361 354.273 251.946 348.969 250.56C345.108 249.551 341.596 247.544 338.136 245.559L335.39 243.983C334.582 244.185 335.23 245.41 335.948 245.833C340.546 248.542 345.284 251.303 350.557 252.134C351.9 252.345 353.26 252.428 354.619 252.478C367.131 252.948 379.736 250.755 391.352 246.087C396.197 244.139 401.127 241.537 403.787 237.047L413.162 221.226C413.521 220.62 413.916 219.98 414.553 219.679C415.329 219.312 416.242 219.546 417.066 219.785L425.854 222.336C426.751 222.596 427.586 221.544 427.492 220.614C427.398 219.685 426.727 218.931 426.088 218.248L417.985 209.58C416.915 208.436 415.766 207.243 414.256 206.827C412.747 206.411 410.806 207.143 410.511 208.68C409.639 213.218 406.538 216.957 403.545 220.477C398.911 225.927 394.088 231.527 387.658 234.663C378.436 239.16 367.54 237.854 357.443 236.027L363.99 234.121C367.23 233.178 370.477 232.232 373.617 230.999C385.804 226.213 396.184 216.98 402.353 205.438C403.424 203.435 404.683 201.119 406.919 200.717C408.758 200.387 410.325 201.472 411.927 202.58C412.88 203.24 413.845 203.907 414.886 204.291C416.422 204.858 418.806 204.051 418.444 202.456C418.363 202.095 418.144 201.783 417.93 201.481L409.594 189.737C408.437 188.107 406.704 186.266 404.801 186.878C403.272 187.369 402.699 189.133 402.193 190.689L402.146 190.83L402.125 190.895L402.102 190.967C399.729 198.192 393.349 203.24 387.293 207.845C384.644 209.86 381.988 211.88 379.128 213.585C370.777 218.564 360.982 220.673 351.277 221.303C348.535 221.481 346.811 224.051 345.234 226.404C345.046 226.684 344.861 226.961 344.676 227.23C341.975 231.163 338.128 234.301 333.731 236.159C334.466 236.971 335.807 236.484 336.736 235.903C341.148 233.148 344.891 229.33 347.557 224.864C348.145 223.88 348.883 222.734 350.031 222.696ZM291.441 180.539C291.012 181.479 290.055 182.155 289.025 182.247C287.996 182.338 286.934 181.841 286.346 180.992C286.129 180.68 286.131 180.07 286.51 180.103C287.297 181.148 288.939 181.418 290.02 180.68C290.488 180.361 291.301 179.99 291.441 180.539ZM283.165 173.709C283.258 172.922 283.922 172.238 284.706 172.121C285.491 172.005 286.326 172.465 286.644 173.191C286.071 173.191 285.687 173.087 285.367 173.001C284.716 172.825 284.331 172.722 283.165 173.709ZM289.245 178.095L288.352 178.477L288.3 178.447C288.068 178.888 287.387 178.389 287.335 177.894C287.324 177.792 287.318 177.684 287.313 177.574C287.293 177.155 287.273 176.719 286.926 176.531C286.493 177.155 286.294 177.976 286.547 178.693C286.799 179.409 287.565 179.952 288.314 179.817C289.061 179.683 289.599 178.766 289.245 178.095ZM290.316 172.013C291.445 172.103 291.745 172.164 292.057 172.906C292.119 173.052 291.635 172.915 291.176 172.784C290.837 172.687 290.512 172.594 290.423 172.621C286.644 173.74 289.187 171.922 290.316 172.013ZM289.997 173.963C290.621 174.457 290.44 176.426 289.519 176.056C289.134 175.901 288.672 172.913 289.997 173.963ZM319.866 226.685C319.568 226.314 319.905 225.653 320.381 225.676C320.591 225.812 320.733 226.046 320.757 226.295C320.577 226.588 320.205 226.748 319.868 226.677L319.866 226.685ZM311.38 222.847L312.029 222.749L312.081 222.73C312.306 222.309 311.57 221.829 311.275 222.205C311.211 222.42 311.251 222.664 311.38 222.847ZM316 225.405C315.623 225.507 315.573 224.861 315.785 224.534L316.682 224.943C316.544 225.185 316.287 225.356 316.01 225.391L316 225.405ZM304.784 215.997C304.684 215.75 304.327 215.656 304.119 215.821L304.176 215.878C303.996 216.114 304.139 216.515 304.427 216.584C304.691 216.559 304.883 216.243 304.784 215.997ZM285.053 176.102C284.691 176.102 284.312 175.748 284.331 175.134C284.35 174.52 284.517 173.953 285.053 174.254C285.588 174.555 285.425 176.102 285.053 176.102ZM116.653 101.506C116.871 101.792 117.369 101.666 117.56 101.362C117.752 101.058 117.728 100.67 117.693 100.313C117.192 95.1389 115.849 90.0477 113.731 85.3005C113.128 83.9484 112.494 82.2622 113.418 81.1042C115.552 86.4353 117.704 91.8322 118.481 97.5212C118.694 99.0738 118.77 100.774 117.903 102.08C117.037 103.386 114.879 103.887 113.917 102.65C115.397 102.341 116.529 100.843 116.423 99.3359C117.106 99.8019 117.224 100.906 116.653 101.506ZM133.905 204.229C141.649 203.804 150.621 202.687 154.683 196.084C155.736 194.372 155.512 191.68 155.327 189.462C155.178 187.68 155.054 186.203 155.64 185.787C156.954 184.85 158.006 187.265 158.006 187.265C158.023 187.195 158.041 187.119 158.059 187.036C158.084 186.928 158.11 186.81 158.138 186.684C158.505 185.039 159.181 182.009 160.243 182.577C160.68 182.812 160.53 184.285 160.426 185.297V185.298C160.402 185.535 160.38 185.747 160.37 185.912C160.345 186.068 160.341 186.199 160.36 186.292C160.375 186.286 160.39 186.277 160.406 186.266C160.413 186.265 160.42 186.261 160.429 186.254C160.434 186.249 160.441 186.243 160.447 186.235C160.619 186.09 160.854 185.732 161.116 185.334C161.658 184.509 162.314 183.511 162.754 183.877C163.444 184.454 160.99 188.13 160.99 188.13C160.99 188.13 163.904 184.93 164.15 186.292C164.396 187.654 157.759 199.956 151.768 204.781C145.777 209.605 137.335 212.306 129.702 211.339C129.873 208.314 130.877 204.395 133.905 204.229ZM160.447 186.235C160.433 186.247 160.42 186.257 160.406 186.266C160.36 186.274 160.355 186.137 160.37 185.912C160.426 185.556 160.593 185.068 160.859 184.602C160.808 184.762 160.758 184.917 160.711 185.063C160.498 185.715 160.344 186.187 160.504 186.15C160.49 186.174 160.478 186.193 160.467 186.209C160.46 186.219 160.454 186.228 160.447 186.235ZM161.89 183.459C161.461 183.73 161.113 184.156 160.859 184.602C161.256 183.344 161.659 181.756 160.68 181.63C159.02 181.414 157.398 184.114 157.686 185.548C157.225 184.405 155.308 184.9 154.844 186.041C154.488 186.917 154.64 187.876 154.79 188.828C154.836 189.117 154.881 189.405 154.913 189.69C155.411 194.24 151.997 198.494 147.859 200.456C143.957 202.307 139.529 202.567 135.197 202.701L134.186 202.73C131.714 202.795 129.036 202.738 127.149 201.161C125.204 199.535 125.206 195.679 127.648 194.997C133.846 193.268 138.574 187.232 138.766 180.804C138.823 178.905 140.056 177.324 141.248 175.796C141.305 175.722 141.363 175.647 141.421 175.573C141.47 175.511 141.518 175.448 141.567 175.385L141.829 175.043C143.162 173.275 144.259 170.838 143.139 168.928C141.404 171.153 138.153 172.05 135.521 171.031C134.424 170.605 133.451 169.894 132.484 169.188C131.189 168.242 129.905 167.304 128.346 167.07C125.297 166.611 122.273 169.696 122.795 172.733C121.969 172.041 120.688 173.089 120.599 174.162C120.547 174.793 120.712 175.406 120.879 176.023C120.996 176.455 121.113 176.889 121.156 177.331C121.205 177.845 121.152 178.36 121.1 178.876C121.064 179.224 121.028 179.573 121.024 179.922C121.002 181.73 121.808 183.403 122.602 185.05L122.603 185.053L122.604 185.055C122.683 185.22 122.762 185.385 122.841 185.549L123.053 186.001C123.957 187.959 124.627 190.29 123.664 192.219C122.701 194.149 119.423 194.753 118.494 192.807C113.942 183.268 103.624 176.772 93.0485 176.788C80.8036 176.806 69.7868 184.871 62.5707 194.757C61.6707 195.99 60.7898 197.318 60.5937 198.832C60.3976 200.345 61.1004 202.082 62.5411 202.588C63.9817 203.095 65.8499 201.679 65.3804 200.226C66.1114 201.079 67.6063 200.273 67.9506 199.204C68.1441 198.603 68.1417 197.97 68.1394 197.334C68.1376 196.839 68.1357 196.342 68.2267 195.859C68.6731 193.488 71.1132 192.118 73.3095 191.117L73.7524 190.916C78.9256 188.577 84.316 186.488 89.9745 186.091C95.7946 185.682 102.006 187.299 106.006 191.544C100.548 192.838 97.3784 198.311 94.8521 203.366L94.5015 204.071C91.9508 209.19 88.6093 214.775 83.0154 215.86C83.2282 216.963 84.2027 217.875 85.3178 218.015L64.8107 230.199L66.3839 232.149C61.3909 239.797 55.7438 247.018 49.5244 253.708C46.1429 257.345 41.7521 261.114 36.8569 260.267C35.9717 260.114 35.1135 259.81 34.2582 259.508C33.0058 259.064 31.7598 258.623 30.4449 258.661C28.232 258.724 26.0113 261.415 27.5134 263.039C30.84 266.639 34.6368 269.803 38.7769 272.428L38.8841 272.495C39.3881 272.809 39.9425 273.102 40.5269 273.035C41.1177 272.967 41.5987 272.547 42.0381 272.147L69.8115 246.84C72.0862 244.784 74.5893 242.727 77.6194 242.425L77.8751 242.394C80.1164 242.082 81.9624 240.666 83.8137 239.246C84.6201 238.628 85.4272 238.009 86.2685 237.48C89.1146 235.69 93.8358 235.506 94.9428 238.679C95.5312 240.366 94.7614 242.081 94.0021 243.772C93.7759 244.276 93.5509 244.777 93.3631 245.275C92.5444 247.444 93.2154 250.781 95.5347 250.74L108.515 250.511C108.981 250.506 109.472 250.532 109.835 250.817C110.215 251.116 110.348 251.612 110.42 252.099L110.451 252.322C110.94 256.295 110.872 260.336 110.251 264.29C109.578 268.576 107.787 273.29 103.741 274.861C101.189 275.852 98.3465 275.337 95.6586 274.722L79.3262 270.91C79.2989 268.933 81.088 267.324 82.9956 266.8C84.6126 266.356 86.3115 266.491 87.9936 266.626L88.1634 266.639L88.3035 266.65L88.8971 266.694C93.0305 266.978 97.2092 266.595 101.222 265.563L95.4318 251.083C96.022 255.89 97.3232 260.609 99.2797 265.04L80.2466 265.657C78.5894 265.703 76.7495 265.63 75.6354 264.422C75.3494 264.111 75.111 263.73 74.8748 263.351C74.3897 262.574 73.9137 261.812 73.0525 261.712C72.3083 261.626 71.6342 262.122 71.0642 262.608C67.3432 265.78 64.2536 269.689 62.0275 274.041C62.83 276.027 65.4891 276.582 67.5548 276.012C68.7632 275.68 69.8661 275.079 70.9712 274.477H70.9715C71.7554 274.05 72.5404 273.623 73.3648 273.289C77.9656 271.431 83.0235 272.691 87.8819 274.153L90.7682 275.03C96.4714 276.743 103.425 277.621 107.699 273.477C110.221 271.031 111.14 267.393 111.639 263.916C113.08 253.885 111.912 243.492 108.28 234.031C112.33 232.47 114.24 227.943 115.726 223.868L118.635 215.886C119.607 213.22 121.815 209.948 124.443 211.022C131.957 214.093 140.832 212.795 147.828 208.679C154.823 204.562 160.06 197.895 163.587 190.588L163.682 190.39C164.372 188.938 165.251 185.551 164.465 185.175C164.173 184.945 163.651 185.327 163.295 185.587C163.103 185.727 162.959 185.833 162.926 185.787C162.907 185.758 162.971 185.57 163.062 185.304C163.422 184.258 164.197 182 161.89 183.459ZM112.167 228.26C111.258 230.302 109.754 232.706 107.534 232.435C106.345 232.289 105.447 231.393 104.639 230.471L104.206 229.97C99.5134 224.527 93.1392 220.909 86.7325 217.579L84.598 216.477C89.8169 215.451 93.0363 210.293 95.3353 205.5L96.0673 203.972C98.1697 199.617 100.562 195.136 104.897 193.176C105.496 192.905 106.184 192.689 106.802 192.914C106.85 192.932 106.899 192.95 106.951 192.97C106.993 192.986 107.035 193.002 107.079 193.019L107.102 193.028C107.865 193.321 108.848 193.698 108.832 192.976C107.441 192.415 107.212 190.388 108.014 189.121C108.747 187.965 110.016 187.297 111.273 186.723L111.631 186.561C110.829 185.456 109.092 186.385 108.184 187.404L108.11 187.487C107.199 188.486 105.801 189.579 104.75 188.767C100.405 185.413 94.6155 184.336 89.1512 184.863C83.6869 185.389 78.4731 187.386 73.481 189.669C71.6513 190.505 69.7929 191.418 68.435 192.902C67.3847 194.049 67.2758 195.577 67.1663 197.113C67.1343 197.563 67.1023 198.013 67.0465 198.455C66.9117 199.522 66.324 199.563 65.8063 199.599C65.5288 199.619 65.2715 199.636 65.1147 199.81C65.1021 199.824 65.0615 199.886 65.0005 199.98C64.6896 200.457 63.8485 201.748 63.4686 201.619C62.9107 201.43 63.1952 200.226 63.1952 200.226C63.1952 200.226 61.5394 200.699 61.4161 200.226C60.985 198.572 63.4686 195.186 63.4686 195.186C67.6445 189.046 73.8371 183.952 80.6455 180.991C87.5796 177.976 95.6713 177.393 102.76 180.026C110.752 182.995 117.08 190.086 119.12 198.358C119.629 200.421 122.03 201.332 124.128 201.674C124.325 201.707 124.525 201.738 124.726 201.769C126.661 202.071 128.72 202.393 129.954 203.87C130.318 204.305 130.218 204.95 130.092 205.503L130.056 205.663C129.595 207.635 128.793 209.843 126.874 210.442C125.131 210.986 123.065 209.582 122.932 207.761C122.921 207.601 122.917 207.431 122.914 207.259C122.898 206.552 122.883 205.807 122.289 205.515L112.167 228.26ZM95.6801 239.049C95.0283 235.701 93.0468 232.69 90.4472 230.48C90.5484 231.796 91.106 233.073 92.0014 234.042C87.5959 235.442 83.4416 237.626 79.7925 240.463C78.8157 241.222 77.1567 241.914 76.5846 240.818C74.3341 236.504 70.7514 232.897 66.4524 230.615L84.1265 220.465C84.9254 220.007 85.7702 219.534 86.6918 219.525C87.4058 219.518 88.0843 219.792 88.7303 220.11L89.05 220.272C95.6644 223.676 101.584 228.419 106.349 234.13C107.528 235.544 108.077 237.354 108.544 239.146L110.647 247.354C110.786 247.897 110.888 248.57 110.462 248.935C110.222 249.141 109.884 249.177 109.569 249.201L109.201 249.229C103.967 249.632 99.7448 249.956 94.5015 249.201C93.7189 247.702 94.3102 245.844 94.9207 243.926C95.444 242.282 95.9812 240.594 95.6801 239.049ZM69.3869 234.002C71.348 235.728 73.1159 237.673 74.6472 239.789C74.811 240.015 74.9796 240.268 74.9621 240.547C74.9418 240.872 74.678 241.123 74.4326 241.337L51.5891 261.318C50.6365 262.151 49.1171 262.004 48.0501 261.324C47.1166 260.728 46.4491 259.815 45.8366 258.884L45.5769 258.485C51.5303 255.358 55.3493 249.758 59.2022 244.106C61.6189 240.562 64.049 236.998 67.0276 234.012C67.317 233.722 67.6436 233.422 68.0511 233.376C68.5551 233.32 69.0063 233.667 69.3869 234.002ZM135.91 178.27L136.493 178.449C137.629 178.8 137.818 180.321 137.673 181.5C137.075 186.383 134.037 191.216 129.355 192.733L129.188 192.789C126.136 193.866 123.955 197.056 124.085 200.292C122.037 200.676 119.841 199.038 119.626 196.967C119.583 196.554 119.705 196.017 120.116 195.954C121.976 195.669 123.688 194.527 124.667 192.92C125.645 191.312 125.871 189.268 125.27 187.486C125.146 187.121 124.99 186.757 124.833 186.392C124.389 185.354 123.942 184.312 124.254 183.265C124.968 183.331 125.103 184.308 125.028 185.02L125.02 185.107C124.962 185.809 125.086 186.709 125.767 186.802C126.216 185.772 126.31 184.619 126.402 183.474C126.519 182.028 126.635 180.597 127.464 179.445C128.413 178.128 130.114 177.523 131.737 177.504C133.158 177.487 134.546 177.856 135.91 178.27ZM33.2712 260.597L33.4177 260.427C34.2353 260.249 35.016 261.295 34.6111 262.027C34.3513 262.497 35.1502 262.961 35.5962 262.663C36.0422 262.364 36.1322 261.757 36.1813 261.223C36.6301 261.082 37.0183 261.596 37.103 262.058C37.1254 262.181 37.1393 262.307 37.1532 262.433C37.1918 262.785 37.2306 263.138 37.453 263.403C37.7551 263.763 38.5556 263.577 38.4244 263.126C38.2285 262.452 39.0242 261.903 39.7187 261.803C39.8857 261.78 40.0581 261.766 40.2309 261.752C40.777 261.707 41.3276 261.662 41.7252 261.307L41.7851 261.26C42.2896 260.902 42.9143 261.563 43.2951 262.151L43.4722 262.436C44.3095 263.737 45.7328 264.648 47.2672 264.856C47.5678 264.896 47.4149 265.365 47.194 265.573L42.0155 270.447C41.7644 270.682 41.3577 270.515 41.0636 270.334C37.9897 268.454 35.152 266.187 32.638 263.606C31.846 262.794 32.5177 261.496 33.2712 260.597ZM78.5582 269.667C78.4088 270.282 77.9843 270.97 77.3531 270.924C75.832 270.811 74.2896 270.994 72.8372 271.46C72.9705 270.841 72.6996 270.154 72.1794 269.793C71.8 270.336 71.9552 271.176 72.5033 271.548L71.0553 272.977L70.3623 271.386C70.0205 271.476 70.0105 271.895 70.0341 272.28L70.0509 272.518C70.1203 273.526 69.265 274.506 68.2566 274.574C67.2482 274.642 66.269 273.786 66.2023 272.778C66.1296 271.68 66.971 270.759 67.7534 269.985L73.3081 264.488C73.4262 264.376 73.5615 264.271 73.721 264.273C73.8972 264.277 74.0401 264.411 74.1641 264.536L76.3317 266.721C76.7521 267.146 76.4864 267.794 76.2275 268.426C75.961 269.076 75.7017 269.71 76.205 270.062C76.695 270.092 77.103 269.666 77.2913 269.214C77.3874 268.982 77.4458 268.738 77.5041 268.495C77.5603 268.26 77.6164 268.026 77.7058 267.803C77.8885 267.348 78.2828 266.914 78.7733 266.925C79.264 266.935 79.6431 267.636 79.2634 267.947C78.8588 268.279 78.7431 268.818 78.6309 269.342C78.6074 269.452 78.584 269.561 78.5582 269.667ZM40.5791 272.098C35.5863 269.429 31.1729 265.684 27.7282 261.193C28.1799 260.765 28.8592 261.22 29.296 261.705L29.4042 261.831C32.6773 265.879 36.7879 269.247 41.401 271.662C41.3636 272.025 40.9019 272.27 40.5791 272.098ZM64.5239 271.076C66.6866 268.249 69.083 265.601 71.6804 263.167C72.0831 262.79 72.9194 262.536 73.0213 263.078C69.9973 265.963 67.1051 268.985 64.3566 272.133C64.0579 271.874 64.2837 271.39 64.5239 271.076ZM47.9138 264.008C46.4046 263.472 45.0592 262.484 44.0952 261.206C43.7325 260.725 43.5037 259.889 44.0533 259.642C44.4877 259.447 44.905 259.857 45.2079 260.255L45.435 260.563C46.4113 261.851 47.8037 262.819 49.3524 263.282C49.3551 263.695 49.013 264.082 48.6027 264.13C48.3689 264.158 48.1355 264.088 47.9138 264.008ZM121.975 180.358C122.684 180.375 123.285 181.114 123.155 181.812L123.172 181.822C123.271 182.328 123.206 182.863 122.99 183.331C122.215 182.571 121.826 181.435 121.975 180.358ZM135.491 180.376C135.581 180.368 135.675 180.36 135.77 180.358C135.89 180.357 136.028 180.379 136.158 180.399C136.509 180.453 136.803 180.498 136.525 180.064C136.145 179.469 135.032 179.402 134.849 180.084C134.9 180.428 135.165 180.404 135.491 180.376ZM136.387 183.32C136.393 183.3 136.398 183.279 136.403 183.258C136.674 182.233 136.517 181.425 135.77 181.425C135.482 181.447 135.042 182.914 135.083 183.358C135.126 183.803 135.628 184.215 136.016 183.994C136.246 183.863 136.32 183.579 136.387 183.32ZM131.459 183.009C130.938 182.286 130.883 181.257 131.325 180.482C131.39 180.367 131.47 180.253 131.586 180.187C131.877 180.02 132.269 180.246 132.397 180.558C132.526 180.869 132.47 181.221 132.412 181.553C132.412 181.553 131.979 183.732 131.459 183.009ZM241.805 183.03C232.289 180.698 222.348 180.107 212.623 181.3C214.311 177.37 215.051 173.038 214.766 168.771C212.231 170.546 208.071 168.463 207.975 165.372C207.879 162.281 211.902 159.945 214.542 161.56C215.242 161.987 216.01 161.1 216.29 160.33C217.243 157.704 217.253 154.748 216.316 152.117C215.951 151.093 217.499 150.536 218.587 150.558L227.822 150.74C228.442 150.753 229.1 150.756 229.63 150.432C230.16 150.11 230.46 149.334 230.071 148.851C228.473 146.869 230.31 143.323 232.851 143.483C235.393 143.642 236.771 147.391 234.938 149.157C234.596 149.487 235.26 149.91 235.735 149.921L247.81 150.199C250.212 150.254 251.909 152.811 252.007 155.21C252.09 157.24 251.369 159.184 250.656 161.104C250.594 161.271 250.532 161.438 250.47 161.606L250.273 162.149C248.135 168.146 247.446 174.654 248.283 180.966C248.446 182.197 247.312 183.292 246.098 183.559C245.027 183.794 243.924 183.561 242.852 183.293L241.805 183.03Z" fill="#EF8138"/>
<path fill-rule="evenodd" clip-rule="evenodd" d="M11.7222 136.097C12.4698 135.897 13.2314 136.487 13.5574 137.189C13.8833 137.891 13.9073 138.689 14.0525 139.449C14.6196 142.42 17.2976 144.857 20.3084 145.143C20.6833 146.016 19.8533 146.889 19.1971 147.576C17.7032 149.139 16.76 151.218 16.5683 153.372C16.444 154.769 16.1498 156.714 14.7473 156.695C13.62 156.68 13.1247 155.317 12.7186 154.265C11.7268 151.696 9.48946 149.641 6.84527 148.871C6.29016 148.71 6.05659 148 6.20943 147.443C6.36226 146.885 6.78531 146.449 7.18886 146.035C8.92605 144.253 10.6892 142.142 10.6705 139.654C10.6603 138.308 10.4217 136.445 11.7222 136.097Z" fill="#FFB61D"/>
<path fill-rule="evenodd" clip-rule="evenodd" d="M10.5513 109.041C9.12868 110.901 7.64088 113.343 8.73279 115.415C9.12338 116.156 8.11282 117.018 7.30859 116.784C6.50436 116.55 6.04715 115.701 5.8331 114.891C5.61906 114.081 5.54926 113.212 5.11962 112.493C4.68999 111.774 3.71416 111.275 3.00349 111.718C1.99188 111.598 1.88787 110.074 2.47576 109.242C3.06366 108.41 4.02981 107.838 4.39119 106.885C4.67736 106.131 4.52377 105.285 4.65943 104.49C4.79508 103.695 5.47159 102.846 6.25227 103.049C6.22556 104.446 6.38817 105.896 7.09698 107.101C7.80579 108.306 9.16348 109.207 10.5513 109.041Z" fill="#FFB61D"/>
</g>
<defs>
<clipPath id="clip0_233_1661">
<rect width="407" height="276" fill="white"/>
</clipPath>
</defs>
</svg>
