<svg width="426" height="437" viewBox="0 0 426 437" fill="none" xmlns="http://www.w3.org/2000/svg">
<path d="M393.054 324.033C390.349 376.772 348.082 424.563 296.27 434.843C244.459 445.123 187.754 417.78 162.508 371.395C159.722 366.276 157.241 360.907 154.761 355.538C148.356 341.679 141.954 327.824 130.311 318.291C117.018 307.406 99.9221 304.494 82.6538 301.554C71.6883 299.687 60.6534 297.807 50.4788 293.867C25.9512 284.369 6.90674 261.867 1.59787 236.112C-7.00519 194.375 20.2452 151.763 56.5845 129.491C92.9238 107.218 136.59 101.015 178.947 96.2349C195.149 94.4064 208.311 82.1996 217.711 68.8799C221.35 63.7234 224.624 58.305 227.896 52.8906C233.076 44.3192 238.249 35.7578 244.855 28.2612C272.826 -3.482 324.913 -8.83854 360.54 13.9867C396.167 36.812 413.22 83.7473 403.745 124.977C402.113 132.078 399.797 138.992 397.481 145.908L397.48 145.908C395.263 152.528 393.045 159.148 391.428 165.932C387.971 180.434 387.311 195.44 386.917 210.343C386.448 228.111 386.337 245.925 388.002 263.621C388.581 269.777 389.374 275.925 390.168 282.072C391.971 296.04 393.773 310.002 393.054 324.033Z" fill="#583DFF"/>
<path d="M178.888 83.6388C198.26 74.0038 213.679 57.2708 223.389 37.9395C224.662 35.4048 225.868 32.7117 225.824 29.8758C225.779 27.0398 224.129 24.036 221.385 23.3158C217.452 22.2836 214.07 26.053 211.618 29.295C194.772 51.5662 170.253 69.0501 142.585 72.8632C131.959 74.3276 121.17 73.7776 110.458 73.2247L93.7254 72.361C80.2488 71.6654 66.5851 70.9837 53.3935 73.8267C40.202 76.6696 27.3123 83.507 20.0671 94.8886C17.7609 98.5113 16.0336 102.781 16.6716 107.027C17.3255 111.379 20.4196 115.072 24.1466 117.413C27.8737 119.755 32.2036 120.926 36.4948 121.906C39.6366 122.623 42.8455 123.259 46.0603 123.033C51.3162 122.663 56.0858 120.05 60.7266 117.508C61.0358 117.338 61.3444 117.169 61.6525 117.001C69.7637 112.577 78.1685 108.648 86.9347 105.729C99.7181 101.472 113.16 99.3893 126.569 97.3112C144.632 94.5117 162.636 91.7216 178.888 83.6388Z" fill="#583DFF"/>
<path d="M78.1432 340.32L78.1546 340.32C78.9441 340.352 79.7332 340.383 80.5203 340.424C92.9689 341.071 105.288 344.123 116.599 349.36C120.912 351.357 125.28 353.856 127.702 357.944C130.699 363.003 134.297 367.705 138.395 371.921C139.985 373.557 141.707 375.156 143.83 375.992C145.953 376.827 148.574 376.751 150.296 375.255C152.389 373.438 152.525 370.212 151.88 367.517C150.823 363.101 148.188 359.252 145.579 355.535C137.02 343.337 128.009 331.14 116.098 322.184C104.187 313.227 88.8146 307.804 74.235 310.898C69.201 311.966 64.2117 314.144 60.8741 318.06C57.5365 321.976 56.2176 327.87 58.6214 332.419C60.5283 336.027 64.3943 338.248 68.3523 339.249C71.5423 340.055 74.8467 340.188 78.1432 340.32Z" fill="#583DFF"/>
<path d="M414.864 156.848C411.536 155.594 407.768 157.109 404.951 159.28C399.387 163.567 396.096 170.274 394.599 177.135C393.101 183.997 393.222 191.094 393.35 198.115L394.45 258.445C394.531 262.852 394.727 267.603 397.438 271.079C398.286 272.167 399.448 273.122 400.82 273.262C402.484 273.432 404.023 272.382 405.225 271.218C411.796 264.858 412.658 254.839 413.445 245.707L413.473 245.376C414.629 231.971 416.63 218.639 419.461 205.485C420.257 201.786 421.132 198.064 422.797 194.666C428.018 184.015 426.769 170.493 419.686 160.977C418.405 159.256 416.872 157.605 414.864 156.848Z" fill="#583DFF"/>
</svg>
