<svg width="1404" height="555" viewBox="0 0 1404 555" fill="none" xmlns="http://www.w3.org/2000/svg">
<path d="M180.225 504.752C87 517.703 20.6569 441.327 -5.76981 402.202L958.544 377.896C960.944 373.429 963.039 369.751 965.022 367.088C966.443 370.571 968.094 374.081 969.962 377.608L1396 366.869C1405.98 417.987 1383 538.5 1284.5 553C1199.28 565.545 1016.77 466.022 969.962 377.608L958.544 377.896C942.962 406.902 914.553 469.155 820.728 502.635C715.13 540.315 463.655 470.267 339.815 403.261C322.19 432.15 265.596 492.893 180.225 504.752Z" fill="white"/>
<path d="M1 467.282V0H1404V457.265C1329.36 491.489 1146.39 539.403 1011.64 457.265C876.888 375.128 858.5 384 770.726 427.215C689.246 467.33 546.805 599.303 408.855 504.344C270.904 409.385 79.472 440.07 1 467.282Z" fill="#583DFF"/>
</svg>
