<svg width="327" height="327" viewBox="0 0 327 327" fill="none" xmlns="http://www.w3.org/2000/svg">
<g clip-path="url(#clip0_232_1296)">
<path fill-rule="evenodd" clip-rule="evenodd" d="M163.324 0.294205C163.119 0.351233 162.795 0.312443 162.828 0.102245C162.95 0.0393668 163.087 -0.0253315 163.221 0.0100261C163.354 0.0453837 163.44 0.238017 163.333 0.32465L163.324 0.294205Z" fill="#00160A"/>
<path fill-rule="evenodd" clip-rule="evenodd" d="M164.368 119.875L164.876 120.087C167.631 121.222 169.716 121.86 171.13 121.999C172.629 122.145 174.819 121.874 177.699 121.183L177.644 121.898C177.172 128.155 177.191 132.879 177.699 136.068C178.226 139.378 179.475 142.256 181.446 144.703C179.232 147.18 175.897 149.677 180.011 161.244C182.803 169.096 178.061 196.889 177.644 220.245C177.447 231.298 179.755 241.456 181.446 247.854C185.486 263.14 192.029 276.19 199.252 282.14C202.859 285.112 209.021 288.036 207.15 288.745C193.332 293.977 140.174 287.818 139.956 285.119C139.755 282.64 154.063 282.961 156.088 271.715C160.005 249.963 153.184 210.837 153.377 206.031C153.948 191.835 158.191 174.614 163.5 161.731C163.697 161.251 165.142 161.165 167.085 161.244L167.219 160.699C168.462 155.576 168.675 152.068 167.86 150.175C166.916 147.982 163.698 145.882 158.208 143.874C160.173 142.688 161.632 140.241 162.583 136.532L162.682 136.135C163.577 132.432 164.139 127.012 164.368 119.875Z" fill="#F6F5F5"/>
<path fill-rule="evenodd" clip-rule="evenodd" d="M166.315 197.888C166.9 190.742 166.866 187.993 167.86 180.892C168.148 178.834 167.718 161.906 164.143 164.612C162.803 165.625 163.337 167.886 162.697 169.439C157.388 182.322 153.948 191.835 153.377 206.031C153.084 213.323 152.594 220.648 153.183 227.922C154.226 240.812 164.516 219.878 166.315 197.888Z" fill="#F6F5F5"/>
<path fill-rule="evenodd" clip-rule="evenodd" d="M175.605 227.375C174.186 210.357 177.647 193.368 179.448 176.386C180.027 170.928 180.425 165.33 179.056 160.016C178.323 157.175 177.088 154.414 177.029 151.48C176.971 148.547 178.573 145.265 181.446 144.703C175.829 137.934 174.494 127.881 178.15 119.875C178.397 124.499 178.644 129.124 178.891 133.748C179.023 136.21 179.216 138.844 180.737 140.781C182.258 142.719 185.624 143.358 187.084 141.374C188.631 139.272 191.995 139.456 194.124 140.962C196.253 142.468 197.517 144.878 198.945 147.063C201.435 150.874 204.618 154.212 208.199 157.017C221.56 167.486 229.292 184.28 230.368 201.245C230.987 211.001 220.543 233.357 220.493 248.408C220.456 259.53 230.08 265.138 233.376 266.632C235.834 267.746 238.508 268.371 240.872 269.674C243.236 270.977 245.352 273.216 245.463 275.918C245.576 278.652 243.652 281.029 241.625 282.861C233.625 290.087 222.098 293.185 211.565 290.94C207.648 290.105 203.846 288.557 200.658 286.128C196.37 282.861 193.39 278.188 190.747 273.485C182.763 259.277 176.961 243.625 175.605 227.375Z" fill="#F6F5F5"/>
<path fill-rule="evenodd" clip-rule="evenodd" d="M151.76 73.881C153.331 65.9728 156.766 58.5709 160.172 51.2561C161.849 47.656 165.437 45.0043 169.388 44.4467C168.156 45.3204 166.83 46.331 166.524 47.8047C166.219 49.2784 167.741 51.0542 169.09 50.3732C174.854 47.4633 182.509 48.9074 186.8 53.7143C188.249 55.3375 189.316 57.2563 190.37 59.1569C193.91 65.5408 197.565 72.4553 196.763 79.7012C196.525 81.8581 196.074 84.4959 197.817 85.8021C198.659 86.4335 198.401 87.734 198.041 88.7198C194.359 98.7862 188.666 108.121 181.39 116.02C178.995 118.62 176.027 121.236 172.481 121.182C170.226 121.147 168.153 120.02 166.186 118.922C162.241 116.72 158.251 114.486 154.972 111.387C151.692 108.288 149.146 104.183 148.849 99.6948C148.625 96.3084 149.659 92.7642 148.454 89.5892C147.853 88.0074 146.732 86.6467 146.244 85.0265C145.756 83.4067 146.223 81.259 147.84 80.7345C150.485 79.8764 151.221 76.5951 151.76 73.881Z" fill="#F6F5F5"/>
<path d="M185.3 102.46C186.986 102.46 188.352 101.094 188.352 99.408C188.352 97.7224 186.986 96.356 185.3 96.356C183.614 96.356 182.248 97.7224 182.248 99.408C182.248 101.094 183.614 102.46 185.3 102.46Z" fill="#FFB61D"/>
<path fill-rule="evenodd" clip-rule="evenodd" d="M127.303 287.908C128.255 287.04 129.154 286.22 128.743 285.119C126.181 285.338 123.963 287.603 123.83 290.137C123.698 292.671 125.667 295.149 128.193 295.628C147.468 299.277 167.303 300.032 186.806 297.861C191.504 297.338 196.797 296.266 199.252 292.28C198.506 291.285 196.979 291.963 195.89 292.651L195.502 292.9C191.662 295.318 186.977 295.99 182.405 296.362L181.55 296.429C164.413 297.71 147.118 296.909 130.179 294.05C127.926 293.67 125.023 292.328 125.586 290.142C125.81 289.27 126.573 288.574 127.303 287.908ZM178.914 134.148L178.15 119.875C174.494 127.88 175.829 137.934 181.446 144.703C178.573 145.265 176.971 148.547 177.03 151.48C177.071 153.533 177.688 155.501 178.306 157.471C178.571 158.316 178.836 159.162 179.056 160.015C180.426 165.33 180.027 170.928 179.448 176.386L179.37 177.114C178.928 181.177 178.396 185.24 177.865 189.305C176.206 201.984 174.546 214.672 175.606 227.375C176.961 243.625 182.763 259.277 190.747 273.484C193.39 278.188 196.37 282.861 200.658 286.128C203.846 288.557 207.648 290.105 211.565 290.94C222.098 293.185 233.625 290.086 241.625 282.861C243.653 281.029 245.576 278.652 245.463 275.918C245.352 273.216 243.236 270.977 240.872 269.674C239.496 268.915 238.016 268.387 236.533 267.858C235.469 267.478 234.404 267.098 233.376 266.632C225.619 263.116 220.592 254.333 221.478 245.846C217.104 250.421 219.493 258.417 224.215 262.631C227.259 265.347 230.967 267.078 234.685 268.814C236.734 269.771 238.786 270.729 240.732 271.854C241.858 272.505 243.052 273.361 243.271 274.646C243.457 275.739 242.866 276.807 242.226 277.711C237.676 284.143 229.806 287.436 222.049 288.744C216.963 289.602 211.526 289.698 206.878 287.458C202.853 285.517 199.817 282.024 197.17 278.402L196.827 277.929C183.577 259.523 176.619 236.651 177.369 213.966C177.612 206.603 178.638 199.274 179.663 191.953C181.129 181.489 182.592 171.044 181.761 160.547L195.796 150.233C196.81 149.514 198.405 148.931 199.019 149.992C201.03 153.464 204.101 156.098 207.168 158.729C208.232 159.642 209.295 160.554 210.314 161.501C221.678 172.063 227.75 187.654 228.278 203.179C228.807 218.704 224.116 234.119 216.577 247.691C214.633 251.19 209.685 251.149 205.722 250.643L205.618 250.63C205.303 250.587 204.982 250.526 204.733 250.335C204.192 249.918 204.225 249.123 204.348 248.432L204.38 248.262C206.812 236.131 209.144 223.826 208.432 211.473C207.721 199.121 203.652 186.534 194.896 177.813C197.717 183.47 200.182 189.306 202.268 195.274C203.897 199.933 205.302 204.698 205.893 209.599C206.895 217.902 205.539 226.181 204.179 234.483C203.356 239.503 202.533 244.532 202.228 249.58L202.222 249.69C202.182 250.423 202.201 251.219 202.685 251.76C203.108 252.235 203.777 252.383 204.4 252.505L204.557 252.536C209.196 253.434 215.015 253.786 217.454 249.76C226.255 235.229 231.444 218.21 230.368 201.245C229.292 184.28 221.56 167.486 208.199 157.017L207.864 156.752C204.42 154.003 201.357 150.755 198.945 147.063C198.695 146.68 198.45 146.291 198.204 145.9C197.048 144.061 195.88 142.204 194.124 140.962C191.995 139.455 188.631 139.272 187.084 141.374L187.014 141.466C185.518 143.337 182.234 142.687 180.737 140.781C179.299 138.948 179.048 136.492 178.914 134.148ZM158.504 144.178C164 137.364 165.944 127.852 163.56 119.439L161.419 133.214C161.019 135.732 160.503 138.336 158.863 140.274C157.127 142.326 153.673 143.183 151.74 141.313L151.646 141.225C149.521 139.312 146.143 140.95 143.793 142.736L143.585 142.897C136.147 148.727 128.841 154.871 123.079 162.352C116.662 170.686 112.363 180.413 108.473 190.186L107.756 192C105.307 198.238 103.023 204.671 102.9 211.358C102.773 218.312 105.396 225.694 111.176 229.593C114.233 231.655 114.075 236.111 113.579 239.755L111.629 254.089C110.886 259.609 110.265 265.377 112.323 270.535C114.982 277.199 121.748 281.54 128.751 283.19C135.475 284.774 142.486 284.266 149.379 283.665L160.45 282.693C161.245 282.621 162.071 282.511 162.699 282.027C163.32 281.547 163.636 280.781 163.887 280.039C166.665 271.825 164.498 263.027 162.022 254.572L160.627 249.858C158.077 241.128 156.034 232.191 155.701 223.109C155.228 210.205 158.211 197.464 161.327 184.914L169.018 154.04C169.666 151.439 168.13 148.688 165.966 147.095C163.946 145.61 161.471 144.919 159.027 144.308L158.504 144.178ZM140.109 148.546C141.483 147.414 143.507 146.31 144.9 147.42C150.57 151.935 157.28 155.145 164.361 156.731C165.365 156.956 165.467 158.29 165.3 159.334L165.27 159.504C163.922 166.452 162.056 173.337 160.191 180.216C156.402 194.197 152.621 208.146 153.224 222.515C153.67 233.145 156.516 243.491 159.538 253.717L160.745 257.785C162.531 263.835 164.182 270.338 162.062 276.254C161.555 277.67 160.776 279.079 159.478 279.845C158.461 280.444 157.246 280.581 156.072 280.705L149.313 281.418C142.695 282.112 135.947 282.714 129.484 281.18C122.757 279.584 116.28 275.201 114.113 268.657C112.541 263.91 113.396 258.796 114.227 253.825C114.281 253.502 114.335 253.18 114.388 252.859L114.482 252.284C115.44 246.372 115.98 240.393 116.098 234.406C123.728 243 130.279 252.545 135.549 262.748C135.929 263.483 137.044 263.143 137.749 262.708L138.291 262.372C141.185 260.578 144.092 258.677 146.115 255.956C148.266 253.066 149.218 248.991 147.498 245.827L137.016 226.539C133.243 219.587 129.411 212.08 130.288 204.238C130.848 199.228 133.289 194.664 135.798 190.267L142.242 179.029L141.611 179.71C135.307 186.548 129.196 194.277 128.237 203.474C127.52 210.35 129.811 217.169 132.688 223.477L132.967 224.086C136.068 230.766 139.776 237.143 143.545 243.476L144.96 245.849C146.5 248.429 145.819 251.862 144.096 254.324C142.483 256.628 140.118 258.268 137.756 259.817L137.268 260.137L132.683 252.314C128.667 245.472 124.514 238.591 118.722 233.172C117.689 232.206 116.603 231.284 115.517 230.363C112.795 228.053 110.074 225.744 108.2 222.739C103.303 214.89 105.502 204.723 108.685 195.994L108.881 195.462C115.495 177.657 125.423 160.641 140.109 148.546ZM213.93 256.576L201.322 253.848C200.603 253.699 199.775 253.603 199.252 254.086C199.369 254.849 200.197 255.261 200.97 255.532L201.147 255.592C205.24 256.94 209.462 258.306 213.781 258.057C214.294 258.028 214.954 257.828 214.948 257.335C214.943 256.888 214.385 256.674 213.93 256.576ZM178.76 163.493L178.555 161.731C176.041 162.155 173.477 162.292 170.93 162.137L170.854 162.132C170.106 162.086 169.318 162.038 168.66 162.383C167.98 162.741 167.58 163.709 168.093 164.273C168.431 164.644 168.997 164.692 169.505 164.713L169.741 164.723C172.82 164.849 176.047 164.906 178.76 163.493ZM145.983 145.056C145.553 143.771 147.111 142.556 148.464 142.693C149.613 142.809 150.585 143.505 151.536 144.185C151.571 144.21 151.605 144.234 151.639 144.258L152.041 144.542C155.212 146.737 158.999 147.79 162.769 148.692L164.061 148.996C166.034 149.458 166.397 152.019 166.301 154.076L166.289 154.302C166.277 154.49 166.26 154.691 166.144 154.839C165.908 155.138 165.44 155.05 165.077 154.933L164.7 154.81C158.429 152.771 152.128 150.406 147.001 146.277C146.582 145.94 146.154 145.565 145.983 145.056ZM169.148 44.6176L169.388 44.4467C165.437 45.0043 161.849 47.656 160.172 51.2561C156.766 58.5709 153.331 65.9728 151.76 73.881C151.221 76.5951 150.485 79.8765 147.84 80.7345L147.74 80.7694C146.204 81.3484 145.766 83.4403 146.244 85.0265C146.51 85.9129 146.967 86.7217 147.424 87.5313C147.803 88.2019 148.182 88.8729 148.454 89.5892C149.225 91.6201 149.08 93.8023 148.933 95.9976C148.851 97.2341 148.768 98.4745 148.849 99.6948C149.146 104.183 151.692 108.288 154.971 111.387C157.934 114.186 161.475 116.279 165.04 118.281L166.186 118.922C168.153 120.02 170.226 121.147 172.481 121.182C176.027 121.236 178.995 118.62 181.39 116.02L181.741 115.636C188.849 107.819 194.419 98.6236 198.041 88.7198C198.401 87.734 198.659 86.4335 197.817 85.8021C196.347 84.7008 196.437 82.6529 196.645 80.745L196.763 79.7012C197.543 72.6463 194.099 65.9048 190.649 59.6622L190.194 58.8403C189.196 57.044 188.169 55.2477 186.8 53.7143C182.509 48.9074 174.854 47.4633 169.09 50.3732C167.741 51.0542 166.219 49.2784 166.524 47.8047C166.81 46.4265 167.989 45.4525 169.148 44.6176ZM151.508 88.7072C151.993 85.7986 152.481 82.8761 152.374 79.9676C154.117 84.8652 159.992 87.884 165.019 86.4648C165.552 86.314 166.074 86.1208 166.595 85.9281C167.437 85.6164 168.278 85.3055 169.164 85.1747C170.598 84.9633 172.279 85.3775 172.965 86.6471L173.035 86.7731C175.034 90.2528 180.219 90.5183 183.932 88.8838C185.85 88.0392 187.576 86.842 189.301 85.6447C190.956 84.4959 192.612 83.347 194.439 82.5086C194.742 83.5781 194.46 84.6847 194.202 85.6971C193.976 86.5817 193.769 87.394 193.987 88.0467C194.125 87.8583 194.255 87.6739 194.378 87.4982C195.175 86.3698 195.729 85.5833 196.461 86.1365C197.307 86.7762 197.246 88.5359 196.461 89.4406C196.183 89.761 195.854 90.0457 195.527 90.3287C194.932 90.844 194.342 91.3559 194.063 92.0753C190.483 101.33 184.894 109.811 177.788 116.768C176.917 117.621 175.989 118.473 174.839 118.885C172.391 119.761 169.752 118.437 167.492 117.154L166.407 116.534C159.88 112.772 153.09 108.224 151.189 101.046C150.122 97.0134 150.812 92.8741 151.508 88.7072ZM172.039 89.2117L172.289 89.0403C172.033 87.7205 169.917 87.8204 168.893 88.7273C167.133 90.2838 166.905 93.2259 168.477 94.959C170.05 96.6921 173.189 96.8146 174.835 95.1465C174.871 94.4153 173.912 94.0251 173.158 94.0975C172.921 94.1201 172.683 94.1668 172.445 94.213C171.927 94.3137 171.411 94.414 170.914 94.2688C169.795 93.9409 169.42 92.4773 169.875 91.4357C170.29 90.4848 171.162 89.8155 172.039 89.2117ZM149.6 81.8707L149.985 81.8694C150.546 81.8764 151.315 81.9518 151.189 82.5086C150.784 84.301 150.599 86.3907 150.501 87.823L150.418 89.1353C150.179 89.2278 149.494 88.2869 149.099 87.7454C149.019 87.6346 148.95 87.5409 148.9 87.4755L148.849 87.4114C148.745 87.1842 148.604 86.9161 148.449 86.6218C147.474 84.7636 145.957 81.8707 149.6 81.8707ZM155.89 66.2039C156.199 65.175 156.55 64.0819 157.389 63.4065C158.229 62.7307 159.717 62.7578 160.189 63.724C161.293 65.9885 163.821 67.1884 166.258 67.8694C173.455 69.8807 181.489 68.7144 187.807 64.7411C189.037 63.9677 190.754 64.4852 191.75 65.5403C192.662 66.5074 193.102 67.8067 193.433 69.0998L193.52 69.4521C194.259 72.4928 194.719 75.601 194.892 78.7245C194.919 79.2207 194.93 79.7548 194.654 80.1694C194.488 80.4197 194.235 80.5976 193.987 80.7694L193.602 81.0362C192.508 81.7901 191.375 82.5147 190.096 82.8639C188.666 83.2541 186.993 83.0911 185.916 82.0774L185.79 81.961C183.062 79.5076 178.651 79.1244 175.546 81.0942C175.146 81.3475 174.761 81.6375 174.375 81.927C173.385 82.6699 172.398 83.412 171.19 83.5362C169.388 83.722 167.93 82.5095 166.479 81.3026C165.967 80.8762 165.455 80.4507 164.929 80.0875C162.022 78.0801 157.917 77.9594 154.896 79.7923C152.728 78.2345 153.264 74.9409 154.03 72.393L155.89 66.2039ZM187.997 77.0677L178.601 76.2978C178.065 76.2568 177.498 76.2424 177.048 76.5101C176.567 76.7965 176.383 77.5452 176.853 77.8477C177.036 77.965 177.267 77.9881 177.488 78.0078L187.017 78.8527C188.33 78.9595 189.906 78.905 190.532 77.8408C189.884 77.2478 188.902 77.1419 187.997 77.0677ZM166.517 77.3725C166.66 76.8223 166.341 76.259 165.964 75.8269C163.767 73.3081 159.075 73.5845 157.205 76.3427C156.841 76.8794 156.84 77.9036 157.498 77.8617C159.299 75.5792 163.354 75.5531 165.186 77.8124C165.547 78.2576 166.374 77.9232 166.517 77.3725ZM192.276 75.714C192.429 75.5579 192.38 74.9226 191.952 74.6789C191.635 74.4984 190.738 74.4112 190.588 74.7203C190.251 75.3987 191.807 76.1927 192.276 75.714ZM192.229 73.418C192.389 73.0234 191.628 71.9164 191.19 71.9147C190.805 71.9134 190.325 73.04 190.581 73.4114C190.844 73.7916 192.085 73.7716 192.229 73.418ZM189.564 72.7797C190.09 72.7016 190.509 71.5458 190.096 71.241C189.685 70.938 188.491 71.2559 188.36 71.6343C188.225 72.025 189 72.8634 189.564 72.7797ZM157.609 71.4185C158.154 72.1771 159.53 72.0394 159.914 71.1874C160.298 70.335 159.491 69.211 158.562 69.3043C157.632 69.3976 157.064 70.6594 157.609 71.4185ZM190.111 69.4709C190.714 69.7277 191.615 69.6645 191.667 69.0388C191.618 68.2017 190.697 68.07 190.096 68.1725C189.615 68.2544 189.624 69.2629 190.111 69.4709ZM188.637 69.4504C189.073 69.2084 188.959 67.8895 188.472 67.7234C187.946 67.5429 186.53 67.8995 186.612 68.7571C186.694 69.6152 188.142 69.7255 188.637 69.4504ZM159.391 68.9817C159.916 69.5568 161.042 69.3087 161.277 68.5666C161.512 67.8241 160.735 66.9726 159.975 67.14C159.214 67.3074 158.866 68.407 159.391 68.9817ZM157.829 67.2704C158.249 66.9146 158.309 66.2759 158.064 65.941C157.57 65.2652 157.157 65.2683 156.819 65.6009C156.399 66.0156 156.379 66.714 156.548 67.4361C156.611 67.7064 157.402 67.6327 157.829 67.2704ZM181.563 100.596C180.253 102.313 178.297 103.544 176.162 103.994C176.105 104.006 176.048 104.017 175.991 104.029C175.55 104.118 175.097 104.21 174.757 104.493C174.373 104.812 174.244 105.484 174.649 105.777C174.874 105.941 175.181 105.934 175.461 105.909C179.103 105.582 182.483 103.22 183.992 99.949C183.887 99.4315 183.165 99.2536 182.679 99.4786C182.252 99.6761 181.963 100.063 181.68 100.44C181.641 100.492 181.602 100.545 181.563 100.596Z" fill="#00160A"/>
<path fill-rule="evenodd" clip-rule="evenodd" d="M191.865 198.953C192.814 198.352 193.937 199.534 194.204 200.635C194.473 201.737 194.509 203.063 195.429 203.709C196.37 204.37 197.634 203.904 198.758 203.685C199.883 203.467 201.436 203.892 201.432 205.053C201.431 205.339 201.325 205.614 201.215 205.878C200.241 208.22 198.861 210.387 197.156 212.249C197.516 213.751 198.067 215.206 198.792 216.566C199.277 217.476 198.19 218.569 197.171 218.521C196.152 218.473 195.304 217.758 194.478 217.152C193.652 216.545 192.62 215.994 191.652 216.321C190.818 216.604 190.32 217.442 189.774 218.142C189.227 218.841 188.373 219.5 187.538 219.215C186.529 218.87 186.389 217.487 186.542 216.419C186.743 215.019 187.134 213.647 187.698 212.354C188.098 211.44 187.443 210.38 186.628 209.817C185.813 209.254 184.826 208.97 184.055 208.347C183.284 207.724 182.79 206.528 183.381 205.727C183.667 205.339 184.138 205.141 184.593 204.99C186.11 204.485 187.728 204.292 189.319 204.426C189.928 202.956 190.536 201.486 191.145 200.016C191.312 199.613 191.499 199.185 191.865 198.953Z" fill="black"/>
<path fill-rule="evenodd" clip-rule="evenodd" d="M147.001 146.277C146.583 145.94 146.154 145.565 145.983 145.056C145.553 143.77 147.111 142.556 148.464 142.693C149.613 142.809 150.585 143.505 151.536 144.185C151.705 144.306 151.873 144.426 152.041 144.542C155.574 146.988 159.873 148.016 164.061 148.996C166.107 149.475 166.422 152.211 166.289 154.302C166.277 154.49 166.26 154.691 166.143 154.839C165.908 155.138 165.44 155.05 165.077 154.933C158.681 152.865 152.231 150.488 147.001 146.277ZM146.115 255.956C148.266 253.066 149.218 248.991 147.498 245.827L137.156 226.796C133.338 219.772 129.4 212.177 130.288 204.238C130.885 198.901 133.615 194.071 136.289 189.409L142.242 179.029C135.72 186.034 129.229 193.971 128.237 203.474C127.497 210.572 129.962 217.609 132.968 224.086C136.455 231.601 140.712 238.733 144.96 245.849C146.5 248.43 145.819 251.862 144.096 254.324C142.372 256.787 139.788 258.492 137.268 260.137L133.164 253.135C128.997 246.025 124.745 238.808 118.722 233.173C117.689 232.206 116.603 231.284 115.517 230.363C112.795 228.053 110.074 225.744 108.2 222.739C103.203 214.729 105.595 204.307 108.881 195.462C115.495 177.657 125.423 160.642 140.109 148.546C141.483 147.414 143.507 146.31 144.901 147.42C150.57 151.935 157.28 155.145 164.361 156.731C165.421 156.968 165.476 158.442 165.27 159.504C163.922 166.452 162.056 173.337 160.191 180.216C156.402 194.197 152.621 208.146 153.224 222.515C153.711 234.132 157.065 245.409 160.382 256.561C160.45 256.791 160.519 257.022 160.587 257.252C162.431 263.452 164.244 270.164 162.063 276.254C161.555 277.67 160.776 279.079 159.477 279.845C158.461 280.444 157.246 280.581 156.072 280.705L150.123 281.333C143.246 282.06 136.211 282.777 129.484 281.18C122.757 279.584 116.28 275.201 114.113 268.657C112.541 263.91 113.396 258.796 114.227 253.825C114.314 253.31 114.399 252.796 114.482 252.284C115.44 246.372 115.98 240.393 116.098 234.406C123.728 243 130.279 252.545 135.549 262.748C135.929 263.483 137.044 263.143 137.749 262.708C140.819 260.812 143.965 258.848 146.115 255.956Z" fill="#F6F5F5"/>
<path fill-rule="evenodd" clip-rule="evenodd" d="M195.943 147.558C195.993 147.067 195.71 146.612 195.438 146.201C194.641 144.995 193.806 143.751 192.578 142.992C191.35 142.232 189.61 142.1 188.55 143.082C186.51 144.971 184.138 146.497 181.576 147.57C179.892 148.275 179.043 150.269 179.112 152.098C179.182 153.927 179.979 155.639 180.762 157.292C180.898 157.58 181.079 157.904 181.392 157.958C181.654 158.003 181.901 157.837 182.116 157.68C186.725 154.306 191.334 150.932 195.943 147.558Z" fill="#F6F5F5"/>
<path fill-rule="evenodd" clip-rule="evenodd" d="M86.8625 81.6335C87.0535 81.395 87.1376 81.0885 87.0949 80.7864C87.0539 80.4808 86.8908 80.2052 86.6428 80.0221C86.6428 80.0221 83.5127 77.8504 83.3274 77.931C83.1426 78.0121 85.977 80.9281 85.977 80.9281C80.6574 87.5248 71.0793 88.763 64.2542 83.7364C57.4286 78.7097 55.7796 69.2032 60.5142 62.1757L81.2442 77.8408C81.4953 78.0261 81.8494 77.9724 82.0347 77.7213C82.22 77.4702 61.1891 61.2689 61.1891 61.2689C60.9436 61.0836 60.6332 61.0059 60.3293 61.0539C60.0254 61.1023 59.7542 61.2719 59.5781 61.5243C54.3783 69.0484 56.1223 79.3402 63.5108 84.7357C70.8508 90.1913 81.205 88.8158 86.8625 81.6335ZM65.2234 83.4329C71.0453 87.7476 79.1532 87.1851 84.3193 82.1079C84.5434 81.889 84.5469 81.5306 84.3276 81.307C84.1079 81.0837 83.7482 81.0798 83.5241 81.2987C78.7459 85.9665 71.2759 86.4875 65.8927 82.5286C60.5089 78.5698 58.8024 71.3008 61.8645 65.3712C61.966 65.1907 61.9604 64.9692 61.8501 64.7935C61.7398 64.6182 61.5422 64.5166 61.3347 64.5288C61.1276 64.5415 60.9436 64.6657 60.8551 64.8532C57.514 71.2729 59.3692 79.1623 65.2234 83.4329ZM66.1839 79.5329C66.1477 79.042 66.2707 78.5532 66.5288 78.1591C66.8405 77.7174 67.2259 77.3507 67.6619 77.0804C68.4869 76.5629 68.9778 76.7233 69.2437 76.9487C70.1114 77.6786 69.4365 79.6493 69.0336 80.275C68.714 80.7825 68.203 81.0872 67.6563 81.096C67.3415 81.0981 67.0341 80.9843 66.7799 80.7711C66.4342 80.4764 66.217 80.0251 66.1839 79.5329ZM68.6163 77.921C68.125 78.0828 67.6881 78.4119 67.3637 78.8641C67.2573 79.0245 67.2063 79.2242 67.2194 79.4248C67.2281 79.5782 67.2931 79.7195 67.3986 79.8145C67.6798 79.9946 68.0352 79.8865 68.2013 79.57C68.4821 79.0812 68.6268 78.5061 68.6163 77.921ZM72.0712 82.8299C72.5508 82.8809 73.0304 82.7318 73.3831 82.4218C73.7385 82.1166 73.9626 81.6994 74.0127 81.249C74.0969 80.5387 73.7882 78.6138 72.5909 78.4865C72.2147 78.4459 71.667 78.5794 71.1225 79.4243C70.8317 79.8699 70.6381 80.3656 70.5517 80.8823C70.4942 81.3323 70.6141 81.7861 70.8892 82.158C71.1613 82.5326 71.5925 82.778 72.0712 82.8299ZM72.4584 79.5935C72.7544 80.0543 72.8944 80.5889 72.8595 81.1265C72.8416 81.3109 72.7514 81.4831 72.6071 81.6091C72.4998 81.709 72.3511 81.7587 72.2007 81.7443C72.0525 81.7234 71.9204 81.644 71.8375 81.5258C71.7268 81.3724 71.6801 81.1862 71.7058 81.0026C71.7996 80.472 72.0621 79.9807 72.4584 79.5935ZM76.5123 77.6938C77.5727 77.2247 78.7961 78.7974 79.0856 79.4753V79.4736C79.4998 80.3517 79.1414 81.4064 78.2838 81.8345C78.0876 81.9226 77.8752 81.968 77.6612 81.968C77.4209 81.9666 77.1846 81.9121 76.9671 81.8079C76.5524 81.6091 76.2232 81.2616 76.0427 80.8313C75.7541 80.1542 75.4524 78.163 76.5123 77.6938ZM77.4292 80.7842C77.5574 80.8483 77.7061 80.8544 77.8386 80.8008C78.1342 80.6211 78.2362 80.234 78.0688 79.927C77.8251 79.4291 77.4392 79.0184 76.9623 78.7494C76.8306 79.2896 76.8628 79.8586 77.0551 80.3796C77.1271 80.5566 77.26 80.7009 77.4292 80.7842ZM63.7702 68.0299C63.3203 67.9728 62.8664 68.0927 62.4945 68.3674C62.1195 68.6394 61.8745 69.0706 61.8217 69.5494C61.7568 70.5495 62.4657 71.4176 63.4075 71.4904C63.4903 71.5 63.5736 71.5044 63.6573 71.504C64.4892 71.504 66.0566 71.1451 66.1721 70.0678C66.2933 68.8696 64.4809 68.1145 63.7702 68.0299ZM63.5269 70.3372C63.1868 70.332 62.913 70.0399 62.9087 69.6789C62.9292 69.5302 63.0089 69.3981 63.1275 69.3157C63.2531 69.2237 63.4022 69.1753 63.5548 69.1775C63.5867 69.1775 63.6185 69.1775 63.6512 69.1831C64.1831 69.2769 64.6753 69.5402 65.0634 69.9378C64.6008 70.2335 64.0645 70.3725 63.5256 70.3372H63.5269ZM62.8241 75.7685C62.6362 75.3456 62.6458 74.8629 62.8502 74.4474C63.0499 74.0314 63.3974 73.7018 63.8278 73.5205C64.5036 73.2296 66.4943 72.9336 66.9639 73.9913C67.433 75.0486 65.8617 76.2825 65.1837 76.5729C64.9365 76.6797 64.6692 76.7355 64.3989 76.736C64.2049 76.736 64.0117 76.7063 63.8269 76.6479C63.3782 76.5127 63.012 76.1914 62.8241 75.7685ZM65.3341 74.3615C64.9744 74.3554 64.6169 74.4151 64.2799 74.5381H64.2816C64.1042 74.6096 63.9594 74.743 63.8757 74.9126C63.8064 75.0399 63.8003 75.1916 63.8587 75.3237C63.9176 75.4559 64.0344 75.5544 64.1766 75.591C64.3601 75.6455 64.5572 75.6324 64.7316 75.5544C65.2295 75.3102 65.6402 74.9231 65.9097 74.4443C65.7252 74.3794 65.5295 74.351 65.3341 74.3615Z" fill="black"/>
<path fill-rule="evenodd" clip-rule="evenodd" d="M268.477 246.442C268.286 246.203 268.202 245.897 268.245 245.595C268.286 245.289 268.449 245.013 268.697 244.83C268.697 244.83 271.827 242.658 272.012 242.739C272.197 242.82 269.363 245.736 269.363 245.736C274.683 252.333 284.261 253.571 291.086 248.545C297.911 243.518 299.56 234.011 294.826 226.984L274.096 242.649C273.844 242.834 273.49 242.781 273.305 242.529C273.119 242.278 294.151 226.077 294.151 226.077C294.396 225.892 294.707 225.814 295.011 225.862C295.315 225.91 295.586 226.08 295.761 226.332C300.961 233.857 299.218 244.148 291.829 249.544C284.489 254.999 274.135 253.624 268.477 246.442ZM290.117 248.241C284.295 252.556 276.187 251.993 271.021 246.916C270.796 246.697 270.793 246.339 271.012 246.115C271.232 245.892 271.592 245.888 271.816 246.107C276.594 250.775 284.064 251.296 289.447 247.337C294.831 243.378 296.538 236.109 293.475 230.179C293.374 229.999 293.379 229.777 293.489 229.602C293.6 229.426 293.798 229.325 294.005 229.337C294.212 229.35 294.396 229.474 294.485 229.661C297.825 236.081 295.971 243.97 290.117 248.241ZM289.156 244.341C289.192 243.85 289.069 243.361 288.811 242.967C288.499 242.525 288.114 242.159 287.678 241.889C286.853 241.371 286.362 241.531 286.096 241.757C285.229 242.487 285.903 244.457 286.306 245.083C286.626 245.591 287.137 245.895 287.684 245.904C287.998 245.906 288.306 245.792 288.56 245.579C288.906 245.285 289.123 244.833 289.156 244.341ZM286.724 242.729C287.215 242.891 287.652 243.22 287.976 243.672C288.083 243.833 288.134 244.032 288.121 244.233C288.112 244.386 288.046 244.528 287.941 244.623C287.66 244.803 287.305 244.695 287.139 244.378C286.858 243.889 286.713 243.314 286.724 242.729ZM283.268 247.638C282.789 247.689 282.31 247.54 281.957 247.23C281.601 246.925 281.377 246.508 281.327 246.057C281.243 245.347 281.552 243.422 282.749 243.295C283.125 243.254 283.673 243.387 284.217 244.232C284.508 244.678 284.702 245.174 284.788 245.69C284.846 246.14 284.726 246.594 284.451 246.966C284.179 247.341 283.747 247.586 283.268 247.638ZM282.881 244.402C282.586 244.862 282.446 245.397 282.48 245.935C282.498 246.119 282.588 246.291 282.733 246.417C282.84 246.517 282.989 246.567 283.139 246.552C283.287 246.531 283.42 246.452 283.502 246.334C283.613 246.181 283.66 245.994 283.634 245.811C283.54 245.28 283.278 244.789 282.881 244.402ZM278.827 242.502C277.767 242.033 276.543 243.605 276.254 244.283V244.282C275.84 245.16 276.199 246.214 277.056 246.643C277.252 246.731 277.464 246.776 277.679 246.776C277.919 246.775 278.155 246.72 278.372 246.616C278.788 246.417 279.116 246.07 279.297 245.639C279.586 244.962 279.888 242.971 278.827 242.502ZM277.911 245.592C277.783 245.656 277.634 245.663 277.501 245.609C277.206 245.429 277.104 245.042 277.271 244.735C277.514 244.237 277.9 243.827 278.378 243.558C278.509 244.098 278.477 244.667 278.285 245.188C278.213 245.365 278.079 245.509 277.911 245.592ZM291.569 232.838C292.019 232.781 292.474 232.901 292.845 233.175C293.22 233.448 293.465 233.879 293.518 234.357C293.583 235.358 292.874 236.226 291.932 236.299C291.85 236.308 291.766 236.313 291.683 236.312C290.851 236.312 289.283 235.953 289.168 234.876C289.047 233.678 290.859 232.923 291.569 232.838ZM291.813 235.145C292.153 235.14 292.427 234.848 292.431 234.487C292.41 234.338 292.331 234.206 292.212 234.124C292.087 234.032 291.937 233.983 291.785 233.986C291.753 233.986 291.721 233.986 291.689 233.991C291.157 234.085 290.664 234.348 290.277 234.746C290.739 235.042 291.275 235.181 291.814 235.145H291.813ZM292.516 240.577C292.703 240.154 292.694 239.671 292.49 239.255C292.29 238.84 291.943 238.51 291.512 238.329C290.836 238.038 288.845 237.742 288.376 238.799C287.907 239.857 289.478 241.091 290.156 241.381C290.403 241.488 290.671 241.544 290.941 241.544C291.135 241.544 291.328 241.514 291.513 241.456C291.962 241.321 292.328 241 292.516 240.577ZM290.006 239.17C290.365 239.164 290.723 239.223 291.06 239.346H291.058C291.236 239.418 291.38 239.551 291.464 239.721C291.534 239.848 291.54 240 291.481 240.132C291.422 240.264 291.305 240.363 291.163 240.399C290.98 240.454 290.783 240.441 290.608 240.363C290.11 240.118 289.7 239.731 289.43 239.252C289.615 239.187 289.81 239.159 290.006 239.17Z" fill="black"/>
<path d="M159.14 104.64C160.825 104.64 162.192 103.274 162.192 101.588C162.192 99.9024 160.825 98.536 159.14 98.536C157.454 98.536 156.088 99.9024 156.088 101.588C156.088 103.274 157.454 104.64 159.14 104.64Z" fill="#FFB61D"/>
<path fill-rule="evenodd" clip-rule="evenodd" d="M151.624 254.275C152.012 255.242 150.74 259.731 147.42 262.948C144.1 266.166 139.79 266.929 139.437 266.048C139.084 265.166 143.914 263.433 146.962 260.292C150.011 257.151 151.237 253.308 151.624 254.275Z" fill="#00160A"/>
</g>
<defs>
<clipPath id="clip0_232_1296">
<rect width="327" height="327" fill="white"/>
</clipPath>
</defs>
</svg>
