<svg width="367" height="370" viewBox="0 0 367 370" fill="none" xmlns="http://www.w3.org/2000/svg">
<g clip-path="url(#clip0_235_394)">
<path fill-rule="evenodd" clip-rule="evenodd" d="M174.5 276.417C129.232 266.429 68.9173 246.607 78.8287 178.596C88.7402 110.584 131.227 84.36 183.791 84.36C236.353 84.36 296.072 124.34 284.349 207.163C272.625 289.986 219.768 286.405 174.5 276.417ZM323.293 194.434C325.162 175.509 323.176 156.784 317.841 139.231L333.063 131.01C335.628 129.625 336.593 126.406 335.222 123.82L314.44 84.7043C313.064 82.1183 309.871 81.1454 307.305 82.5302L292.083 90.7506C280.544 76.55 266.183 64.5083 249.524 55.5903L254.517 38.9334C255.361 36.1254 253.786 33.1613 251 32.3124L208.869 19.4687C206.083 18.6198 203.145 20.2076 202.301 23.0156L197.308 39.6727C178.534 37.7887 164.856 44.7243 147.445 50.1L139.291 34.7531C137.917 32.1672 134.724 31.194 132.16 32.579L93.3609 53.5321C90.7959 54.9169 89.8304 58.1359 91.2045 60.7214L99.3582 76.0685C85.2728 87.7023 68.4348 97.2468 59.5896 114.045L43.0672 109.008C40.2824 108.159 37.3419 109.747 36.4999 112.554L23.7608 155.03C22.9188 157.838 24.4937 160.802 27.2785 161.652L43.801 166.688C41.9322 185.612 43.9183 204.337 49.25 221.89L34.028 230.111C31.463 231.496 30.4977 234.715 31.8714 237.301L52.6548 276.417C54.0283 279.003 57.2212 279.976 59.7858 278.591L75.0085 270.37C86.5475 284.571 100.908 296.613 117.57 305.531L112.574 322.188C111.732 324.996 113.307 327.96 116.092 328.809L158.224 341.651C161.006 342.501 163.948 340.913 164.792 338.104L169.785 321.449C188.555 323.333 207.13 321.33 224.541 315.954L232.693 331.301C234.069 333.887 237.262 334.858 239.828 333.475L278.626 312.522C281.188 311.137 282.158 307.918 280.781 305.333L272.625 289.986C286.714 278.352 298.656 263.874 307.504 247.076L324.024 252.113C326.811 252.962 329.753 251.375 330.592 248.566L343.331 206.091C344.174 203.283 342.599 200.319 339.813 199.47L323.293 194.434Z" fill="#583DFF"/>
<path fill-rule="evenodd" clip-rule="evenodd" d="M241.776 98.9385L240.309 98.8882L240.268 100.202C240.198 102.567 240.23 105.097 240.265 107.855C240.29 109.777 240.315 111.81 240.309 113.975L240.065 118.251C240.072 122.235 240.1 127.78 240.149 134.886L240.308 155.114C239.23 155.475 238.419 156.413 238.257 157.555C237.367 157.692 236.684 158.454 236.684 159.37C236.684 160.019 237.027 160.589 237.542 160.916L236.915 162.445C236.636 163.125 236.176 163.706 235.585 164.126C232.992 165.964 231.465 168.942 231.501 172.092C231.502 172.176 231.504 172.26 231.508 172.343C231.519 172.645 231.775 172.877 232.082 172.869C232.387 172.858 232.626 172.604 232.615 172.302C232.612 172.229 232.61 172.155 232.609 172.08C232.577 169.287 234.421 166.646 236.72 165.015C237.482 164.474 238.074 163.728 238.431 162.856L238.619 161.207H239.407C239.407 161.207 239.68 162.691 239.68 163.852C239.68 165.014 239.407 167.313 239.407 167.313H238.499C237.459 167.313 236.613 168.149 236.613 169.176C236.613 170.202 237.459 171.038 238.499 171.038H238.629C239.669 171.038 240.025 170.502 240.025 169.176C240.025 168.482 240.102 167.985 241.225 167.985C242.349 167.985 242.06 169.176 242.06 169.176C242.06 170.202 242.906 171.038 243.946 171.038H244.076C245.116 171.038 245.962 170.202 245.962 169.176C245.962 168.149 244.208 167.28 243.168 167.28C243.168 167.28 242.891 165.19 242.891 164.126C242.891 163.228 243.168 161.393 243.168 161.393H242.06C242.06 161.393 242.291 163.106 242.291 164.151C242.291 165.196 242.06 167.28 242.06 167.28C242.06 167.28 241.449 167.391 241.157 167.397C240.866 167.404 240.515 167.313 240.515 167.313C240.515 167.313 240.272 165.176 240.272 164.151C240.272 163.126 240.515 161.207 240.515 161.207H242.06H243.168H243.956L244.632 162.856C244.973 163.685 245.99 164.412 246.766 164.967L246.865 165.037C249.113 166.647 249.966 169.242 249.966 171.98C249.966 174.294 249.047 176.461 247.379 178.085C245.711 179.709 243.502 181.078 241.157 181.043C239.298 181.017 237.398 179.984 235.912 178.864C234.473 177.781 232.609 174.816 232.299 174.131C231.989 173.447 231.843 174.527 231.933 174.816C232.53 176.724 233.752 178.448 235.372 179.669C237.048 180.931 239.043 181.614 241.141 181.644C243.785 181.682 246.276 180.695 248.157 178.864C250.038 177.034 251.074 174.589 251.074 171.98C251.074 168.893 249.561 165.966 247.026 164.151C246.408 163.709 245.936 163.119 245.66 162.445L245.032 160.916C245.547 160.589 245.89 160.019 245.89 159.37C245.89 158.454 245.207 157.692 244.317 157.555C244.134 156.268 243.127 155.239 241.841 155.005H241.77L240.92 136.195C240.869 129.034 241.534 114.723 241.534 114.723C241.546 109.219 241.613 104.394 241.735 100.248L241.776 98.9385ZM243.946 169.944C243.517 169.944 243.168 169.599 243.168 169.176V167.985C243.168 167.985 244.854 168.325 244.854 169.176C244.854 169.956 244.56 169.951 244.18 169.945H244.179C244.146 169.944 244.111 169.944 244.076 169.944H243.946ZM237.297 169.176C237.368 170.245 239.57 170.712 239.407 169.176V167.985C239.407 167.985 237.225 168.106 237.297 169.176ZM239.387 157.533C239.59 156.684 240.365 156.049 241.287 156.049C242.209 156.049 242.984 156.684 243.187 157.533H239.387ZM244.031 158.628H243.794H238.781H238.544C238.13 158.628 237.793 158.961 237.793 159.37C237.793 159.779 238.13 160.112 238.544 160.112H244.031C244.445 160.112 244.782 159.779 244.782 159.37C244.782 158.961 244.445 158.628 244.031 158.628ZM253.526 163.392H254.494C254.767 163.392 254.989 163.171 254.989 162.899C254.989 162.626 254.767 162.405 254.494 162.405H253.526C253.253 162.405 253.031 162.626 253.031 162.899C253.031 163.171 253.253 163.392 253.526 163.392ZM252.756 166.884L253.688 167.28C253.951 167.391 254.079 167.707 253.973 167.985C253.868 168.263 253.569 168.398 253.306 168.286L252.374 167.891C252.112 167.779 251.984 167.463 252.089 167.186C252.17 166.974 252.362 166.845 252.566 166.845C252.629 166.845 252.694 166.858 252.756 166.884ZM251.924 158.84L252.797 158.133C253.044 157.934 253.105 157.54 252.935 157.251C252.83 157.074 252.66 156.979 252.489 156.979C252.382 156.979 252.275 157.015 252.18 157.091L251.307 157.798C251.061 157.997 251 158.392 251.17 158.679C251.341 158.967 251.678 159.038 251.924 158.84ZM228.559 163.392H227.591C227.318 163.392 227.097 163.171 227.097 162.899C227.097 162.626 227.318 162.405 227.591 162.405H228.559C228.832 162.405 229.054 162.626 229.054 162.899C229.054 163.171 228.832 163.392 228.559 163.392ZM229.329 166.884L228.397 167.28C228.135 167.391 228.007 167.707 228.112 167.985C228.218 168.263 228.516 168.398 228.779 168.286L229.711 167.891C229.973 167.779 230.101 167.463 229.995 167.186C229.915 166.974 229.723 166.845 229.52 166.845C229.456 166.845 229.392 166.858 229.329 166.884ZM230.161 158.84L229.287 158.133C229.041 157.934 228.98 157.54 229.15 157.252C229.256 157.074 229.424 156.979 229.597 156.979C229.703 156.979 229.811 157.015 229.904 157.091L230.777 157.798C231.024 157.996 231.085 158.391 230.915 158.679C230.745 158.967 230.407 159.038 230.161 158.84Z" fill="#FFB61D"/>
<path d="M169.487 236.692C174.885 238.125 177.654 241.533 179.993 244.708C182.337 247.882 177.185 246.372 174.342 245.226C171.499 244.08 164.653 239.843 164.653 239.843L141.958 232.922V222.339L148.745 221.94C148.745 221.94 164.085 235.26 169.487 236.692Z" fill="#F6F5F5"/>
<path d="M145.971 159.184C150.825 177.706 153.33 195.428 153.727 212.428C153.727 212.428 158.272 213.001 157.705 217.011C157.137 221.022 145.202 231.906 145.202 231.906L141.068 218.088L139.521 167.17L145.971 159.184Z" fill="#F6F5F5"/>
<path fill-rule="evenodd" clip-rule="evenodd" d="M147.627 168.663L144.84 166.799C144.662 166.68 144.427 166.773 144.363 166.987L143.391 170.241C143.31 170.513 143.551 170.766 143.802 170.674L147.561 169.283C147.818 169.189 147.857 168.817 147.627 168.663ZM147.289 169.201L143.864 170.2L144.884 167.24L147.289 169.201Z" fill="#FFB61D"/>
<path fill-rule="evenodd" clip-rule="evenodd" d="M146.404 192.097L143.616 190.232C143.438 190.113 143.203 190.206 143.139 190.42L142.167 193.675C142.086 193.946 142.328 194.2 142.579 194.107L146.338 192.717C146.594 192.622 146.634 192.25 146.404 192.097ZM146.066 192.634L142.641 193.633L143.66 190.673L146.066 192.634Z" fill="#FFB61D"/>
<path fill-rule="evenodd" clip-rule="evenodd" d="M144.938 205.262L145.146 201.896C145.159 201.681 144.962 201.522 144.746 201.574L141.464 202.352C141.191 202.417 141.093 202.755 141.299 202.928L144.373 205.515C144.582 205.691 144.921 205.539 144.938 205.262ZM144.307 205.236L141.736 202.745L144.789 202.155L144.307 205.236Z" fill="#FFB61D"/>
<path fill-rule="evenodd" clip-rule="evenodd" d="M150.221 202.779L146.883 202.57C146.669 202.556 146.512 202.755 146.563 202.973L147.335 206.281C147.399 206.557 147.735 206.654 147.906 206.448L150.472 203.349C150.647 203.137 150.496 202.796 150.221 202.779ZM150.195 203.415L147.724 206.006L147.14 202.929L150.195 203.415Z" fill="#FFB61D"/>
<path fill-rule="evenodd" clip-rule="evenodd" d="M147.644 219.935L144.649 221.437C144.457 221.533 144.42 221.784 144.572 221.947L146.882 224.423C147.074 224.629 147.413 224.546 147.459 224.28L148.144 220.302C148.191 220.032 147.891 219.812 147.644 219.935ZM147.937 220.499L147.083 223.989L145.05 221.619L147.937 220.499Z" fill="#FFB61D"/>
<path fill-rule="evenodd" clip-rule="evenodd" d="M149.112 210.562L146.117 212.064C145.926 212.159 145.888 212.411 146.04 212.574L148.35 215.05C148.542 215.256 148.881 215.172 148.927 214.907L149.612 210.929C149.659 210.658 149.359 210.438 149.112 210.562ZM149.405 211.126L148.551 214.616L146.518 212.246L149.405 211.126Z" fill="#FFB61D"/>
<path d="M129.696 170.321L126.404 180.344C118.876 203.299 115.17 214.95 115.058 216.042C114.989 216.72 115.397 217.228 116.027 217.4C116.405 217.504 116.868 217.498 117.442 217.412C118.336 217.279 119.531 216.941 120.974 216.438C122.089 216.05 123.295 215.584 124.516 215.079L125.03 214.866C125.196 214.796 125.358 214.727 125.516 214.66L126.332 214.305L126.564 214.202L126.7 213.984C126.94 213.599 127.283 212.916 127.621 211.979C127.918 211.157 128.155 210.276 128.311 209.345L128.365 208.994C128.413 208.652 128.879 207.862 129.838 206.511L130.507 205.588C131.056 204.843 132.111 203.419 132.217 203.275L132.838 202.427C133.431 201.612 133.949 200.884 134.455 200.15C136.992 196.467 138.785 193.243 139.843 190.141C140.74 187.51 141.055 185.072 140.699 182.83C140.155 179.409 140.364 176.139 141.158 173.071C141.818 170.522 139.731 168.169 136.722 167.305C133.612 166.412 130.651 167.423 129.696 170.321Z" fill="#F6F5F5"/>
<path d="M135.208 155.5C137.042 157.463 138.581 158.959 139.825 159.989C141.919 161.726 144.923 163.586 148.834 165.572C136.87 168.365 129.564 168.917 126.917 167.228C126.917 167.228 128.02 161.998 129.604 159.757C130.784 158.089 135.208 155.5 135.208 155.5Z" fill="#F6F5F5"/>
<path d="M154.24 130.285C151.754 139.804 144.962 149.741 137.73 147.822C130.497 145.902 126.495 132.893 128.98 123.374C131.466 113.856 139.345 107.696 146.577 109.615C153.809 111.534 156.726 120.768 154.24 130.285Z" fill="#F6F5F5"/>
<path d="M155.894 133.321C153.081 144.214 145.395 155.586 137.21 153.39C129.025 151.193 124.495 136.305 127.308 125.412C130.122 114.519 139.037 107.469 147.222 109.665C155.407 111.861 158.708 122.429 155.894 133.321Z" fill="#F6F5F5"/>
<path fill-rule="evenodd" clip-rule="evenodd" d="M142.833 110.918C148.41 111.237 152.48 113.085 154.762 116.34L155.019 116.716C156.148 118.358 157.097 119.392 157.512 122.499L157.552 122.83C157.789 124.874 157.858 127.031 157.736 127.747C157.671 128.049 157.542 128.155 157.379 128.123C157.011 128.05 156.056 126.34 154.516 122.992L153.223 124.517C152.519 125.337 151.027 126.109 150.143 126.689C149.259 127.27 142.833 110.918 142.833 110.918Z" fill="#E7EAEE"/>
<path fill-rule="evenodd" clip-rule="evenodd" d="M148.463 141.839C151.569 143.145 153.928 144.841 154.554 144.135C155.179 143.43 153.046 141.282 151.389 138.364C149.653 135.463 148.005 131.809 147.697 130.322L146.908 126.564C144.6 129.5 142.44 139.351 148.463 141.839Z" fill="#F6F5F5"/>
<path d="M184.571 321.22L184.402 331.669H178.507L176.741 319.68L184.571 321.22Z" fill="#F6F5F5"/>
<path d="M120.004 265.654C120.004 265.654 158.257 264.803 170.282 263.054C183.631 261.112 190.931 256.525 193.834 257.067C195.194 257.321 203.224 258.756 219.978 260.552C227.064 261.312 245.457 261.429 245.457 261.429L252.596 246.11C252.596 246.11 202.359 235.942 186.476 240.343C181.48 241.727 170.661 243.725 157.798 242.995C146.675 242.364 116.424 236.441 116.424 236.441C116.424 236.441 104.209 240.861 106.42 251.732C108.631 262.602 120.004 265.654 120.004 265.654Z" fill="#F6F5F5"/>
<path fill-rule="evenodd" clip-rule="evenodd" d="M248.503 252.664L250.855 245.799C250.855 245.799 200.703 236.368 184.819 240.769C179.824 242.154 175.309 244.436 162.446 243.707C157.521 243.427 149.102 242.266 137.188 240.221C131.16 239.187 130.193 239.57 134.929 242.692C145.914 249.935 170.348 248.228 192.518 244.964C233.72 238.899 248.503 252.664 248.503 252.664Z" fill="#E7EAEE"/>
<path d="M177.915 323.593C175.42 326.373 172.112 330.951 173.815 335.534L203.365 344.7C203.365 344.7 204.501 341.262 202.798 338.4C201.09 335.534 184.967 324.226 184.967 324.226L177.915 323.593Z" fill="#F6F5F5"/>
<path fill-rule="evenodd" clip-rule="evenodd" d="M191.555 329.802C191.751 329.748 191.952 329.865 192.005 330.062C192.058 330.259 191.943 330.462 191.747 330.516C190.785 330.778 190.15 331.392 189.928 332.168C189.639 333.172 189.608 334.198 189.935 335.842C189.975 336.042 189.846 336.237 189.647 336.277C189.449 336.317 189.255 336.187 189.215 335.987C188.865 334.23 188.901 333.083 189.223 331.962C189.518 330.934 190.349 330.131 191.555 329.802Z" fill="#E7EAEE"/>
<path fill-rule="evenodd" clip-rule="evenodd" d="M175.283 336.028L204.355 344.652C204.355 344.652 208.047 343.869 204.229 343.322C200.307 342.76 177.341 332.158 174.815 334.089C174.456 334.364 175.06 335.429 175.283 336.028Z" fill="#E7EAEE"/>
<path d="M102.844 263.468C102.844 263.468 115.962 267.642 126.525 269.207C137.089 270.772 158.16 271.662 158.16 271.662C158.16 271.662 164.739 275.268 165.163 276.937C165.329 277.587 166.325 286.181 169.082 297.159C170.378 302.323 177.306 325.675 177.306 325.675L186.476 321.582C186.476 321.582 186.108 278.661 180.254 264.426C174.401 250.19 114.231 236.363 114.231 236.363C114.231 236.363 101.461 234.034 97.9846 244.563C94.5079 255.092 102.844 263.468 102.844 263.468Z" fill="#F6F5F5"/>
<path fill-rule="evenodd" clip-rule="evenodd" d="M178.774 324.195L187.944 320.102C187.698 291.488 185.625 272.436 181.722 262.946C181.722 262.946 185.71 313.468 178.774 324.195Z" fill="#E7EAEE"/>
<path d="M258.738 253.227C261.019 256.188 264.917 260.267 269.69 259.372L283.775 231.624C283.775 231.624 280.15 230.008 277.06 231.202C273.964 232.4 260.348 246.724 260.348 246.724L258.738 253.227Z" fill="#F6F5F5"/>
<path fill-rule="evenodd" clip-rule="evenodd" d="M197.558 334.729C197.705 334.588 197.937 334.593 198.078 334.74C198.218 334.888 198.213 335.122 198.066 335.263C197.213 336.087 197.055 337.467 197.545 338.3C197.648 338.476 197.59 338.703 197.416 338.807C197.241 338.911 197.016 338.853 196.913 338.677C196.253 337.553 196.455 335.795 197.558 334.729Z" fill="#E7EAEE"/>
<path fill-rule="evenodd" clip-rule="evenodd" d="M194.561 332.289C194.709 332.149 194.941 332.156 195.08 332.305C195.218 332.454 195.211 332.688 195.063 332.828L194.865 333.021C193.321 334.552 192.879 335.89 194.238 337.327C194.378 337.475 194.372 337.709 194.226 337.85C194.079 337.991 193.846 337.985 193.707 337.837C192.702 336.776 192.496 335.629 192.941 334.482C193.248 333.691 193.782 333.027 194.561 332.289Z" fill="#E7EAEE"/>
<path fill-rule="evenodd" clip-rule="evenodd" d="M180.435 331.804C181.278 333.428 185.75 332.761 184.972 328.271C184.604 326.147 178.102 327.307 180.435 331.804Z" fill="#E7EAEE"/>
<path fill-rule="evenodd" clip-rule="evenodd" d="M266.897 259.888C272.808 253.079 276.205 237.765 281.072 232.495C282.79 230.635 285.018 230.218 282.62 234.621C278.231 242.678 269.796 259.888 269.796 259.888C269.35 260.114 268.798 259.888 268.298 259.888H266.897Z" fill="#E7EAEE"/>
<path d="M169.487 236.692C174.885 238.125 177.654 241.533 179.993 244.708C182.337 247.882 177.185 246.372 174.342 245.226C171.499 244.08 166.06 239.732 166.06 239.732L169.487 236.692Z" fill="#F6F5F5"/>
<path d="M120.324 223.803C120.324 223.803 150.707 236.961 154.988 236.979C159.265 236.996 169.761 242.134 170.329 246.145C171.019 251.023 152.713 243.853 152.713 243.853C152.713 243.853 111.8 243.853 104.983 236.979C98.1627 230.104 102.708 215.782 102.708 215.782L120.324 223.803Z" fill="#F6F5F5"/>
<path d="M112.935 162.505C112.935 162.505 120.324 167.087 121.459 181.982C122.595 196.877 118.049 214.637 118.049 214.637C118.049 214.637 120.892 216.928 121.459 219.22C122.027 221.511 120.3 224.536 120.3 224.536C120.3 224.536 103.277 232.969 102.14 233.542C101.004 234.114 96.458 232.396 96.458 227.812C96.458 223.23 98.1628 219.22 98.1628 219.22C98.9786 188.986 94.1851 159.64 112.935 162.505Z" fill="#F6F5F5"/>
<path fill-rule="evenodd" clip-rule="evenodd" d="M143.034 130.81C144.781 128.45 148.476 127.682 149.461 131.407C149.461 131.407 150.219 133.654 148.692 135.043C144.016 139.298 141.286 133.169 143.034 130.81Z" fill="#F6F5F5"/>
<path fill-rule="evenodd" clip-rule="evenodd" d="M152.794 133.369C154.454 131.128 157.964 130.398 158.9 133.937C158.9 133.937 159.62 136.072 158.17 137.391C153.726 141.433 151.133 135.611 152.794 133.369Z" fill="#F6F5F5"/>
<path d="M139.198 162.062C139.198 162.062 139.198 189.6 139.599 204.988C140 220.377 136.502 235.539 129.817 247.396C123.133 259.254 124.043 276.216 119.116 277.477C80.1426 287.45 90.6353 165.406 105.056 157.607C119.476 149.808 124.239 148.156 124.239 148.156" fill="#F6F5F5"/>
<path fill-rule="evenodd" clip-rule="evenodd" d="M119.21 169.788L115.852 174.844C115.573 175.263 115.783 175.834 116.266 175.969L120.747 177.218C121.269 177.363 121.761 176.91 121.665 176.374L120.542 170.069C120.426 169.414 119.577 169.235 119.21 169.788ZM119.94 170.566L120.943 176.505L117.046 174.844L119.94 170.566Z" fill="#FFB61D"/>
<path fill-rule="evenodd" clip-rule="evenodd" d="M108.404 164.85L104.446 171.255C104.193 171.665 104.389 172.204 104.845 172.351L111.756 174.585C112.331 174.771 112.871 174.215 112.674 173.639L109.721 165C109.52 164.411 108.731 164.321 108.404 164.85ZM109.342 165.631L111.364 173.639L105.372 171.255L109.342 165.631Z" fill="#FFB61D"/>
<path fill-rule="evenodd" clip-rule="evenodd" d="M105.966 213.31L108.658 223.511C108.823 224.138 109.652 224.262 109.991 223.711L113.994 217.204C114.216 216.843 114.092 216.368 113.723 216.164L107.027 212.471C106.461 212.158 105.8 212.681 105.966 213.31ZM106.675 213.613L112.881 216.814L109.367 223.321L106.675 213.613Z" fill="#FFB61D"/>
<path fill-rule="evenodd" clip-rule="evenodd" d="M100.574 250.767L102.042 257.759C102.177 258.401 103.011 258.561 103.371 258.015L107.337 252C107.63 251.556 107.375 250.955 106.855 250.862L101.421 249.885C100.908 249.793 100.466 250.253 100.574 250.767ZM101.855 250.656L106.564 252.339L102.501 257.017L101.855 250.656Z" fill="#FFB61D"/>
<path fill-rule="evenodd" clip-rule="evenodd" d="M113.296 249.287L114.764 256.279C114.899 256.921 115.734 257.081 116.094 256.535L120.06 250.52C120.353 250.076 120.098 249.475 119.577 249.381L114.143 248.405C113.631 248.313 113.189 248.773 113.296 249.287ZM113.976 249.895L119.458 249.742L114.947 255.587L113.976 249.895Z" fill="#FFB61D"/>
<path fill-rule="evenodd" clip-rule="evenodd" d="M106.446 234.98L107.914 241.972C108.049 242.614 108.883 242.775 109.243 242.229L113.209 236.213C113.502 235.769 113.247 235.168 112.727 235.075L107.293 234.098C106.78 234.006 106.338 234.467 106.446 234.98ZM107.164 234.827L112.109 236.296L108.143 241.326L107.164 234.827Z" fill="#FFB61D"/>
<path fill-rule="evenodd" clip-rule="evenodd" d="M268.933 257.606C268.564 258.332 267.959 258.636 267.152 258.681C264.279 258.842 262.001 257.564 259.969 255.702C259.198 254.996 258.515 254.193 257.743 253.489C257.2 252.995 256.618 252.672 255.77 252.978C255.121 253.213 254.359 253.124 253.65 253.197C252.049 253.362 250.453 253.577 248.849 253.695C247.827 253.77 247.802 254.649 247.562 255.255C247.019 256.627 246.614 258.056 246.182 259.471C246.015 260.021 245.748 260.238 245.136 260.23C242.08 260.192 239.022 260.195 235.965 260.22C234.573 260.232 233.18 260.4 231.79 260.368C229.175 260.309 226.557 260.224 223.95 260.022C221.428 259.827 218.919 259.46 216.403 259.189C214.635 258.999 212.857 258.899 211.096 258.658C209.05 258.378 207.02 257.969 204.977 257.653C203.955 257.495 202.916 257.448 201.893 257.296C200.139 257.036 198.384 256.765 196.641 256.438C195.024 256.134 193.502 256.449 191.98 256.956C189.015 257.943 186.043 258.906 183.07 259.865C182.542 260.035 182.385 260.176 182.624 260.823C183.5 263.199 184.32 265.601 185.033 268.031C185.536 269.746 185.884 271.512 186.207 273.273C186.603 275.432 186.934 277.603 187.229 279.778C187.454 281.44 187.597 283.114 187.745 284.784C187.933 286.908 188.11 289.034 188.252 291.161C188.394 293.279 188.512 295.4 188.592 297.522C188.727 301.125 188.829 304.729 188.936 308.333C189.002 310.515 189.042 312.698 189.113 314.88C189.134 315.514 189.336 316.163 189.24 316.772C189.168 317.23 188.844 317.872 188.474 318.016C187.518 318.387 187.242 319.104 187.251 320.09C187.261 321.351 187.418 322.612 187.386 323.87C187.365 324.671 187.669 325.23 188.247 325.655C190.873 327.587 193.525 329.482 196.15 331.415C197.396 332.333 198.625 333.277 199.819 334.262C201.098 335.316 202.351 336.405 203.57 337.529C204.785 338.649 205.431 340.019 205.636 341.726C205.795 343.051 205.627 344.281 205.408 345.541C205.294 346.197 204.922 346.465 204.245 346.243C201.402 345.308 198.565 344.354 195.708 343.463C190.989 341.991 186.257 340.561 181.53 339.114C179.846 338.599 178.161 338.084 176.474 337.575C175.441 337.263 175.222 336.329 175.031 335.483C174.485 333.078 175.19 330.889 176.448 328.873C177.218 327.639 178.115 326.485 178.957 325.297C179.644 324.326 179.467 323.332 179.127 322.282C178.018 318.863 176.929 315.437 175.882 311.999C174.848 308.605 173.823 305.206 172.886 301.784C171.896 298.167 170.997 294.524 170.092 290.884C169.602 288.914 169.14 286.935 168.744 284.945C168.447 283.456 168.279 281.942 168.046 280.441C167.768 278.647 167.601 276.823 167.142 275.077C166.945 274.325 166.222 273.638 165.591 273.093C164.217 271.907 162.639 271.023 160.925 270.42C160.501 270.27 160.042 270.167 159.595 270.15C157.469 270.069 155.34 270.048 153.213 269.962C151.136 269.877 149.059 269.761 146.985 269.62C144.846 269.475 142.708 269.301 140.573 269.108C138.287 268.901 135.993 268.736 133.724 268.406C131.318 268.056 128.935 267.547 126.547 267.076C125.771 266.923 125.204 267.398 125.084 268.501C124.821 270.914 124.007 273.157 123.041 275.352C122.344 276.935 121.03 277.727 119.409 277.997C118.252 278.19 117.066 278.374 115.902 278.33C112.588 278.203 109.633 277.101 107.005 274.983C103.671 272.295 101.721 268.705 100.06 264.877C99.3155 263.162 98.3574 261.525 97.7731 259.759C97.1389 257.841 96.8179 255.817 96.376 253.836C96.032 252.294 95.6817 250.752 95.3925 249.2C95.1635 247.972 95.0196 246.728 94.8459 245.489C94.6149 243.845 94.3874 242.199 94.1677 240.553C94.0953 240.009 94.0233 239.461 94.0008 238.913C93.9299 237.197 93.8946 235.48 93.8227 233.764C93.7214 231.358 93.5325 228.953 93.5007 226.546C93.4469 222.43 93.4523 218.312 93.5012 214.195C93.5227 212.388 93.6744 210.578 93.8359 208.776C94.0189 206.727 94.2964 204.687 94.499 202.64C94.6433 201.179 94.6888 199.707 94.8547 198.248C95.0989 196.109 95.3661 193.97 95.7057 191.843C96.1094 189.315 96.5708 186.795 97.0592 184.281C97.9825 179.524 99.0571 174.796 100.816 170.276C101.937 167.397 103.106 164.459 105.394 162.285C106.384 161.345 107.76 160.802 108.99 160.134C112.367 158.302 115.762 156.502 119.14 154.671C119.298 154.585 119.433 154.337 119.459 154.147C119.549 153.491 119.509 152.807 119.669 152.173C119.773 151.76 120.061 151.306 120.401 151.057C121.541 150.218 122.734 149.454 123.923 148.686C124.135 148.549 124.436 148.428 124.67 148.466C125.923 148.67 126.552 147.893 126.981 146.936C127.563 145.641 128.094 144.316 128.545 142.97C129.292 140.74 130.046 138.504 130.611 136.224C130.806 135.437 130.506 134.498 130.33 133.651C129.971 131.927 129.674 130.17 129.097 128.518C128.727 127.461 127.981 126.502 127.267 125.611C125.422 123.305 124.453 120.723 124.763 117.765C124.898 116.48 125.444 115.283 126.398 114.349C127.519 113.251 128.669 112.182 129.795 111.087C130.615 110.289 130.556 109.678 129.488 108.898C127.993 107.806 126.56 106.626 125.13 105.448C123.908 104.441 123.383 103.002 123.059 101.527C122.619 99.5216 122.567 97.4974 123.378 95.5394C124.676 92.4077 126.546 89.8237 129.97 88.8493C132.988 87.9904 135.999 88.0486 138.707 89.7733C141.168 91.3402 142.731 93.6741 143.418 96.5552C144.225 99.936 143.307 102.978 141.612 105.872C141.47 106.115 141.455 106.433 141.382 106.716C141.634 106.764 141.885 106.843 142.138 106.855C145.397 107.004 148.637 107.37 151.557 108.936C155.388 110.992 157.799 114.25 158.861 118.491C159.021 119.126 159.019 119.808 159.04 120.47C159.111 122.728 159.117 124.989 159.249 127.243C159.277 127.714 159.634 128.291 160.016 128.592C161.848 130.039 162.471 133.581 160.767 135.678C160.597 135.888 160.452 136.119 160.284 136.331C159.63 137.162 158.68 137.565 157.736 137.395C156.93 137.251 156.862 137.524 156.596 138.123C156.029 139.402 155.349 140.638 154.617 141.83C153.634 143.428 152.631 145.024 151.496 146.511C150.81 147.408 149.883 148.131 149.014 148.873C147.961 149.772 146.846 150.599 145.774 151.476C145.238 151.914 144.652 152.14 143.968 152.04C143.259 151.937 142.86 152.339 142.652 152.918C142.252 154.036 141.889 155.171 141.572 156.316C141.506 156.557 141.647 156.909 141.792 157.149C143.057 159.248 144.314 161.354 145.635 163.417C146.708 165.091 147.928 166.672 148.966 168.366C149.608 169.414 150.033 170.597 150.553 171.72C151.46 173.681 152.387 175.633 153.253 177.611C153.431 178.018 153.48 178.539 153.418 178.984C153.327 179.63 152.694 179.837 152.009 179.419C151.212 178.934 150.462 178.367 149.715 177.803C149.253 177.453 148.838 177.041 148.399 176.661C148.348 176.617 148.28 176.593 148.22 176.56C148.21 176.637 148.183 176.717 148.194 176.791C148.317 177.662 148.415 178.536 148.58 179.399C148.751 180.289 149.01 181.162 149.19 182.051C149.546 183.817 149.891 185.586 150.209 187.359C150.568 189.353 150.913 191.35 151.224 193.352C151.384 194.381 151.439 195.426 151.577 196.46C151.786 198.021 152.048 199.577 152.243 201.141C152.349 201.995 152.373 202.86 152.42 203.721C152.484 204.896 152.527 206.071 152.593 207.244C152.758 210.14 152.924 213.036 153.106 215.931C153.151 216.648 153.569 217.2 154.21 217.406C156.034 217.99 157.308 220.136 157.001 221.927C156.93 222.344 156.838 222.774 156.657 223.15C156.22 224.051 156.789 224.563 157.355 225.031C158.273 225.792 159.23 226.507 160.19 227.216C162.467 228.899 164.761 230.56 167.038 232.243C169.102 233.767 171.378 234.827 173.821 235.578C175.782 236.182 177.45 237.325 179.019 238.643C179.789 239.29 180.455 240.248 181.675 240.012C183.402 239.678 185.123 239.315 186.845 238.957C187.364 238.849 187.874 238.691 188.396 238.601C190.212 238.285 191.285 236.989 192.354 235.648C193.15 234.651 194.037 233.728 194.865 232.756C196.494 230.843 198.105 228.916 199.733 227.003C200.542 226.052 201.375 225.121 202.192 224.177C204.495 221.517 206.785 218.845 209.102 216.197C210.317 214.809 211.583 213.466 212.819 212.097C213.152 211.729 213.507 211.369 213.771 210.953C214.171 210.319 214.579 210.125 215.361 210.38C217.07 210.938 217.039 210.832 215.844 212.153C213.704 214.521 211.635 216.954 209.527 219.351C208.497 220.523 207.432 221.665 206.41 222.844C204.617 224.914 202.85 227.007 201.061 229.08C199.79 230.552 198.504 232.009 197.218 233.467C196.224 234.595 195.215 235.71 194.223 236.841C194.137 236.94 194.069 237.213 194.099 237.233C194.342 237.386 194.615 237.612 194.87 237.602C196.947 237.521 199.022 237.36 201.099 237.289C202.654 237.236 204.213 237.235 205.769 237.289C207.761 237.358 209.757 237.445 211.74 237.637C213.951 237.851 216.149 238.194 218.354 238.475C220.613 238.764 222.881 239.002 225.132 239.345C227.383 239.687 229.615 240.148 231.861 240.525C233.721 240.836 235.594 241.068 237.451 241.394C239.819 241.81 242.176 242.293 244.541 242.731C246.202 243.039 247.869 243.306 249.529 243.614C251.13 243.911 252.723 244.255 254.326 244.542C255.336 244.722 256.354 244.905 257.375 244.947C257.803 244.965 258.348 244.731 258.665 244.426C261.093 242.098 263.446 239.69 265.885 237.373C268.614 234.78 271.468 232.333 274.545 230.157C275.954 229.161 277.53 229.335 279.064 229.469C279.958 229.547 280.823 229.982 281.699 230.262C282.417 230.492 282.481 230.94 282.162 231.572C280.71 234.445 279.284 237.331 277.831 240.203C276.576 242.686 275.297 245.157 273.987 247.676C272.274 251.015 270.606 254.312 268.933 257.606ZM134.569 236.421C135.332 234.196 136.002 231.934 136.604 229.658C136.995 228.18 137.217 226.654 137.468 225.141C137.727 223.587 137.942 222.025 138.151 220.463C138.394 218.649 138.77 216.834 138.8 215.015C138.859 211.362 138.709 207.705 138.669 204.05C138.644 201.816 138.631 199.581 138.675 197.348C138.709 195.591 137.695 194.282 136.956 192.841C136.464 191.882 135.945 190.914 135.631 189.89C135.054 188.012 134.586 186.097 134.139 184.181C133.834 182.872 133.609 181.54 133.408 180.209C133.175 178.669 132.673 177.223 132.021 175.825C131.966 175.708 131.508 175.622 131.459 175.688C131.196 176.043 131 176.449 130.788 176.841C130.41 177.538 129.836 178.202 129.705 178.945C129.443 180.429 128.765 181.703 128.071 182.976C127.64 183.769 126.912 183.79 126.407 183.062C125.865 182.28 125.279 181.491 124.932 180.616C124.118 178.559 123.389 176.465 122.711 174.358C121.819 171.589 120.979 168.802 120.179 166.004C119.761 164.544 119.345 163.06 119.17 161.559C118.998 160.087 119.134 158.577 119.13 157.085C119.129 156.951 119.088 156.818 119.067 156.685C119.007 156.732 118.952 156.789 118.886 156.826C117.334 157.687 115.792 158.566 114.225 159.398C112.672 160.223 111.11 161.038 109.521 161.79C107.778 162.613 106.03 163.462 105.021 165.188C103.929 167.054 102.654 168.832 101.996 170.936C101.318 173.105 100.551 175.249 99.9609 177.442C99.3571 179.684 98.9465 181.979 98.4024 184.238C98.055 185.682 97.4824 187.082 97.2544 188.541C96.9065 190.765 96.6917 193.019 96.5669 195.269C96.4602 197.2 96.468 199.135 96.2097 201.058C96.009 202.552 95.8725 204.054 95.692 205.55C95.4165 207.828 94.9222 210.102 94.8865 212.383C94.8082 217.433 95.0147 222.487 94.9912 227.54C94.979 230.187 95.371 232.776 95.6802 235.386C96.0237 238.283 96.2268 241.197 96.5547 244.096C96.7773 246.067 97.0004 248.049 97.4174 249.983C98.0961 253.132 98.8252 256.279 99.7314 259.367C100.862 263.221 102.522 266.851 104.86 270.144C106.32 272.201 108.104 273.887 110.305 275.098C113.289 276.74 116.49 276.598 119.697 276.097C120.222 276.014 120.903 275.607 121.128 275.155C121.759 273.889 122.311 272.554 122.67 271.187C123.181 269.244 123.406 267.226 123.907 265.28C124.733 262.071 125.772 258.917 126.551 255.697C127.192 253.045 128.414 250.652 129.475 248.187C130.257 246.373 131.18 244.62 132.125 242.755C132.946 240.646 133.836 238.561 134.569 236.421ZM162.739 269.177C164.283 270.129 165.797 271.138 167.266 272.203C168.184 272.868 168.843 273.835 169.044 274.953C169.51 277.541 169.819 280.157 170.269 282.748C170.585 284.567 171.039 286.361 171.414 288.17C171.72 289.642 172.003 291.119 172.293 292.594C172.578 294.045 172.855 295.496 173.144 296.945C173.364 298.05 173.591 299.153 173.823 300.255C174.198 302.037 174.496 303.841 174.98 305.593C175.457 307.318 176.175 308.975 176.698 310.689C177.569 313.541 178.651 316.303 179.903 319.006C180.2 319.647 180.699 319.519 180.996 319.402C182.869 318.662 184.717 317.855 186.554 317.023C187.133 316.761 187.442 316.253 187.415 315.559C187.342 313.672 187.292 311.785 187.24 309.898C187.179 307.64 187.127 305.382 187.07 303.124C187.013 300.913 187.001 298.701 186.887 296.493C186.776 294.336 186.566 292.185 186.389 290.032C186.168 287.35 185.963 284.667 185.702 281.988C185.522 280.139 185.356 278.279 185.01 276.457C184.409 273.304 183.671 270.177 182.994 267.038C182.204 263.38 180.679 260.192 177.664 257.798C175.367 255.975 172.958 254.347 170.354 253.046C167.472 251.607 164.558 250.206 161.567 249.023C158.148 247.671 154.826 245.963 151.062 245.651C149.253 245.502 147.459 245.182 145.653 244.988C144.204 244.833 142.744 244.789 141.296 244.629C139.004 244.376 136.721 244.04 134.427 243.813C134.106 243.782 133.621 244.086 133.424 244.379C132.97 245.053 132.629 245.808 132.275 246.546C131.17 248.85 129.875 251.089 129.034 253.488C127.922 256.659 127.168 259.956 126.267 263.202C125.757 265.04 125.745 265.122 127.336 265.458C129.175 265.847 131.044 266.105 132.908 266.364C134.127 266.533 135.362 266.58 136.586 266.722C138.904 266.99 141.217 267.311 143.537 267.564C145.013 267.724 146.497 267.821 147.98 267.909C150.196 268.042 152.413 268.167 154.631 268.248C155.959 268.297 157.291 268.257 158.791 268.257C160.184 268.231 161.545 268.441 162.739 269.177ZM229.303 258.499C230.732 258.567 232.162 258.637 233.592 258.668C236.907 258.739 240.223 258.795 243.539 258.836C244.2 258.844 244.797 258.568 244.975 257.881C245.936 254.183 247.825 250.754 248.068 246.843C248.129 245.851 247.702 245.15 246.698 244.972C245.65 244.787 244.615 244.528 243.57 244.327C242.256 244.075 240.935 243.853 239.619 243.609C238.437 243.39 237.257 243.163 236.077 242.933C235.214 242.765 234.354 242.579 233.49 242.415C231.835 242.099 230.179 241.79 228.524 241.485C227.391 241.275 226.26 241.061 225.124 240.877C224.242 240.735 223.353 240.645 222.469 240.515C220.603 240.24 218.738 239.956 216.873 239.674C215.807 239.513 214.744 239.337 213.677 239.192C212.253 238.998 210.825 238.67 209.4 238.679C205.824 238.699 202.249 238.857 198.675 238.998C196.965 239.065 195.253 239.161 193.554 239.354C192.603 239.462 191.689 239.766 190.999 240.573C189.876 241.889 188.67 243.133 187.534 244.439C186.818 245.264 186.147 246.131 185.492 247.006C184.625 248.165 183.568 248.869 182.057 248.751C179.583 248.559 177.104 248.416 174.629 248.225C173.711 248.154 172.797 248.016 171.884 247.887C170.334 247.669 168.791 247.415 167.24 247.21C165.757 247.015 164.27 246.853 162.782 246.698C162.362 246.655 161.933 246.679 161.51 246.703C161.426 246.708 161.349 246.853 161.269 246.933C161.355 246.973 161.443 247.01 161.528 247.054C162.272 247.446 162.997 247.883 163.764 248.224C166.012 249.225 168.33 250.08 170.521 251.191C173.703 252.805 176.673 254.775 179.372 257.143C180.21 257.878 181.013 258.423 182.386 258.239C184.562 257.947 186.596 257.406 188.549 256.448C191.177 255.159 193.851 254.102 196.873 254.733C198.622 255.099 200.379 255.419 202.126 255.796C203.232 256.035 204.311 256.43 205.426 256.596C206.808 256.803 208.215 256.84 209.611 256.962C212.149 257.185 214.687 257.422 217.225 257.644C218.948 257.795 220.673 257.931 222.482 258.159C224.756 258.273 227.029 258.392 229.303 258.499ZM140.865 209.053C140.89 209.737 140.863 210.422 140.874 211.107C140.927 214.306 140.977 217.505 141.048 220.704C141.068 221.632 141.028 222.589 141.239 223.48C141.666 225.282 142.226 227.054 142.772 228.825C143.005 229.584 143.331 230.307 144.181 230.607C144.921 230.868 145.638 231.197 146.38 231.454C147.48 231.835 147.817 231.69 148.535 230.675C148.772 230.34 149.046 230.029 149.313 229.716C151.032 227.694 152.803 225.716 154.458 223.643C155.681 222.113 155.469 219.652 153.423 218.862C153.202 218.777 152.984 218.675 152.756 218.627C151.546 218.374 151.602 218.378 151.562 217.226C151.419 213.11 151.898 208.983 151.256 204.872C151 203.231 151.106 201.533 150.87 199.887C150.504 197.325 149.997 194.784 149.531 192.237C149.091 189.829 148.651 187.42 148.169 185.019C147.808 183.228 147.376 181.452 146.989 179.666C146.693 178.304 146.461 176.926 146.105 175.581C146.008 175.218 145.56 174.949 145.274 174.636C144.939 174.963 144.352 175.26 144.312 175.62C144.106 177.445 143.827 179.304 143.986 181.115C144.169 183.195 144.479 185.257 144.085 187.322C143.636 189.675 142.889 191.934 141.625 193.993C140.924 195.134 140.4 196.318 140.519 197.73C140.637 199.127 140.675 200.534 140.695 201.936C140.723 203.932 140.702 205.929 140.702 208.097C140.759 208.415 140.853 208.733 140.865 209.053ZM131.959 138.356C131.817 138.579 131.618 138.784 131.54 139.028C130.733 141.516 129.996 144.029 129.134 146.497C128.615 147.985 127.8 149.312 126.452 150.246C125.473 150.925 124.559 151.7 123.601 152.411C123.129 152.761 123.229 153.065 123.523 153.491C124.405 154.764 125.337 156.017 126.073 157.375C127.089 159.249 127.959 161.205 128.862 163.139C129.743 165.024 130.663 166.896 131.426 168.829C132.074 170.471 132.422 172.235 133.089 173.868C133.692 175.345 134.339 176.8 134.557 178.381C134.631 178.919 134.804 178.924 135.208 178.922C137.637 178.914 139.982 178.59 142.03 177.132C142.205 177.007 142.353 176.751 142.386 176.536C142.467 176.016 142.453 175.482 142.513 174.958C142.556 174.588 142.795 174.189 142.71 173.866C142.391 172.668 141.966 171.498 141.595 170.313C140.886 168.05 139.956 165.811 139.892 163.423C139.828 160.993 140.045 158.553 140.21 156.122C140.277 155.131 140.47 154.136 140.719 153.172C141.011 152.041 140.941 151.732 139.929 151.18C138.263 150.273 136.828 149.053 135.802 147.479C134.126 144.91 132.839 142.146 132.38 138.951C132.24 138.752 132.1 138.554 131.959 138.356ZM156.119 137.598C156.165 137.505 156.577 137.217 155.965 137.113C155.346 137.008 154.646 136.705 154.221 136.258C153.387 135.381 152.697 134.36 151.997 133.364C151.798 133.082 151.728 132.911 151.449 133.249C151.272 133.464 151.042 133.634 150.866 133.849C149.334 135.714 147.13 136.507 145.067 135.988C142.594 135.367 141.086 132.708 141.052 130.402C141.039 129.482 140.75 128.712 140.022 128.183C138.81 127.303 137.562 126.47 136.316 125.638C135.619 125.172 134.954 125.324 134.774 126.059C134.328 127.877 133.773 129.699 133.618 131.55C133.425 133.84 133.517 136.152 134.059 138.437C134.973 142.287 136.159 145.945 139.275 148.658C141.284 150.407 143.766 150.8 146.158 149.742C148.529 148.693 149.985 146.752 151.402 144.733C152.593 143.035 153.78 141.335 155.054 139.55C155.414 138.902 155.788 138.261 156.119 137.598ZM258.787 251.933C260.434 254.046 262.35 255.81 264.972 256.663C266.591 257.191 267.184 257.098 268.08 255.375C269.908 251.862 271.715 248.337 273.517 244.811C274.236 243.402 274.902 241.965 275.622 240.557C277.03 237.806 278.457 235.065 279.884 232.324C280.144 231.825 279.897 231.372 279.513 231.32C278.182 231.141 276.776 230.758 275.539 231.587C273.908 232.68 272.267 233.78 270.767 235.043C268.491 236.958 266.3 238.978 264.141 241.027C263.162 241.957 262.335 243.053 261.465 244.095C260.778 244.918 259.896 245.611 259.634 246.736C259.392 247.777 259.153 248.818 258.914 250.029C258.631 250.65 258.316 251.328 258.787 251.933ZM202.693 343.792C203.081 343.823 203.829 343.645 203.833 343.539C203.883 342.066 204.159 340.505 202.848 339.355C201.143 337.86 199.492 336.296 197.714 334.895C194.846 332.634 191.894 330.481 188.976 328.286C187.933 327.501 186.896 326.668 185.569 326.463C184.381 326.28 183.17 326.256 181.978 326.096C180.973 325.96 180.288 326.4 179.678 327.129C178.197 328.899 177.12 330.866 176.713 333.164C176.393 334.965 176.968 335.957 178.41 336.385C181.156 337.2 183.882 338.082 186.622 338.915C188.586 339.512 190.568 340.051 192.528 340.66C195.385 341.55 198.231 342.48 201.251 343.393C201.732 343.534 202.205 343.753 202.693 343.792ZM145.033 232.824C143.137 232.067 141.252 231.282 139.352 230.537C138.79 230.317 138.312 230.252 138.127 231.124C137.926 232.07 137.498 232.967 137.188 233.891C136.5 235.943 135.81 237.995 135.159 240.059C135.039 240.44 134.856 240.975 135.603 241.048C136.577 241.143 137.545 241.307 138.52 241.379C140.424 241.518 142.329 241.655 144.237 241.718C147.071 241.813 149.906 241.847 152.741 241.897C153.646 241.913 154.552 241.897 155.458 241.901C155.678 241.902 155.911 241.887 156.116 241.951C158.57 242.724 161.016 243.526 163.473 244.292C165.944 245.062 168.419 245.819 171.059 245.67C171.976 245.618 172.144 245.445 171.807 244.595C171.623 244.131 171.367 243.658 171.029 243.301C169.375 241.553 167.356 240.334 165.196 239.331C163.476 238.532 161.794 237.641 159.858 237.44C158.952 237.346 158.039 237.214 157.16 236.985C155.762 236.62 154.375 236.198 153.008 235.728C151.3 235.141 149.616 234.483 147.751 233.855C146.844 233.512 145.933 233.183 145.033 232.824ZM123.71 157.269C122.916 156.027 122.079 154.813 121.258 153.588C121.144 153.418 121.019 153.254 120.899 153.088C120.82 153.368 120.708 153.644 120.667 153.93C120.531 154.875 120.455 155.83 120.294 156.77C119.975 158.631 119.801 160.46 120.998 162.114C121.074 162.219 121.133 162.345 121.168 162.47C121.608 164.082 122.04 165.697 122.479 167.31C122.59 167.718 122.706 168.125 122.839 168.527C123.411 170.254 124.105 171.951 124.536 173.712C124.979 175.523 125.318 177.341 126.238 178.995C126.502 179.469 126.588 180.043 126.783 180.56C126.841 180.715 127.033 180.964 127.094 180.945C127.289 180.884 127.545 180.754 127.61 180.585C128.37 178.618 128.736 176.47 130.177 174.819C131.401 173.416 131.147 171.982 130.396 170.485C130.103 169.899 129.921 169.258 129.659 168.656C129.093 167.353 128.551 166.037 127.917 164.767C127.363 163.658 126.693 162.609 126.083 161.528C125.654 160.767 125.242 159.998 124.737 159.147C124.397 158.519 124.094 157.868 123.71 157.269ZM169.586 235.818C167.106 234.203 164.591 232.634 162.188 230.908C160.175 229.463 158.31 227.81 156.354 226.283C155.826 225.871 155.22 225.733 154.681 226.355C153.807 227.361 152.917 228.354 152.044 229.361C151.394 230.112 150.77 230.885 150.119 231.635C149.61 232.221 149.663 232.536 150.408 232.76C152.802 233.481 155.212 234.145 157.598 234.89C160.855 235.906 164.109 236.939 167.336 238.046C168.369 238.4 169.279 239.115 170.31 239.474C171.358 239.839 172.478 240.029 173.582 240.184C174.856 240.363 176.148 240.435 177.434 240.515C177.639 240.528 177.856 240.343 178.068 240.25C177.943 240.074 177.847 239.861 177.687 239.728C175.648 238.046 173.212 237.177 170.68 236.251C170.313 236.11 169.909 236.028 169.586 235.818ZM137.29 190.737C137.605 191.943 138.355 192.53 139.508 192.639C140.505 192.733 140.797 192.182 141.04 191.449C141.388 190.397 141.732 189.345 142.059 188.287C142.784 185.937 142.68 183.569 142.246 181.181C142.105 180.402 142.138 179.59 142.102 178.792C142.097 178.677 142.156 178.558 142.185 178.441C142.069 178.475 141.948 178.499 141.836 178.545C141.137 178.837 140.464 179.241 139.736 179.406C138.375 179.714 136.986 179.918 135.6 180.097C135.065 180.165 134.748 180.222 134.917 180.882C135.078 181.506 135.142 182.154 135.27 182.787C135.545 184.15 135.833 185.512 136.117 187.045C136.513 188.274 136.964 189.489 137.29 190.737ZM151.804 177.862C151.936 177.975 152.083 178.071 152.223 178.174C152.222 177.983 152.275 177.771 152.212 177.603C151.844 176.618 151.501 175.617 151.052 174.669C150.094 172.643 149.214 170.561 148.045 168.663C146.895 166.797 145.348 165.185 144.126 163.358C143.252 162.05 142.633 160.568 141.886 159.171C141.771 158.956 141.581 158.782 141.426 158.589C141.355 158.816 141.217 159.044 141.222 159.269C141.258 160.728 141.277 162.19 141.399 163.643C141.481 164.634 141.647 165.633 141.911 166.59C142.205 167.652 142.736 168.65 143.011 169.716C143.332 170.964 143.919 171.753 145.118 172.419C147.105 173.525 149.156 174.673 150.554 176.776C150.97 177.139 151.384 177.504 151.804 177.862ZM142.958 129.5C142.306 130.458 143.515 133.812 144.173 134.061C148.775 135.808 150.087 132.819 150.148 131.999C150.268 130.37 150.467 128.719 148.94 127.398C144.912 126.59 144.012 127.953 142.958 129.5ZM160.582 130.856C159.963 129.303 159.027 128.289 157.397 128.644C156.565 128.825 155.833 129.49 155.067 129.956C153.424 130.958 153.209 131.507 153.783 133.284C154.358 135.062 155.699 136.081 157.406 136.427C158.818 136.713 159.828 135.83 160.574 134.501C160.762 133.287 161.072 132.086 160.582 130.856ZM154.487 128.847C155.15 128.372 155.87 127.667 156.586 127.641C157.824 127.596 157.623 126.834 157.489 126.233C157.116 124.555 156.628 122.902 156.152 121.249C155.826 120.117 155.551 120.052 154.76 120.849C153.405 122.214 152.033 123.553 150.332 124.496C149.8 124.791 149.727 125.47 150.107 126.005C150.249 126.204 150.441 126.375 150.547 126.59C151.07 127.651 151.545 128.737 152.103 129.778C152.227 130.008 152.133 130.822 152.931 130.222C153.447 129.759 153.928 129.248 154.487 128.847ZM254.435 251.626C255.59 251.409 256.828 251.111 257.007 249.561C257.036 249.3 257.154 249.052 257.213 248.794C257.578 247.191 257.165 246.678 255.574 246.506C254.076 246.344 252.589 246.074 251.1 245.832C250.304 245.702 250.157 245.853 250.069 246.67C249.948 247.801 249.773 248.93 249.563 250.049C249.379 251.03 249.651 251.806 250.506 251.998C251.817 251.883 253.147 251.867 254.435 251.626ZM185.078 324.541C185.24 324.533 185.515 324.21 185.52 324.026C185.561 322.801 185.531 321.575 185.545 320.35C185.553 319.661 185.029 319.638 184.654 319.759C183.836 320.022 183.058 320.413 182.269 320.763C181.699 321.016 181.058 321.221 181.127 322.05C181.176 322.635 181.176 323.234 181.309 323.801C181.531 324.74 182.336 324.294 182.993 324.48C183.689 324.509 184.386 324.572 185.078 324.541ZM139.841 224.979C139.792 224.84 139.591 224.754 139.46 224.644C139.364 224.782 139.199 224.913 139.185 225.058C139.106 225.938 139.038 226.82 139.011 227.703C138.984 228.566 139.591 229.126 140.461 229.046C140.608 229.032 140.87 228.77 140.851 228.665C140.722 227.964 140.533 227.275 140.278 226.496C140.136 225.989 140.014 225.474 139.841 224.979ZM187.693 241.148C187.787 240.96 187.985 240.435 187.409 240.544C186.53 240.711 185.667 240.962 184.803 241.199C184.644 241.243 184.515 241.392 184.373 241.492C184.538 241.571 184.701 241.712 184.869 241.717C185.573 241.743 186.279 241.728 187.07 241.642C187.286 241.482 187.585 241.363 187.693 241.148ZM122.105 151.36C121.969 151.439 121.834 151.518 121.699 151.598C121.805 151.717 121.892 151.883 122.025 151.939C122.105 151.973 122.279 151.858 122.37 151.769C122.893 151.258 123.406 150.737 123.917 150.214C124.018 150.109 124.093 149.977 124.18 149.857C124.008 149.891 123.792 149.87 123.673 149.968C123.163 150.384 122.681 150.836 122.105 151.36Z" fill="#00160A"/>
<path fill-rule="evenodd" clip-rule="evenodd" d="M140.305 141.39C139.509 140.956 138.722 140.6 138.556 139.634C138.235 137.756 138.906 135.543 141.334 135.672C143.522 135.788 144.911 137.621 144.137 139.69C143.566 141.217 142.18 141.973 140.305 141.39Z" fill="#FFB61D"/>
<path fill-rule="evenodd" clip-rule="evenodd" d="M151.098 134.384C151.142 134.096 151.185 133.895 151.229 133.693C151.298 133.869 151.387 134.04 151.433 134.221C151.774 135.568 152.856 138.922 151.567 140.465C151.46 140.594 150.916 140.614 150.578 140.593C149.912 140.55 149.136 139.561 149.26 138.922C149.279 138.826 150.885 140.398 151.229 139.547C151.804 138.129 151.098 134.872 151.098 134.384Z" fill="#00160A"/>
<path fill-rule="evenodd" clip-rule="evenodd" d="M142.038 144.212C141.971 144.178 141.878 144.187 141.798 144.19C141.6 144.199 141.33 143.842 141.445 143.69C141.618 143.463 141.815 143.233 142.051 143.083C142.19 142.994 142.422 143.283 142.404 143.411C142.392 143.507 142.482 143.657 142.569 143.721C143.899 144.706 145.375 145.344 146.99 145.651C147.097 145.671 147.19 145.768 147.289 145.828C147.19 145.898 147.092 146.033 146.992 146.027C145.23 145.923 143.192 144.803 142.038 144.212Z" fill="#00160A"/>
<path fill-rule="evenodd" clip-rule="evenodd" d="M99.1002 221.338L97.4262 228.546C97.297 229.103 97.8172 229.591 98.3593 229.421L104.171 227.597C104.66 227.443 104.846 226.845 104.532 226.437L100.395 221.053C100.017 220.561 99.2411 220.732 99.1002 221.338ZM99.8151 222.493L103.463 226.89L98.1411 228.714L99.8151 222.493Z" fill="#FFB61D"/>
<path fill-rule="evenodd" clip-rule="evenodd" d="M104.294 179.753C103.682 179.698 103.277 180.379 103.615 180.897L107.872 187.422C108.159 187.862 108.797 187.867 109.091 187.433L113.01 181.647C113.326 181.181 113.027 180.543 112.469 180.493L104.294 179.753ZM104.869 180.493L112.189 181.927L107.872 186.482L104.869 180.493Z" fill="#FFB61D"/>
<path fill-rule="evenodd" clip-rule="evenodd" d="M131.274 229.647H125.269C124.772 229.647 124.418 230.136 124.571 230.613L126.588 236.934C126.778 237.531 127.572 237.633 127.906 237.104L131.893 230.784C132.204 230.291 131.853 229.647 131.274 229.647ZM130.785 230.88L127.776 236.707L125.759 230.387L130.785 230.88Z" fill="#FFB61D"/>
<path fill-rule="evenodd" clip-rule="evenodd" d="M111.599 263.896L111.324 269.376C111.295 269.95 111.899 270.336 112.402 270.066L119.384 266.317C119.975 265.999 119.87 265.114 119.221 264.947L112.514 263.216C112.064 263.101 111.622 263.429 111.599 263.896ZM112.129 264.419L118.545 265.317L112.402 268.978L112.129 264.419Z" fill="#FFB61D"/>
<path fill-rule="evenodd" clip-rule="evenodd" d="M102.342 196.597L96.9594 200.358C96.5038 200.677 96.5488 201.369 97.0421 201.625L103.341 204.885C103.868 205.158 104.481 204.722 104.404 204.13L103.488 197.108C103.416 196.559 102.793 196.281 102.342 196.597ZM102.558 197.904L103.676 204.227L97.3773 200.966L102.558 197.904Z" fill="#FFB61D"/>
<path fill-rule="evenodd" clip-rule="evenodd" d="M127.04 212.708L123.681 217.764C123.392 218.199 123.63 218.791 124.139 218.9L128.066 219.737C128.551 219.841 128.997 219.439 128.949 218.941L128.38 213.048C128.313 212.357 127.423 212.131 127.04 212.708ZM127.954 213.721V219.135L124.577 217.764L127.954 213.721Z" fill="#FFB61D"/>
<path fill-rule="evenodd" clip-rule="evenodd" d="M127.676 188.89C128.653 188.248 129.51 188.4 128.813 189.815C128.813 189.815 123.718 202.837 122.196 202.991C120.753 203.137 120.056 201.255 118.04 195.875L117.955 195.646C117.947 195.625 117.941 195.605 117.935 195.585L117.924 195.542L117.911 195.518L117.883 195.452L117.642 194.795C117.357 194.012 116.64 192.719 116.262 192.269C115.858 191.791 116.759 191.494 117.424 191.494C118.666 191.494 120.186 191.844 122.576 191.148C125.376 190.334 126.336 189.772 127.676 188.89ZM125.509 195.581L125.442 195.624C124.731 196.065 123.946 196.405 123.087 196.641C122.061 196.924 120.571 196.959 119.607 196.747L119.446 196.709L119.506 196.859C120.05 198.225 120.533 199.805 120.954 200.609L121.102 200.883C121.366 201.361 121.598 201.709 121.785 201.918L121.844 201.98L121.917 201.891C122.231 201.486 123.35 199.962 124.126 198.44L124.208 198.281C124.54 197.623 124.903 196.876 125.296 196.039L125.509 195.581ZM127.606 190.395L127.488 190.463C126.383 191.083 124.554 192.113 122.983 192.57C121.103 193.118 119.508 193.313 118.196 193.138L118.116 193.126L118.162 193.257C118.287 193.61 118.819 195.284 119.006 195.542C119.768 196.25 120.701 196.318 121.844 196.039L122.008 195.996C126.1 195.199 127.606 190.395 127.606 190.395Z" fill="#FFB61D"/>
<path fill-rule="evenodd" clip-rule="evenodd" d="M271.325 235.92C271.488 235.799 271.718 235.834 271.838 235.998C272.685 237.156 274.12 237.213 276.027 236.146C276.204 236.047 276.427 236.111 276.526 236.29C276.624 236.468 276.56 236.693 276.383 236.793C274.189 238.021 272.352 237.948 271.247 236.437C271.127 236.273 271.162 236.041 271.325 235.92Z" fill="#E7EAEE"/>
<path fill-rule="evenodd" clip-rule="evenodd" d="M268.551 238.884C268.701 238.746 268.933 238.758 269.069 238.909C270.354 240.334 272.062 240.415 273.451 239.667C273.63 239.571 273.852 239.639 273.948 239.819C274.043 240 273.975 240.224 273.797 240.32C272.138 241.213 270.067 241.115 268.526 239.406C268.39 239.255 268.401 239.022 268.551 238.884Z" fill="#E7EAEE"/>
<path fill-rule="evenodd" clip-rule="evenodd" d="M265.545 241.82C265.693 241.68 265.925 241.686 266.064 241.835C267.303 243.162 269.821 243.81 271.543 242.89C271.722 242.795 271.944 242.863 272.039 243.044C272.134 243.224 272.066 243.448 271.887 243.544C269.847 244.634 266.979 243.895 265.53 242.343C265.391 242.194 265.398 241.96 265.545 241.82Z" fill="#E7EAEE"/>
<path fill-rule="evenodd" clip-rule="evenodd" d="M267.878 253.423C270.455 252.167 267.791 247.51 265.298 249.395C263.699 250.603 265.452 254.607 267.878 253.423Z" fill="#E7EAEE"/>
</g>
<defs>
<clipPath id="clip0_235_394">
<rect width="367" height="370" fill="white"/>
</clipPath>
</defs>
</svg>
